<?xml version="1.0" encoding="utf-8"?>
<!-- Generator: Adobe Illustrator 22.1.0, SVG Export Plug-In . SVG Version: 6.00 Build 0)  -->
<svg version="1.1" id="Layer_1" xmlns="http://www.w3.org/2000/svg" xmlns:xlink="http://www.w3.org/1999/xlink" x="0px" y="0px"
	 viewBox="0 0 1280 1024" style="enable-background:new 0 0 1280 1024;" xml:space="preserve">
<style type="text/css">
	.st0{fill:#293693;}
	.st1{fill:#FDFDFE;}
	.st2{fill:#5968DB;}
	.st3{fill:#FEFEFE;}
	.st4{fill:none;stroke:#FFFFFF;stroke-width:10;}
</style>
<g>
	<g>
		<path class="st0" d="M1142,474c0,27.3,0,54.7,0,82c-0.7,1.7-1.8,3.3-2.1,5c-2.7,17.1-4.6,34.3-7.8,51.3
			c-38.4,203.5-209.9,366.8-415.4,396c-11.6,1.7-23.2,3.8-34.8,5.7c-27.3,0-54.7,0-82,0c-2-0.7-4-1.7-6-2.1
			c-31.6-6.2-64.3-9-94.6-19.1c-196.9-65.3-314.6-200.5-351.8-405.1c-1.9-10.6-3.7-21.2-5.6-31.7c0-28,0-56,0-84
			c0.7-2,1.7-3.9,2.1-6c6.3-31.9,9.2-65,19.4-95.6C229,173.9,364.2,56.7,568.3,19.6c10.6-1.9,21.1-3.7,31.7-5.6c27.3,0,54.7,0,82,0
			c1.7,0.7,3.3,1.8,5,2c59.5,5.4,116.8,19.9,170.2,46.8c156.6,79,250.4,204.9,279.3,378.4C1138.4,452.2,1140.2,463.1,1142,474z
			 M1098,510c0-253.3-206-459.8-459-460c-254.1-0.2-460.8,205.6-461,459c-0.1,254.6,205.8,461,460,461
			C891.8,970,1098,763.8,1098,510z"/>
		<path class="st1" d="M1142,474c-1.8-10.9-3.6-21.8-5.5-32.8c-28.9-173.5-122.7-299.5-279.3-378.4C803.9,35.9,746.6,21.4,687,16
			c-1.7-0.2-3.4-1.3-5-2c153.3,0,306.7,0,460,0C1142,167.3,1142,320.7,1142,474z"/>
		<path class="st1" d="M600,14c-10.6,1.9-21.2,3.7-31.7,5.6C364.2,56.7,229,173.9,163.6,370.4c-10.2,30.6-13.1,63.7-19.4,95.6
			c-0.4,2.1-1.4,4-2.1,6c0-152.5,0-305,0-458C294.7,14,447.3,14,600,14z"/>
		<path class="st1" d="M142,556c1.9,10.6,3.7,21.2,5.6,31.7c37.2,204.5,154.8,339.7,351.8,405.1c30.3,10.1,63,12.8,94.6,19.1
			c2.1,0.4,4,1.4,6,2.1c-152.7,0-305.3,0-458,0C142,861.3,142,708.7,142,556z"/>
		<path class="st1" d="M682,1014c11.6-1.9,23.1-4,34.8-5.7c205.5-29.2,376.9-192.6,415.4-396c3.2-17,5.2-34.2,7.8-51.3
			c0.3-1.7,1.4-3.4,2.1-5c0,152.7,0,305.3,0,458C988.7,1014,835.3,1014,682,1014z"/>
		<path class="st2" d="M1098,510c0,253.8-206.1,460-460,460c-254.2,0-460.2-206.3-460-461c0.1-253.4,206.8-459.2,461-459
			C892,50.2,1098,256.6,1098,510z M638.8,314.4c-2.6-1.8-3.5-2.3-4.2-3c-0.9-0.9-1.9-1.9-2.4-3.1c-6-13.9-16.7-18.7-31.2-16.3
			c-1.3,0.2-2.7,0-4,0c-14.3,0-26.7,10.5-26.8,25c-0.5,41-0.9,82,0.6,122.9c0.2,6.8,8.7,17.1,15.4,19c8.7,2.5,10.1,5.6,10.1,13.1
			c-0.2,46.6-0.1,93.3,0,139.9c0,11.7,10.8,23.2,22,24c14.2,1,25.7-7,27.8-19.6c1-6.2,1.6-12.5,1.6-18.8
			c0.2-42.3,0.2-84.6,0.2-126.9c0-4.7,0.3-9.5,6.6-8.2c2.4,0.5,5.9,4.1,5.9,6.3c0.7,43.9,1,87.9,1.4,131.8c0,5.6-0.5,11.4,0.4,16.9
			c1.8,11.2,11.2,17.1,25.6,16.8c12.4-0.3,21.1-7.1,22.3-18.1c1-8.9,1.8-17.9,1.8-26.8c0.2-39.3,0.2-78.6,0.1-117.9
			c0-7.1,0.1-12.1,9.6-14.2c10-2.2,16.1-11.6,16.2-21.7c0.6-40,0.7-80,0.1-119.9c-0.2-14.4-11-23.5-25-23.5c-5.3,0-10.8,0.6-16-0.1
			c-10-1.5-15.3,3.7-19.6,11.7c-1.9,3.6-4.6,6.9-7.9,11.9c-4-6.7-6.7-12-10.1-16.7c-1.5-2.1-4.4-4-6.8-4.1c-1.6-0.1-3.7,2.9-4.9,4.9
			C644.4,304.1,641.9,308.9,638.8,314.4z M732.2,579.5c7.4-4.7,13-8.3,18.8-11.8c35.4-21.4,70.9-42.7,106.5-63.8
			c1.8-1.1,5.6-0.7,7.6,0.5c5.3,3.2,10.2,7,15.1,10.9c6.8,5.4,13.4,11.2,22.7,19c0-36.9,0-71,0-107.6c-42,3.5-84.7,7.2-128.2,10.8
			c9.9,7.4,19.4,14.5,30,22.4c-22.3,20-47.5,33.8-72.4,48.2C732.2,531,732.2,553.9,732.2,579.5z M913.6,771.3c0-3.6,0.3-5-0.1-6.2
			c-7.2-21.3-14.5-42.5-21.8-63.8c-1.7-4.9-3.7-9.7-5.6-14.6c-2.5-6.5-6-5.8-10.4-1.7c-6,5.6-12.3,11-17.7,15.8
			c-5.6-2.8-10.9-4.6-15.3-7.7c-16-11.4-31.6-23.3-47.5-34.9c-7.7-5.6-15.6-11.1-23.6-16.3c-8.8-5.6-18-10.6-26.8-16.3
			c-6.9-4.5-12.6-5.8-19.1,1.1c-6.6,6.9-13.9,13.3-21.6,18.9c-11.3,8.3-11.8,10.9-1.4,20c1.2,1.1,2.8,1.7,4.1,2.6
			c13.2,8.4,26.6,16.8,39.7,25.4c10,6.6,19.8,13.4,29.5,20.4c9.3,6.7,18.4,13.7,30.5,22.8c-7.7,6.2-14.3,11.4-23.1,18.5
			C829,761,871.1,766.1,913.6,771.3z M613.8,657.3c-4-2.3-6.8-3.4-9-5.2c-8.2-6.7-17.6-12.5-24-20.6c-8.5-10.9-7.6-11.8-19.1-4.1
			c-16.8,11.3-33.6,22.7-50.4,34c-17.3,11.6-35.4,22.2-51.9,35c-7.1,5.5-11.1,6.1-17.5,0.7c-4.9-4.2-10.6-7.6-17-12.1
			c-6.7,27.4-13.1,53.7-20.3,83.1c23.6-2.9,44.3-6.3,65.1-7.8c20.7-1.5,41.8,1.1,65.1-5.7c-12.9-7-22.9-12.4-33.1-18
			c0.9-1.5,1.2-2.7,2-3.1c19.7-11.2,37-26,57.3-36.8C579.7,686.8,595.4,671.3,613.8,657.3z M527.6,442.5c0-1,0-2,0-3
			c-41-3.9-82-7.9-125.3-12c8.8,33.7,16.9,65,25.6,98.4c6.7-7.8,12-14.8,18.1-21c2.6-2.6,8.3-6,10.3-4.9
			c15.8,8.8,31.3,18.2,46.4,28.2c11.8,7.8,22.6,17.2,34.3,25.2c9.7,6.5,20,12.1,30.2,17.9c2.2,1.3,5.1,1.4,8.8,2.3
			c0-21.1,0.1-40.7-0.1-60.3c0-2.3-1.2-5.5-2.9-6.7c-17.9-12.5-36.1-24.8-54.2-37c-4.1-2.8-8.4-5.2-13.4-8.3
			C513.6,454.2,520.6,448.4,527.6,442.5z M654.3,292c24.7,0.1,45.6-20.3,45.7-44.6c0.1-24.2-20.4-45.4-44-45.5
			c-24.5-0.1-47.9,20.3-48,41.9C607.8,271.5,627.4,291.9,654.3,292z"/>
		<path class="st0" d="M638.8,314.4c3.1-5.5,5.6-10.3,8.6-15c1.3-2,3.4-5,4.9-4.9c2.4,0.1,5.4,2.1,6.8,4.1c3.4,4.7,6.2,10,10.1,16.7
			c3.3-5,6-8.2,7.9-11.9c4.2-7.9,9.6-13.1,19.6-11.7c5.2,0.8,10.6,0.1,16,0.1c14.1,0,24.8,9.1,25,23.5c0.6,40,0.5,80-0.1,119.9
			c-0.2,10.1-6.2,19.5-16.2,21.7c-9.5,2.1-9.6,7.1-9.6,14.2c0.1,39.3,0.1,78.6-0.1,117.9c0,8.9-0.8,17.9-1.8,26.8
			c-1.2,11.1-9.9,17.8-22.3,18.1c-14.4,0.3-23.8-5.5-25.6-16.8c-0.9-5.5-0.3-11.2-0.4-16.9c-0.4-44-0.7-87.9-1.4-131.8
			c0-2.2-3.5-5.8-5.9-6.3c-6.3-1.3-6.6,3.6-6.6,8.2c0,42.3,0,84.6-0.2,126.9c0,6.3-0.6,12.6-1.6,18.8c-2,12.6-13.6,20.6-27.8,19.6
			c-11.2-0.8-22-12.3-22-24c-0.1-46.6-0.2-93.3,0-139.9c0-7.6-1.4-10.6-10.1-13.1c-6.6-1.9-15.1-12.2-15.4-19
			c-1.4-40.9-1.1-81.9-0.6-122.9c0.2-14.5,12.5-25,26.8-25c1.3,0,2.7,0.2,4,0c14.5-2.4,25.2,2.4,31.2,16.3c0.5,1.2,1.5,2.2,2.4,3.1
			C635.3,312.1,636.2,312.6,638.8,314.4z"/>
		<path class="st3" d="M732.2,579.5c0-25.5,0-48.5,0-71.4c24.8-14.4,50.1-28.2,72.4-48.2c-10.6-7.9-20.1-15-30-22.4
			c43.6-3.7,86.3-7.3,128.2-10.8c0,36.6,0,70.7,0,107.6c-9.3-7.8-15.9-13.5-22.7-19c-4.8-3.9-9.8-7.7-15.1-10.9
			c-2-1.2-5.8-1.6-7.6-0.5c-35.6,21.1-71,42.5-106.5,63.8C745.3,571.1,739.6,574.8,732.2,579.5z"/>
		<path class="st3" d="M913.6,771.3c-42.5-5.2-84.6-10.3-130-15.9c8.8-7.1,15.4-12.3,23.1-18.5c-12.2-9.1-21.2-16.1-30.5-22.8
			c-9.7-7-19.5-13.8-29.5-20.4c-13.1-8.6-26.4-17-39.7-25.4c-1.4-0.9-2.9-1.5-4.1-2.6c-10.4-9-9.9-11.7,1.4-20
			c7.7-5.6,15-12,21.6-18.9c6.5-6.9,12.2-5.6,19.1-1.1c8.7,5.7,18,10.7,26.8,16.3c8.1,5.2,15.9,10.6,23.6,16.3
			c15.9,11.6,31.5,23.5,47.5,34.9c4.4,3.1,9.7,4.9,15.3,7.7c5.4-4.8,11.7-10.2,17.7-15.8c4.4-4.2,7.9-4.9,10.4,1.7
			c1.9,4.9,3.9,9.7,5.6,14.6c7.3,21.2,14.6,42.5,21.8,63.8C913.9,766.3,913.6,767.7,913.6,771.3z"/>
		<path class="st1" d="M613.8,657.3c-18.3,14-34.1,29.6-52.8,39.4c-20.3,10.7-37.6,25.5-57.3,36.8c-0.7,0.4-1,1.6-2,3.1
			c10.2,5.5,20.3,11,33.1,18c-23.3,6.8-44.4,4.3-65.1,5.7c-20.8,1.5-41.5,4.9-65.1,7.8c7.2-29.4,13.6-55.7,20.3-83.1
			c6.5,4.5,12.1,7.9,17,12.1c6.4,5.4,10.4,4.8,17.5-0.7c16.4-12.7,34.5-23.4,51.9-35c16.8-11.3,33.6-22.7,50.4-34
			c11.5-7.7,10.6-6.9,19.1,4.1c6.4,8.1,15.8,13.9,24,20.6C607,653.9,609.8,655,613.8,657.3z"/>
		<path class="st1" d="M527.6,442.5c-7,5.9-14,11.8-22.3,18.8c5,3.1,9.3,5.5,13.4,8.3c18.1,12.2,36.3,24.5,54.2,37
			c1.7,1.2,2.9,4.4,2.9,6.7c0.2,19.6,0.1,39.2,0.1,60.3c-3.7-1-6.6-1.1-8.8-2.3c-10.2-5.7-20.5-11.3-30.2-17.9
			c-11.7-8-22.5-17.3-34.3-25.2c-15.1-10-30.6-19.4-46.4-28.2c-2-1.1-7.7,2.2-10.3,4.9c-6.1,6.2-11.5,13.1-18.1,21
			c-8.7-33.4-16.8-64.6-25.6-98.4c43.3,4.1,84.3,8.1,125.3,12C527.6,440.5,527.6,441.5,527.6,442.5z"/>
		<path class="st0" d="M654.3,292c-26.9-0.1-46.5-20.5-46.3-48.1c0.1-21.6,23.5-42,48-41.9c23.6,0.1,44.1,21.3,44,45.5
			C699.9,271.8,679,292.2,654.3,292z"/>
	</g>
</g>
<circle class="st4" cx="640" cy="512" r="500"/>
</svg>
