<?xml version="1.0" encoding="utf-8"?>
<!-- Generator: Adobe Illustrator 22.1.0, SVG Export Plug-In . SVG Version: 6.00 Build 0)  -->
<svg version="1.1" id="Layer_1" xmlns="http://www.w3.org/2000/svg" xmlns:xlink="http://www.w3.org/1999/xlink" x="0px" y="0px"
	 viewBox="0 0 1280 1024" style="enable-background:new 0 0 1280 1024;" xml:space="preserve">
<style type="text/css">
	.st0{fill:#FDFDFD;}
	.st1{fill:#283592;}
	.st2{fill:#26A599;}
	.st3{fill:#010101;}
	.st4{fill:#020202;}
	.st5{fill:#060606;}
	.st6{fill:#030303;}
	.st7{fill:#050505;}
	.st8{fill:#070707;}
	.st9{fill:#0D0D0D;}
	.st10{fill:#1B2341;}
	.st11{fill:#1B2342;}
	.st12{fill:#020306;}
	.st13{fill:#010206;}
	.st14{fill:#262A36;}
	.st15{fill:#1E1E1E;}
	.st16{fill:#262626;}
	.st17{fill:#3A3A3A;}
	.st18{fill:#195E77;}
	.st19{fill:#1A2B74;}
	.st20{fill:#1E2540;}
	.st21{fill:#383838;}
	.st22{fill:#18213E;}
	.st23{fill:#2D313A;}
	.st24{fill:#424656;}
	.st25{fill:#494C59;}
	.st26{fill:#1C233E;}
	.st27{fill:#2C3145;}
	.st28{fill:#282828;}
	.st29{fill:#373C4C;}
	.st30{fill:#282F4C;}
	.st31{fill:#34444E;}
	.st32{fill:#2C303C;}
	.st33{fill:#292D37;}
	.st34{fill:#05070E;}
	.st35{fill:#222222;}
	.st36{fill:#2E3240;}
	.st37{fill:#232A4A;}
	.st38{fill:#2F373E;}
	.st39{fill:#282E45;}
	.st40{fill:#2B3C45;}
	.st41{fill:#292C3A;}
	.st42{fill:#2A2E3A;}
	.st43{fill:#1E243F;}
	.st44{fill:#365160;}
	.st45{fill:#262A34;}
	.st46{fill:#17536D;}
	.st47{fill:#212842;}
	.st48{fill:#434D74;}
	.st49{fill:#1D243E;}
	.st50{fill:#252833;}
	.st51{fill:#404556;}
	.st52{fill:#0A1821;}
	.st53{fill:#393D4F;}
	.st54{fill:#263740;}
	.st55{fill:#495055;}
	.st56{fill:#595959;}
	.st57{fill:#3E4851;}
	.st58{fill:#1C2A3D;}
	.st59{fill:#252B43;}
	.st60{fill:#1E2541;}
	.st61{fill:#272D44;}
	.st62{fill:#262D4C;}
	.st63{fill:#393E52;}
	.st64{fill:#252A42;}
	.st65{fill:#07090E;}
	.st66{fill:#0B0F22;}
	.st67{fill:#010205;}
	.st68{fill:#121729;}
	.st69{fill:#11131D;}
	.st70{fill:#151B2E;}
	.st71{fill:#2C3147;}
	.st72{fill:#292F44;}
	.st73{fill:#222841;}
	.st74{fill:#252A41;}
	.st75{fill:#1D233B;}
	.st76{fill:#0B1025;}
	.st77{fill:#2E344A;}
	.st78{fill:#20263E;}
	.st79{fill:#202740;}
	.st80{fill:#202640;}
	.st81{fill:#212741;}
	.st82{fill:#253842;}
	.st83{fill:#04050A;}
	.st84{fill:#162359;}
	.st85{fill:#131723;}
	.st86{fill:#101527;}
	.st87{fill:#2C3148;}
	.st88{fill:#252C43;}
	.st89{fill:#0E161C;}
	.st90{fill:#FEFEFE;}
	.st91{fill:#1A2B73;}
	.st92{fill:#353D54;}
	.st93{fill:#363E55;}
	.st94{fill:#0C162D;}
	.st95{fill:#081626;}
	.st96{fill:#0B0B10;}
	.st97{fill:#0F1A40;}
	.st98{fill:#1A2A72;}
	.st99{fill:#102747;}
	.st100{fill:#0D1840;}
	.st101{fill:#0E1941;}
	.st102{fill:#122D52;}
	.st103{fill:#0D183F;}
	.st104{fill:#112B4D;}
	.st105{fill:#343D55;}
	.st106{fill:#15313F;}
	.st107{fill:#313B5F;}
	.st108{fill:#12222E;}
	.st109{fill:#010305;}
	.st110{fill:#2A4454;}
	.st111{fill:#17292F;}
	.st112{fill:#163443;}
	.st113{fill:#1A3947;}
	.st114{fill:#122D3A;}
	.st115{fill:#344756;}
	.st116{fill:#2E4050;}
	.st117{fill:#253E50;}
	.st118{fill:#13313E;}
	.st119{fill:#FCFCFC;}
	.st120{fill:#FBFBFB;}
	.st121{fill:#363E54;}
	.st122{fill:#343C51;}
	.st123{fill:#192A71;}
	.st124{fill:#0C0C0F;}
	.st125{fill:#0C1539;}
	.st126{fill:#0C163C;}
	.st127{fill:#192A72;}
</style>
<g>
	<g>
		<path class="st0" d="M1199,692c0,122.2,0,244.3,0.1,366.5c0,3.6-0.7,4.6-4.5,4.6c-368.6-0.1-737.3-0.1-1105.9,0
			c-4.2,0-4.8-1.1-4.8-5C84,694.7,84,331.3,83.9-32.2c0-4,0.7-4.9,4.8-4.9c368.5,0.1,736.9,0.1,1105.4,0c4.5,0,5,1.2,5,5.2
			c-0.1,240.6-0.1,481.3-0.1,721.9c-6.5,0.9-12.9,0.2-19.4,0.3c-9.1,0.1-18.2,0-28.4,0c3.9,1.1,6.8,1.4,9.6,2.4
			c5.9,2.1,8.5,5.8,8.6,12c0,5.9-1.7,11.5-3.7,17c-6,16.8-11.3,33.8-17.5,50.5c-0.8,2.1-1,5.4-3.6,5.5c-2.6,0.1-3.1-3.1-3.9-5.2
			c-8.5-23-17.6-45.7-25.9-68.7c-3.7-10.2-1.6-13,9.2-13.1c2.2,0,4.3,0,6.5-0.2c-20-0.1-40.1-0.1-60.3-0.1c1.1,0.5,2.1,0.3,3,0.3
			c6.9,0.1,11.3,3,13.8,9.9c11.8,32.9,24.2,65.7,36.3,98.5c2.1,5.6,4.2,11.2,6.2,16.9c0.9,2.5,1.8,5.1,0.8,7.8
			c-5.4,14.5-9.4,29.5-16.8,43.3c-2.9,5.4-7,9.2-13.1,10.8c-2.5,0.6-4.9,0.8-7.4,0.3c-2-0.4-4.4-1-4.8-3.1c-0.5-2.3,2.3-2.4,3.7-3.3
			c6-3.5,8.2-10.7,5.4-17.9c-2.4-6.1-8.9-9.4-15.5-7.9c-6.8,1.5-11.6,7.7-11.2,14.6c0.7,11.4,5,16.1,16.3,17.9
			c4.5,0.7,9,0.6,13.5,0.2c6.4-0.6,10.4-4.9,13.7-9.9c4.3-6.4,6.9-13.7,9.4-20.9c13.3-39.5,27-78.8,40.2-118.3
			c3.1-9.3,6.4-18.6,11.6-27c4.5-7.3,11.3-10.5,19.5-11.5C1196.3,690.7,1197.8,690.9,1199,692z"/>
		<path d="M1199,692c-12.9-0.4-21.2,5.7-26.2,17.5c-7.7,18.1-13.2,36.9-19.7,55.3c-10.9,30.8-20.6,62.1-32,92.7
			c-0.5,1.4-1.2,2.7-1.8,4.1c-8,19.3-18.8,21.6-39.9,16c-8.4-2.2-9.1-10.2-9.8-17.4c-0.7-7,2.7-11.9,8.8-14.8
			c5.8-2.7,11.3-2.2,16.3,2c9.4,7.9,6.1,21.9-6.2,27.1c7.2,4.6,16.9,2.4,22.2-5.4c4.1-5.9,6.6-12.7,9-19.4
			c2.2-6.1,3.7-12.5,6.5-18.3c3.7-7.5,2.6-14.2-0.2-21.7c-13.7-36.2-27.1-72.4-40.2-108.8c-2.4-6.6-6.3-9-12.8-9.1
			c-2.3,0-6.8,1.6-6.7-1.4c0.1-3.5,4.6-1.5,7-1.5c18.7-0.2,37.3-0.1,56-0.1c1,0,2,0,3,0c1.2,0,2.4,0,2.2,1.8
			c-0.1,1.4-1.2,1.4-2.2,1.4c-3.8,0-7.7-0.2-11.5,0.1c-5.8,0.4-8.6,1.1-5.9,8.1c9.9,25.9,19.5,51.8,29.7,78.8
			c7.6-23.4,16.3-45.2,22.5-67.7c3.3-12.1-0.3-17-12.6-18.9c-1.3-0.2-2.6-0.3-4-0.3c-1.2-0.1-2.4-0.1-2.3-1.8
			c0.1-1.5,1.2-1.3,2.1-1.3c15.5,0,31,0,46.5,0c0.7,0,1.5,0.6,2.2,0.9C1199,690.7,1199,691.3,1199,692z"/>
		<path class="st1" d="M279.9,388c-1.6-4.9-0.8-10-1.6-14.9c0.4-2.2,0.1-4.4,0.2-6.6c0-2.9,0-5.7,0-8.5c0-2.9,0-5.8,0-8.7
			c0-2.9,0-5.7,0-8.6c-0.1-2.2,0.2-4.4-0.2-6.7c0.7-4.9,0-10,1.6-14.9c1.2-2,0.6-4.1,0.4-6.1c0.6-3.3,0.3-6.7,1.7-9.8
			c1.3-1.3,0.5-2.8,0.4-4.2c-0.2-0.8,0-1.4,0.6-1.9c1.4-1.2,0.5-2.7,0.5-4.1c0.5-2,0.9-3.9,1.4-5.9c1.4-1.7,0.9-4,1.4-5.9
			c0.9-7.3,3.2-14.2,5.2-21.1c1.6-1.3,1.6-3.2,1.8-5.1c0.6-4.2,2.1-8,3.9-11.8c1.2-1.5,1.3-3.4,1.9-5.1c3.4-10.4,7.6-20.4,13-30
			c1.4-1.8,2.1-3.9,3-5.9c6.4-13.1,14.2-25.3,22.7-37.1c1.3-1.3,2.7-2.5,3.2-4.4c1.3-0.8,0.9-2.9,2.5-3.6c1.6-1,2.7-2.5,3.5-4.2
			l0,0.2c1-1.4,2.4-2.6,3-4.3c-0.1-0.4,0.1-0.6,0.5-0.7c1.8-1.4,3.3-3.1,4.6-4.9c1-0.4,0.4-2.3,2-2.1c1.1-1.9,3.2-3.1,3.9-5.2
			c1.8-2.1,3.6-4.4,6.1-5.7c4.6-5.4,9.6-10.3,14.9-14.9c1.6-2.3,3.1-4.7,5.7-6.1c1.9-0.6,3.1-2.2,4.3-3.7c1.3-0.4,1.2-2.3,2.8-2.3
			c1.7-0.6,2.8-2,4.2-2.9c0.1-1.1,0.7-1.8,1.8-2.1c1.5-0.4,2.4-1.5,3.3-2.7c0.1-0.3,0.3-0.4,0.7-0.3c1.5-0.4,2.4-1.5,3.3-2.7
			c0.1-0.3,0.3-0.4,0.6-0.3c1.6-0.3,2.5-1.5,3.4-2.7c0.1-0.3,0.3-0.4,0.6-0.3c1.6-0.3,2.4-1.5,3.4-2.6c7.3-4.8,14.5-9.8,22.1-14.3
			c12.6-7.5,25.5-14.5,39.4-19.7c5.3-2,10.7-3.9,15.9-6.4c1.1-0.8,3-0.1,3.7-1.8c8.4-2.4,16.8-4.8,25.3-7.2c2.2-0.6,4.4-1,6.6-1.5
			c1.9-1,4.4-0.4,6.2-1.9c3.8,0,7.4-1.1,10.9-2.3c1.4,0.1,2.8,1,4.1-0.4c0.5-0.8,1.2-0.8,2-0.6c1.4,0.2,2.8,0.8,4.1-0.3
			c2.3-2.5,5.4-0.7,8-1c8.2-1.3,16.6-1.4,24.9-2.6c2.6,0.5,5.2,0.1,7.7,0.2c5.7,0,11.3,0,17,0c2.3,0,4.7,0,7,0c2,0,4.1-0.3,5.7,1.4
			c3.9-2.1,7.8-0.1,11.6-0.1c2.3,1.4,4.7,0.5,7.1,0.5c2.9,0.5,5.9,1.1,8.8,1.6c1.7,1,3.5,0.5,5.2,0.4c0.6,0.2,1.2,0.4,1.9,0.6
			c1.2,1.3,2.7,0.4,4.1,0.5c2.3,1.7,5.5,1.8,7.8,1.8c4,0.1,7.9,1.3,11,2.6c3,1.3,6.6-0.4,9,2.3c2.1,1.1,4.6,1.2,6.4,2.8
			c3.1-1,5.8,0.9,8.6,1.4c1,1.4,2.7,1.2,4,1.8c6.8,2.4,13.8,4.1,20.1,7.8c1.6,1.1,3.5,1.4,5.3,2c6.8,1.8,12.5,6.2,18.9,9
			c7.6,3.4,14.6,8.2,21.7,12.7c1.6,1,4.2,1,4.9,3.4c1.3,0.7,2.4,1.6,3.8,2c0.7,0.7,1.5,1.3,2.2,2c1.2,0.5,2.2,1.5,3.3,2.2
			c1.2,0.9,2.4,1.8,3.7,2.7c1.3,0.5,2.2,1.6,3.3,2.3c0.3,0.2,0.5,0.4,0.6,0.6c1.3,0.5,2.2,1.6,3.4,2.4c0.3,0.1,0.5,0.4,0.6,0.6
			c1.3,0.5,2.2,1.5,3.3,2.3c0.3,0.8,1.7,0.4,1.5,1.6c1.4,0.5,2.3,1.6,3.5,2.5c0.5,0.5,1.1,1.1,1.6,1.6c1.7,0.5,2.3,2.3,3.6,3.2
			c1.1,1,3,1,3.3,2.8c2.2,1,3.4,3.2,5.4,4.4c7.1,6.8,14.5,13.3,20.9,20.9c1.2,1.5,2.3,2.9,3.9,4c1.3,1.5,3,2.6,3.3,4.8
			c1.1,1.3,2.5,2.2,3.8,3.3c0.3,0.6,0.6,1.3,1,1.9c0.8,1.2,1.8,2.3,3,3.1c0.3,0.6,0.6,1.3,1,1.9c0.8,1.2,1.8,2.3,3,3.1l0.3,0.2
			l0,0.4c0.3,1.6,1.5,2.5,2.7,3.4c0.3,0.1,0.4,0.3,0.3,0.6c0.3,1.6,1.5,2.5,2.7,3.5c1.5,2.2,2.9,4.3,4.4,6.5
			c0.2,1.7,1.6,2.5,2.6,3.5c1.5,1.3,1.7,3.1,2.3,4.8c0.5,0.9,0.8,1.9,0.5,2.9c-5.4,5.3-11.9,9.1-18.2,13c-20.6,12.6-40.6,26.1-61,39
			c-17.7,11.2-35.3,22.7-52.8,34.2c-6,3.9-12.1,7.7-18.1,11.6c-1.6,1-3.2,2.5-5.5,1.8c-5-6.9-9.4-14.1-13.5-21.6
			c0-1.7-1.1-2.8-2.3-3.7c-6.9-9.6-12.8-19.8-19-29.8c-14.5-23.1-29.1-46.1-43.4-69.4c-0.8-1.3-1.7-2.5-2.2-3.9
			c-0.1-1.5-0.7-2.8-2.1-3.6c-1.4-1.4-2.5-3-3.1-4.9c0-1.7-1.3-2.6-2.3-3.6c-7.4-9.9-13.3-20.7-19.9-31.1
			c-5.6-8.8-11.4-17.6-16.7-26.6c-1.7-2.8-2.9-2.7-4.4,0.2c-14.3,25.7-28.9,51.3-43.4,76.9c-14.6,25.9-29.2,51.9-43.9,77.8
			c-16,28.4-32.1,56.8-48.1,85.2c-14.6,25.9-29.3,51.9-43.9,77.8c-14.7,26.1-29.4,52.1-44.1,78.2c-7.8,13.9-15.7,27.8-23.4,41.8
			c-0.6,1-1.3,2-2.1,2.7c-0.4,0.7-2.4,1.6,0,2.1c1.5,0.3,3.2-0.1,4.9-0.1c2.3,0,4.7,0,7-0.1c3.5-0.1,7.1,0.3,10.6-0.3
			c0.6-0.1,1.1-0.1,1.7,0c3.3,0.6,6.6,0.3,9.9,0.3c3.4-0.1,6.8,0.4,10.1-0.7c3.5-0.5,6.9-0.2,10.4-0.3c3.6-0.1,7.3,0.3,10.9-0.3
			c0.6-0.1,1.1-0.1,1.7,0c3,0.6,6,0.3,9.1,0.3c3.7-0.2,7.4,0.5,11-0.7c3.3-0.5,6.5-0.2,9.8-0.3c3.6,0,7.2,0,10.9,0
			c3.6,0,7.2,0,10.8,0c3.5-0.1,7,0.5,10.4-0.6c3.5-0.5,7-0.3,10.4-0.3c3.5-0.1,7.1,0.3,10.6-0.3c0.5-0.1,1-0.1,1.5-0.1
			c3.1,0.2,6.2,1.3,9.2-0.1c5.5-1.6,7.5-6,9.7-10.9c6.2-13.4,11.8-27.1,18.6-40.3c1.7-2,3.6-3.7,6-4.9c7.3-2.9,14.8-5.1,22.4-6.9
			c2.6,0.3,4.8-0.7,6.9-2c1-0.6,2.1-1,3.2-1c2.6,0.3,4.8-0.9,7-2.1c7.9-2.7,15.9-5.2,24.1-7.1c2.5-0.6,4.6-1.8,7-2.6
			c13.8-4.7,27.9-8,41.7-12.6c1.6-0.5,3.2-0.8,4.9-0.5c0.5,0.1,1,0.4,1.4,0.7c1.6,1.5,2.4,3.6,3.4,5.5c8.5,16.4,16.3,33.2,24.3,49.8
			c4.7,9.8,11,18.6,15.4,28.6c1.6,3.6,4.6,3.7,7.9,3.7c29.6,0,59.3,0,88.9,0c21.1,0,42.3,0,63.4,0c1.8,0,3.7,0.5,5.7-0.8
			c-3.1-5.5-7-10.5-10.6-15.6c-24-33.8-47.7-67.8-71.8-101.6c-1.2-1.6-2.4-3.2-2.6-5.3c0-0.8,0.1-1.6,0.5-2.3
			c7.4-4.2,15.4-6.9,23.6-9c7.5-2,14.9-4.7,22.5-6.2c3.1,0,6-0.9,8.7-2.5c1-0.6,2.1-1.1,3.3-1.1c2.8,0.3,5.1-0.8,7.3-2.2
			c8.1-2.7,16.3-5,24.6-7.4c7-2,13.6-5.1,20.7-6.9c10.1-2.5,20-5.8,30-8.9c1.9-0.6,4.2-1.9,5.3,1.3c0,4.6,0,9.3,0,13.9
			c-0.6,2.3-0.6,4.7-0.3,7.1c-0.1,2.3-0.2,4.6-0.3,6.9c-0.7,1.3-0.1,2.8-0.5,4.1c-0.4,1.6-1,3.2-0.8,4.9c0.1,1.7-0.2,3.4,0.2,5
			c0.2,0.7,0.3,1.5-0.5,1.9c-1.2,1.6-0.7,3.4-0.4,5.2c0.3,1,0,2-0.7,2.8c-1.3,1.3-0.5,2.8-0.4,4.2c0.2,0.8,0,1.4-0.6,1.9
			c-1.3,1.3-0.5,2.7-0.4,4.1c-1.6,8.4-3,16.8-5.8,24.9c-1.3,2.1-1.3,4.6-1.9,6.9c-0.1,0.4-0.3,0.8-0.4,1.2c-0.7,1.7-1.6,3.2-1.4,5.1
			c-2.2,9.2-5.8,17.9-9.3,26.6c-3.5,8.6-7.2,17.1-11.5,25.3c-4.8,9.1-10.1,17.9-15.7,26.6c-1.1,1.8-1.1,4.2-3.1,5.4
			c-1.1,1-2.3,1.8-2.5,3.4c-1.8,2-3.3,4.1-4.4,6.6c-1.1,0.9-2.3,1.8-2.6,3.4c0.1,0.3,0,0.5-0.3,0.6c-1.2,0.9-2.4,1.8-2.7,3.4
			c0.1,0.3,0,0.5-0.3,0.6c-1.1,0.9-2.3,1.8-2.7,3.3c-0.4,0.6-0.8,1.1-1.2,1.7c-1.2,0.9-2.3,1.8-2.8,3.3c-0.4,0.6-0.8,1.2-1.2,1.7
			c-1.5,1.2-3.1,2.3-3.8,4.3c-0.2,2-2.5,2.3-3.3,3.7c-1.5,1.2-3,2.3-3.7,4.3c-6.9,6.9-13.8,13.8-20.7,20.8c-2.4,0.9-3.8,3-5.4,4.8
			c-0.7,1-1.5,1.9-2.7,2.2c-2,0.7-3.1,2.3-4.3,3.8c-0.5,0.4-1.1,0.8-1.6,1.2c-1.6,0.4-2.5,1.6-3.4,2.8c-0.3,0.7-0.8,1.1-1.6,1.2
			c-1.6,0.4-2.5,1.5-3.3,2.7l-0.2,0.3l-0.4,0c-1.6,0.3-2.5,1.5-3.4,2.7l-0.2,0.3l-0.4,0c-1.7,0.2-2.5,1.5-3.5,2.7
			c-1.2,0.8-2.3,1.6-3.5,2.3c-1.6,0.2-2.5,1.5-3.4,2.5c-0.8,0.5-1.6,0.9-2.4,1.4c-1.5,0.6-2.8,1.4-3.7,2.8
			c-14.5,9.3-29.4,18.1-45.6,24.3c-1.8,0.6-3.7,0.9-5.3,2c-8.1,4.2-16.8,7-25.4,9.9c-2.5,0.8-5,1.4-7.5,2.2c-2.3-0.1-4.3,1-6.4,1.8
			c-9.1,3.1-18.4,4.9-27.8,6.7c-1.4,0-2.9-0.9-4.1,0.5c-0.6,0.2-1.2,0.4-1.9,0.6c-1.8-0.2-3.5-0.7-5.2,0.3l-0.2,0.2l-0.2-0.2
			c-2,1.1-4.5-0.4-6.5,1.1c-0.5,0.8-1.2,0.7-1.9,0.5c-2.4,0-4.8-0.9-7.1,0.5c-3.8,1.5-7.8,0.7-11.7,0.9c-1.7,0.7-3.5,0.3-5.3,0.4
			c-2.4,0-4.8,0-7.2,0c-5.7,0-11.4,0-17.1,0c-2.6,0.1-5.2-0.2-7.8,0.2c-11-0.8-22.1-1-32.9-3.6c-1.3-1.1-2.7-0.5-4.1-0.3
			c-0.8,0.2-1.5,0.2-1.9-0.6c-1.2-1.5-2.7-0.5-4.1-0.4c-3.6-0.8-7.3-1.5-10.9-2.3c-1.7-1.7-4-0.9-5.9-1.5c-0.4,0-0.7,0-1.1-0.1
			c-1.7-1.6-4.1-1-6-1.8c-8.6-1.4-16.7-4.7-25-7.3c-0.8-1.7-2.8-0.9-4-1.7c-15.1-4.8-29.3-11.7-43.3-19.1
			c-11.8-6.2-22.8-13.8-33.8-21.3c-1-1.1-1.8-2.3-3.4-2.6c-0.3,0.1-0.5,0-0.6-0.3c-0.9-1.2-1.8-2.4-3.4-2.7l-0.4,0l-0.2-0.3
			c-0.9-1.2-1.8-2.3-3.3-2.7c-0.3,0.1-0.5,0-0.7-0.3c-0.9-1.1-1.8-2.3-3.3-2.7c-0.9-0.8-1.8-1.6-2.7-2.3c-0.9-1.1-1.8-2.3-3.2-2.7
			c-1.6,0-1.5-2-2.8-2.3c-1.2-1.5-2.3-3.1-4.3-3.7c-2.9-1.4-4.5-4.2-6.7-6.3c-4.3-4.8-8.9-9.4-13.7-13.7c-2.1-2.2-4.8-3.9-6.3-6.7
			c-0.7-2-2.2-3.2-3.9-4.3c-1.3-0.5-1.7-1.7-2.1-2.8c-0.6-2-2.3-3.1-3.8-4.3c-0.4-0.5-0.8-1.1-1.2-1.6c-0.4-1.5-1.6-2.4-2.8-3.3
			l-0.3-0.2l0-0.3c-0.3-1.7-1.6-2.5-2.8-3.5c-1.8-1-1.8-3.2-3.2-4.5c-0.2-1.7-1.5-2.5-2.7-3.5c-8.5-12.2-16.8-24.6-23.3-38.1
			c-0.8-2.1-1.6-4.2-3-5.9c-5.4-9.5-9.6-19.6-13-30c-0.6-1.7-0.7-3.6-1.9-5.1c-1.9-3.7-3.3-7.6-3.9-11.8c-0.2-1.8-0.2-3.7-1.8-5.1
			c-2.1-7-4.4-13.9-5.2-21.1c-0.5-2,0.1-4.2-1.4-5.9c-0.5-2-0.9-3.9-1.4-5.9c0-1.4,0.9-2.9-0.5-4.1c-0.6-0.5-0.8-1.1-0.6-1.9
			c0.1-1.4,0.9-2.9-0.4-4.2c-1.2-3.6-1.5-7.3-1.7-11C280.6,391.2,281,389.6,279.9,388z"/>
		<path class="st2" d="M931.8,348.9c-8.6,2.6-17.1,5.5-25.8,7.6c-11.2,2.8-21.8,7.1-32.9,10.1c-7,1.9-14,4.1-20.9,6.4
			c-2.4,0.8-4.6,2.1-7.2,2.1c-1.1-0.2-2,0.4-2.8,1c-3.1,1.2-6.2,2.2-9.4,2.9c-15.5,3.9-30.7,8.8-45.7,14.2c-1.1,1-2.5,1.3-3.6,2.1
			c-4.6,2.2-9.5,3.4-14.4,4.5c-2-0.3-3.9,0-5.5,1.3c-1.5,1-3.2,1.7-5,1.6c-1.8-0.2-3.5,0.2-4.9,1.4c-1.5,1.1-3,2-4.9,1.7
			c-1.5-0.4-2.9-0.1-4.3,0.4c-0.8,1.2-3.2-0.9-3.3,1.7c-1.8,1.6-4.1,1.6-6.4,1.7c-1.3,0.3-3.3-1.4-3.7,1.3c-1,1.1-2.5,1.1-3.8,1.2
			c-1.7-0.1-3.1,0.5-4.4,1.6c-4.9,1.9-10,3.5-15.2,4.4c-1.7-0.1-3.3,0.3-4.7,1.4c-5.5,2.1-11.1,3.8-16.9,5.1c-2-0.2-3.9-0.1-5.5,1.3
			c-1.5,1-3.2,1.7-5.1,1.7c-1.8-0.2-3.5,0.2-4.9,1.3c-1.5,1-3.2,1.7-5,1.7c-1.9,0-3.8-0.2-5.7,0.2c-8.5,2.8-17.1,5-25.6,7.8
			c-6.6,2.2-13.5,3.5-20.1,5.9c-7.8,2.8-15.8,5.1-23.8,7.6c-2.4,0.7-4.8,1.2-7.2,1.8c-2.4,0.8-4.6,2.1-7.2,2.1c-1.1-0.2-2,0.3-2.8,1
			c-2.4,0.8-4.6,2-7.2,2.1c-7.3,2.3-14.6,4.5-21.9,6.8c-2.2,0.9-4.6,1.5-6.4,3.3c-4.5,3-9.7,3.4-14.7,4.7c-2.4-0.4-4.4,0.5-6.2,2
			c-5.4,2.1-11,3.7-16.7,5c-2-0.2-3.9-0.1-5.5,1.3c-1.5,1-3.1,1.6-5,1.6c-2-0.3-3.7,0.2-5.3,1.5c-2.7,1.4-5.4,2.7-8.5,2.5
			c-1.3,0-3.2-1.5-3.7,1.2c-1.8,1.6-4,1.9-6.3,1.8c-1.3,0.1-3-1.5-3.6,1c-0.7,1.1-1.8,1.1-2.9,1.1c-2.4-0.6-4.1,0.9-5.9,2.2
			c-15.3,4.9-30.7,9.5-46.3,13.7c-2-0.2-4-0.1-5.6,1.3c-1.5,1-3.1,1.7-5,1.7c-2-0.3-3.8,0.2-5.3,1.6c-2.6,1.8-5.4,2.6-8.5,2.4
			c-1.3,0.3-3.2-1.6-3.7,1.2c-1.8,1.6-4,1.9-6.3,1.8c-1.3,0.2-3-1.6-3.6,1c-0.7,1.1-1.8,1.1-2.9,1c-2.1-0.4-3.8,0.5-5.3,1.9
			c-2.1,1.3-4.4,1.8-6.9,1.9c-1.4-0.4-3-0.5-3.4-2.4c0.8-2.6,2.9-4,5-5.3c12.7-7.9,25.3-16,37.8-24.2c15-9.8,30.1-19.6,45.3-29.2
			c16.4-10.4,32.7-21,49-31.7c16.7-10.9,33.6-21.6,50.3-32.5c16.7-10.9,33.4-21.9,50.4-32.3c6.7-4.1,12.9-8.8,19.6-12.9
			c3-1.8,5.6-4.2,8.9-5.5c1.9,0.2,3.2-1.1,4.7-1.9c10.9-8.1,23.1-14.2,33.8-22.5c14.8-10.8,30.4-20.3,45.8-30.2
			c6.4-4.1,12.8-8.3,19.2-12.6c1.6-1,3-2.8,5.4-1.6c3-0.2,5.2-2.2,7.3-3.8c11.8-8.8,24.9-15.5,36.9-24.1
			c7.8-5.6,16.5-10.3,24.7-15.5c15.1-9.5,30.2-18.9,44.9-29c12.2-8.5,25.6-15,37.1-24.6c1.2-1,2.9-1.4,4.4-2.1
			c0.9-0.7,1.7-0.5,2.5,0.1c6.5,9.8,11.9,20.2,16.5,31c0.7,1.5,1.2,3.1,2.6,4.1c1.3,2.1,2.1,4.4,2.4,6.8c0.6,1.5,1.2,3.1,2.5,4.2
			c1.4,3.7,2.8,7.4,4.2,11c0.2,1.8,0.2,3.7,1.9,4.9c1.4,4.4,3.7,8.4,4.2,13.1c0,1.8,0.3,3.5,1.7,4.9c0.3,1.7,1.7,3.2,1.3,5.1
			c0.3,2.1,0.3,4.2,1.5,6.1c0.2,1.3-0.1,2.7,0.9,3.8c0.1,1.8,0.4,3.5,1.5,5c0.7,2.5,1.7,4.9,1.2,7.6c1,1.7,0,3.7,0.9,5.4
			c0.4,1,1.5,1.8,1,3.1c-1,1.9,0.4,3.4,1,5.1c0.3,2,0.7,3.9,1,5.9c-0.6,2-0.6,4.1,0,6.1c1.7,2.1,1,4.5,1.1,6.9
			c-0.6,1.6,0,2.9,0.8,4.3c0.1,3.2,0.2,6.5,0.3,9.7c-0.4,2.4-0.1,4.8,0.3,7.1c0.3,1.9,0.1,3.9,0.1,5.8
			C932.5,348.3,932.3,348.7,931.8,348.9z"/>
		<path d="M240.4,817c-16.7,0-33.3,0.1-50-0.1c-1.8,0-5.2,1.7-5.3-1.4c-0.1-3.2,3.3-1.6,5.1-1.6c8.7-0.2,17.3-0.2,25.8-1.9
			c7.6-1.5,9.3-4.4,6.8-11.5c-5.7-16.1-11.5-32.2-17.2-48.3c-0.8-2.4-1.9-3.3-4.6-3.3c-17,0.1-34,0.1-51,0.1c-1.4,0-2.9-0.4-3.6,1.7
			c-3.9,12.9-9.9,25.1-11.9,38.5c-1.7,11.7,3.2,19.3,14.5,22.6c4.5,1.3,9.1,1.8,13.8,2.1c1.3,0.1,3.4-0.9,3.4,1.6
			c0,2.5-2.2,1.5-3.4,1.5c-19.2,0.1-38.3,0-57.5,0c-4.5,0-9,0-13.5,0c-1.1,0-2.5,0.4-2.5-1.5c0-1.8,1.3-1.6,2.5-1.6
			c17.9-0.8,29-10.7,35.9-26.5c11.2-25.4,19.5-51.9,29.1-77.9c10.3-28,20.3-56.2,30.4-84.3c0.8-2.1,1-4.2,4.4-4.3
			c3.7-0.1,4,2.2,4.8,4.5c21.1,57,42.4,113.9,63.1,171c4.1,11.3,10,18.5,22.9,17.4c3.3-0.3,6.7,0,10,0.2c1.2,0.1,3.4-1,3.5,1.4
			c0.1,3-2.4,1.6-3.7,1.6C275,817,257.7,817,240.4,817z"/>
		<path d="M630.2,785.1c-3.3,8.2-7.3,15.6-13,22.2c-9.9,11.5-29,11.9-41.8,6.9c-12.7-5-20.2-16.9-20.2-31.6c0-25.5,0-51,0-76.5
			c0-9.8-1.2-10.9-10.8-11c-4.2,0-8.3,0-12.5-0.2c-1.1,0-2.9,0.9-3-1.4c-0.1-2.2,1.6-1.6,2.8-1.7c9-0.6,17.9-1.1,26.9-1.7
			c7-0.4,14-0.6,20.9-1.2c3.5-0.3,4.4,0.7,4.4,4.3c-0.1,31.8-0.1,63.7-0.1,95.5c0,4.2,0.1,8.3,1,12.4c2.3,11,10.3,15.4,20.8,11.3
			c5.5-2.2,9.5-6.1,12.7-10.8c7.7-11.3,11.7-23.8,11.8-37.5c0.1-19,0.1-38,0-57c0-9.4-1.5-11.1-10.8-11.7
			c-5.8-0.4-11.7-0.2-17.5-0.3c-1.1,0-2.9,0.7-3-1.5c-0.2-2.2,1.4-1.7,2.7-1.8c17.8-0.9,35.6-1.8,53.3-2.9c3.5-0.2,4,1.2,4,4.2
			c-0.1,33.7-0.1,67.3-0.1,101c0,2.2-0.2,4.4,0.3,6.5c0.9,4.2,2.9,7.4,7.9,7.5c4.3,0.1,8.7,0.3,12.9,0.8c1.6,0.2,4.7-1.7,4.7,1.6
			c0,2.9-3.1,1.8-4.8,2c-12.2,1.3-24.5,2.5-36.8,3.4c-4.1,0.3-9.5,2.9-12,0.5c-2.8-2.6-0.8-8.2-0.9-12.5
			C630.1,797.7,630.2,791.4,630.2,785.1z"/>
		<path d="M885.8,798.5c-11.7,19.3-35.3,26.5-56,17c-18.6-8.5-23.3-32.8-9.5-49.4c9-10.9,21.1-15.9,34.8-17.1
			c6.8-0.6,13.6-1.4,20.2-3.2c5.9-1.6,9.5-5.4,9.9-11.7c0.6-10,0.9-20-0.2-29.9c-0.8-7.3-3.9-10.1-11-11.4
			c-8.9-1.6-17.6-0.8-25.8,3.2c-4.4,2.2-8,5.3-10.1,10.4c4.4,0,8.4,0.5,11.4,3.8c2.4,2.7,3.8,5.8,4.1,9.4
			c0.7,8.5-5.2,15.6-13.3,16.3c-8.6,0.6-17.1-6.3-17.6-14.8c-0.6-10.1,3-18.7,12.1-23.5c20.5-11,42.1-12.1,63.5-3.3
			c10.1,4.2,15.2,12.4,15.2,24.1c-0.2,27.5-0.8,55,0.6,82.4c0.1,2.3,0.5,4.7,1.3,6.8c1.5,4.3,4.5,6.9,9.3,7.1
			c4.9,0.2,8.4-2.1,10.2-6.5c2.4-5.8,3-11.9,3.2-18.1c0.2-8.2,0-16.3,0.1-24.5c0-1.2-0.4-2.7,1.8-2.8c1.8,0,2.3,0.8,2.2,2.4
			c-0.5,11.8,1.1,23.7-0.6,35.4c-1.7,11.7-5.7,15.9-17.4,17.7c-5.4,0.9-11,0.7-16.4,0.1c-10.8-1.3-17.4-7.5-20.4-17.8
			C886.9,800.1,887.1,799.2,885.8,798.5z"/>
		<path d="M749,720.9c3.2-9.3,7.4-17.9,14.6-24.6c8.7-8.1,20-9.6,30.4-4.1c8.6,4.6,13.3,14.2,11.7,23.9C804,726,795,732,785.5,729.7
			c-8.6-2.1-13.4-12.4-9.9-21.8c2.1-5.5,5.2-10.2,12.1-10.1c-2.3-4.9-7.5-6.9-13.3-5.2c-4.2,1.2-7.3,3.9-10.1,7.1
			c-11.2,12.8-15.1,28.3-15.3,44.8c-0.2,19.5-0.1,39,0,58.5c0,7.8,1.2,9.2,9.2,9.9c6,0.5,12,0.6,17.9,1c1.3,0.1,2.9-0.3,2.7,1.9
			c-0.2,1.8-1.7,1.3-2.7,1.3c-27.5,0-55,0-82.4,0c-1.2,0-2.9,0.6-2.8-1.7c0.2-2.2,1.9-1.4,3-1.4c7.2,0,14.3-0.6,21.3-1.9
			c3.2-0.6,5.1-2.2,5.1-5.6c0-1.5,0.2-3,0.2-4.5c0-30.6,0-61.3,0-91.9c0-9.5-1.7-11.4-11.1-12.1c-4.8-0.4-9.6-0.4-14.4-0.7
			c-1.4-0.1-3.7,1.2-4-1.4c-0.3-2.8,2.3-1.9,3.6-2c13.7-1.3,27.5-2.5,41.3-3.6c3.3-0.3,6.6-0.4,9.9-0.9c2.7-0.4,3.4,0.5,3.3,3.1
			C748.9,701.8,749,711.3,749,720.9z"/>
		<path d="M385.8,711.7c-2.8-12.3-10.4-18.6-23-19.6c-13-1-22.2,4.3-26.8,15.5c-4.6,11.4-5.8,23.5-6.1,35.7
			c-0.4,15.3-0.6,30.7,3.9,45.6c0.1,0.3,0.1,0.7,0.2,1c4.1,11,8.9,21.8,21.9,24.2c13.6,2.5,25.3-2.2,34.8-12
			c9.3-9.8,12.5-22,13.3-35.2c0.1-1.6-0.8-4.7,1.1-4.6c2.6,0.2,1.3,3.3,1.2,4.9c-0.8,13.8-4.3,26.6-14,37
			c-17.5,18.5-47,19.7-68.7,3.8c-38.1-27.9-33.1-94.4,14.5-115.3c17.9-7.8,35.6-4.7,51.6,6.3c9.3,6.4,12.7,16.1,12.1,27
			c-0.4,7.3-5.1,11.8-11.7,14.1c-5.8,2.1-11.2,0.9-15.5-3.7c-4.3-4.6-4.8-10.1-2.8-15.8C374.1,714.4,379.3,712.2,385.8,711.7z"/>
		<path d="M948.4,754.7c1.3-29,14-50.2,39.7-61.8c18-8.1,35.9-4.8,52,6.4c9,6.3,12.3,16,11.8,26.7c-0.4,8.8-9.2,15.7-18.5,15
			c-7.9-0.6-13.4-8-12.5-16.8c0.7-6.4,5-11,12-12c2.6-0.4,2.8-0.9,2.2-3.2c-2.2-9.4-10.6-15.8-22.3-16.7c-14-1.1-23.4,4.9-27.9,18.2
			c-5.7,17.1-5.4,34.7-5.1,52.4c0.1,9.2,1.3,18.3,4.2,27c3.8,11.2,8.8,21.8,21.8,24.3c13.6,2.6,25.3-2.1,34.8-11.9
			c9.1-9.5,12.3-21.4,13.3-34.1c0.1-1.3,0.1-2.7,0.2-4c0.1-0.8-0.2-1.8,0.9-1.9c1.5-0.2,1.4,1.1,1.4,2
			c-0.1,27.8-15.2,52.6-47.3,54.9c-30,2.1-58.3-25.4-60.2-54.9C948.7,760.8,948.5,757.3,948.4,754.7z"/>
		<path d="M448.9,751.8c-0.3,15.1,0.5,29.5,6.2,43.1c4.1,9.9,10.2,18.6,21.9,19.6c16.3,1.4,29.1-5.3,38-19.1
			c5.4-8.3,7.4-17.7,8.1-27.5c0.1-1.5,0.1-3,0.2-4.5c0-0.7,0.1-1.4,1-1.4c1.1-0.1,1.4,0.7,1.3,1.6c-0.1,2-0.1,4-0.3,6
			c-1.8,20.9-10,37.9-30.6,45.8c-21.4,8.1-40.6,3.2-57.6-12.2c-30.5-27.6-27-90.2,21-110.9c17.3-7.4,34.7-4.2,50.3,6.3
			c9.3,6.3,12.9,15.9,12.6,26.8c-0.2,9.1-9,16.2-18.5,15.4c-7.9-0.7-13.4-8.1-12.4-16.9c0.7-6.4,5-11,12-12c2.7-0.4,2.7-1,2.2-3.3
			c-2.2-9.4-10.7-15.8-22.3-16.7c-14-1.1-23.3,4.9-27.8,18.3c-1.3,3.8-2.2,7.7-3,11.6C449.2,732,448.6,742.2,448.9,751.8z"/>
		<path class="st3" d="M832.5,881.8c-6.3,0-12.7,0-19,0c5-1.2,5.6-4.9,5.6-9.2c0-11.5,0-23,0.1-34.5c0-3.9-0.6-7.3-5.6-7.9
			c10.1,0.1,19.8-1.2,29.6,0.5c7,1.2,11.2,5.3,11.7,11.6c0.5,6.3-2.9,10.7-10,13c-4.3,1.4-8.8,2.1-13.2,1.5
			c-4.6-0.6-5.8,1.4-5.5,5.5c0.2,3.3,0.2,6.7,0.1,10C826,877.1,827.2,880.8,832.5,881.8z"/>
		<path class="st3" d="M550.1,875.1c-6.3,7.2-14.2,9.4-23.3,6.9c-9.9-2.7-15.9-9.2-18.2-19.2c-3.7-16,5.4-30.7,20.9-33.6
			c4.6-0.9,9-0.2,13.1,1.8c3.2,1.5,6.1,3.1,9.1-2.2c0.5,6.8,0.9,12.2,1.3,17.6c-2.3,0.5-2.2-1.5-2.6-2.5c-1.7-3.7-3.8-7-7.1-9.5
			c-7.4-5.7-16.4-4.4-21.9,3.1c-6.5,8.8-6.7,24.5-0.5,33.5c7.4,10.7,17.7,11.7,28,2.9C549.9,873.7,550.4,874.1,550.1,875.1z"/>
		<path class="st3" d="M912,851.6c5.7-4.3,11.8-5.3,17.8-0.8c6.1,4.6,7.7,11.1,6.1,18.3c-1.4,6.3-4.6,11.4-11.3,13.3
			c-4.6,1.3-9,0.6-12.8-2c-2.4-1.6-4.3-2.8-5.8,0.9c0-10.2,0-20.4,0-30.6c0-4.8,0-9.7,0.1-14.5c0-2.9-0.1-5.7-4.3-6.4
			c0.9-0.5,1.2-0.8,1.4-0.8c8.7-0.2,8.7-0.2,8.6,8.5c-0.1,4.3-0.1,8.7-0.2,13C911.5,850.8,911.7,851.1,912,851.6z"/>
		<path class="st3" d="M778,916.9c3.4-11.7,7.8-23.1,13.4-34.9c3.6,5.9,5.5,11.6,7.6,17.1c3.6,9.3,6.8,18.7,10.4,28
			c1.5,3.9,3.2,7.8,8.2,8.5c-7,0-13.9,0-21,0c1.7-1.6,5-0.4,5.9-3.2c0.8-2.6-0.5-4.9-1.3-7.2c-3-9.2-3-9.2-12.6-9.2
			c-1.8,0-3.7,0.2-5.5,0c-2.5-0.3-3.7,0.9-4.3,3C777.1,918.9,777.5,917.9,778,916.9z"/>
		<path class="st0" d="M773.9,851.8c0.1,0.5,0.1,1,0.2,1.4c4.3,5.3,4.6,15.6,0.7,22.5c-1.6,3-3.9,5.2-7.4,6
			c-4.8,0.9-7.6-1.7-9.3-5.6c-3.1-7-2.9-14.3,0.1-21.2C761,848.3,766.5,847.4,773.9,851.8z"/>
		<path class="st4" d="M888.8,919.6c0.1-9.8,7.7-17.6,17.2-17.6c9.3,0.1,16.6,7.6,16.4,17c-0.2,9.9-8.3,18.2-17.5,18
			C895.8,936.8,888.8,929.2,888.8,919.6z"/>
		<path class="st3" d="M689.5,881.9c-5.1,0-10.2,0-15.3,0c3.4-1.1,4.3-3.7,4.3-7c0-5,0.4-10,0.4-15c0-4.2,1.7-9.6-5.8-8.7
			c0.1-0.8,0.1-1.3,0.1-1.3c5.9-0.2,5.6-4.3,6-8.7c0.8-8.4,6.7-12.8,15.1-12.4c2.6,0.1,5,1.3,7.7,0.1c1.6-0.7,3.2,0.9,3.7,2.6
			c0.6,1.9,0.4,3.9-1.6,4.7c-2.1,1-4.5,1.3-6.5-0.5c-0.7-0.6-1.2-1.6-1.8-2.4c-1.5-2.1-3.5-3-6.1-2.5c-2.6,0.5-4.2,2.1-4.7,4.5
			c-0.6,2.6-0.9,5.2-1.2,7.9c-0.4,3.6-0.1,6.7,5,5.6c1.1-0.2,2.8-0.1,2.8,1.3c-0.1,1.6-1.8,1.8-3.1,1.6c-4.3-0.8-4.8,1.4-4.7,4.9
			c0.2,5.5,0.2,11,0.1,16.5C683.8,877.5,685.1,880.4,689.5,881.9z"/>
		<path class="st3" d="M1111.9,939.1c-3-0.6-5.9-1.4-6-5.2c-0.1-4.1,2.4-6.2,6-7.2c0.3,0.2,0.4,0.4,0.3,0.7
			c-0.1,0.3-0.2,0.4-0.2,0.4c-2.7,3.4-1.3,5.3,2.4,5.7c4.9,0.6,9.9,0.9,14.9,1.1c4.2,0.2,7.6,1.4,9.1,5.6c1.5,4.2,0.2,7.9-3,10.9
			c-5.7,5.4-22.8,7-29.4,2.8c-3.5-2.2-4-5.9-1.2-8.9c1.4-1.5,3-2.6,5-3.1c1-0.4,1.3,0.1,1.5,1c-2.8,6.5-1,9.4,6.3,9.9
			c4.2,0.3,8.4,0.3,12-2.2c1.8-1.2,3.5-2.8,3-5.3c-0.5-2.3-2.5-3-4.4-3.5c-4.6-1.2-9.2,0.3-13.8-0.1
			C1113.1,941.2,1112.9,939.7,1111.9,939.1z"/>
		<path class="st4" d="M738.9,881.7c-10.1,3.2-18.2-0.5-21.2-9.6c-3.1-9.4,1.8-20.3,10.6-23.4c7.6-2.7,17.1,4,17.6,12.2
			c0.1,2.4-0.7,3.3-3.1,3.2c-5.5-0.1-11,0.1-16.4-0.1c-2.5-0.1-3.4,0.6-3.4,3.3c0,8.6,5.1,13.8,13.9,13.7
			C737.9,880.5,738.8,880.1,738.9,881.7z"/>
		<path class="st4" d="M579.9,881.7c-10.1,3.2-18.2-0.5-21.2-9.6c-3.1-9.4,1.8-20.3,10.6-23.4c7.6-2.7,17.1,4,17.6,12.2
			c0.1,2.4-0.7,3.3-3.1,3.2c-5.5-0.1-11,0.1-16.4-0.1c-2.5-0.1-3.4,0.6-3.4,3.3c0,8.6,5.1,13.8,13.9,13.7
			C578.9,880.5,579.8,880.1,579.9,881.7z"/>
		<path d="M940.4,830.2c3.7-0.3,7.5-0.7,11.7-1.1c0,14.9,0,29.7,0,44.5c0,3.9,0.5,7.4,5.4,8.2c-5.7,0-11.4,0-17.1,0
			c5.4-0.5,6.3-4.4,6.3-8.8c0-11.5-0.2-23-0.3-34.5C946.4,834.4,944.8,831.5,940.4,830.2z"/>
		<path class="st3" d="M774,876c2.8-7.6,2.9-15.2,0.1-22.8c1.6,0.2,1.9-0.8,1.9-2.1c0-5.7-0.1-11.3-0.1-17c0-2.7-1.4-4.2-4.8-4.5
			c1.1-0.5,1.4-0.6,1.6-0.6c8.6-0.3,8.7-0.3,8.6,8.3c-0.1,12.1-0.2,24.3-0.2,36.4c0,3.4-0.2,6.8,4.4,8.2c-1.5,0-3.1-0.2-4.5,0
			c-3.9,0.7-5.9-0.6-5.3-4.9c0-0.1-0.1-0.3-0.2-0.3c-0.2,0-0.3,0.1-0.5,0.1C774.1,877.2,773.6,877.1,774,876z"/>
		<path class="st4" d="M1024.1,903c2.8,0,5.7,0,8.5,0c0.8,0,1.7,0,1.8,1.1c0.1,1.2-0.5,1.9-1.7,1.8c-0.2,0-0.3,0-0.5,0
			c-8.3,1.7-8.4,1.7-8.7,10.1c-0.1,2.5-0.1,5-0.1,7.5c0.1,9.6,1.9,11.2,11,9.6c-2.8,3.4-7.2,4.8-11,3.5c-3.9-1.4-5.2-4.5-5.3-8.2
			c-0.1-5-0.3-10,0.3-14.9c0.6-5,0.1-8.3-7.3-7.2c4.7-3.7,9.3-5.6,11.1-10.3c1.9,0,1.2,1.4,1.4,2.4
			C1023.8,899.9,1022.9,901.6,1024.1,903z"/>
		<path class="st4" d="M638.1,849c2.8,0,5.7,0,8.5,0c0.8,0,1.7,0,1.8,1.1c0.1,1.2-0.5,1.9-1.7,1.8c-0.2,0-0.3,0-0.5,0
			c-8.3,1.7-8.4,1.7-8.7,10.1c-0.1,2.5-0.1,5-0.1,7.5c0.1,9.6,1.9,11.2,11,9.6c-2.8,3.4-7.2,4.8-11,3.5c-3.9-1.4-5.2-4.5-5.3-8.2
			c-0.1-5-0.3-10,0.3-14.9c0.6-5,0.1-8.3-7.3-7.2c4.7-3.7,9.3-5.6,11.1-10.3c1.9,0,1.2,1.4,1.4,2.4
			C637.8,845.9,636.9,847.6,638.1,849z"/>
		<path class="st4" d="M1005.2,881.3c-5.8,2.8-11.3,2.2-16.1-2.3c-5.7-5.4-6.7-12.1-4.4-19.2c3.3-10.3,13.1-14.5,22.1-9.9
			c1.5,0.8,3,1.6,3.8,3.1c1,2,1.6,4.5-0.9,5.7c-2.2,1.1-3.2-1-3.8-2.8c-1.4-3.5-3.2-6.4-7.5-5.9c-4.5,0.6-6.3,3.8-7.3,7.7
			c-1,3.6-1.1,7.2-0.5,10.9C992.2,877.8,996.2,881.1,1005.2,881.3z"/>
		<path class="st4" d="M877.3,934.9c-7.9,3.7-14.9,1.6-19.1-5.3c-4.6-7.5-2.8-18.3,3.9-24c5.2-4.5,13-4.7,18.4-0.6
			c1.4,1,2.5,2.2,2.7,4c0.2,1.6,0,3.2-1.5,3.9c-1.8,0.8-2.7-0.6-3.5-1.9c-0.5-0.8-0.7-1.9-1.2-2.7c-2.7-5.2-8.6-5.5-12-0.7
			c-4.6,6.4-3.4,19.7,2.2,25.1C870.1,935.2,873.5,935.4,877.3,934.9z"/>
		<path class="st4" d="M844.2,935.3c-5.8,2.8-11.3,2.2-16.1-2.3c-5.7-5.4-6.7-12.1-4.4-19.2c3.4-10.4,13.6-14.7,22.5-9.7
			c1.7,1,3.4,2.1,3.9,4.3c0.4,1.7,0.4,3.6-1.4,4.3c-2,0.9-3.1-0.8-3.7-2.3c-1.5-3.8-3.4-7.2-8.2-6.2c-4.6,0.9-6.1,4.6-7.1,8.7
			c-0.7,3.1-0.8,6.3-0.3,9.4C831,931.5,835.1,935.1,844.2,935.3z"/>
		<path class="st4" d="M1112,927.7c0-0.4-0.1-0.7-0.1-1.1c0.5-0.7,1.5-0.9,0-2c-6.7-4.8-7.9-10.5-4-16.4c4.1-6.1,12.5-8.1,18.8-4.6
			c1.4,0.8,2.2,2.6,4.2,2.3c0.6-0.4,1.1-0.3,1.6,0.2c-1,1.1-0.8,2.2-0.5,3.6c2.3,9.1-2.5,15.6-11.8,16.2
			C1117.3,926.1,1114.6,926.4,1112,927.7z"/>
		<path class="st5" d="M669.7,881.9c-6.3,0-11.2,0-16.2,0c5.1-1,4.6-4.8,4.6-8.5c0-5.8,0.1-11.6,0.1-17.4c0-3.4-0.5-6.4-5.2-6.3
			c10.7-2.5,10.7-2.5,10.7,7.6c0,6,0.1,11.9,0.1,17.9C663.9,880.2,663.9,880.2,669.7,881.9z"/>
		<path class="st5" d="M963.4,881.9c3.9-0.9,4.8-3.2,4.7-6.7c-0.2-6.1,0.2-12.3,0.1-18.4c0-3.4,0.4-7.5-5.6-7.1
			c11-2.2,11-2.2,11,8.3c0,5.5,0.1,10.9,0.1,16.4c0,3.6-0.6,7.3,4.8,7.5C973.5,881.9,968.5,881.9,963.4,881.9z"/>
		<path class="st5" d="M1039.1,903.6c10.6-2,10.6-2,10.6,8.2c0,5.8,0.2,11.6,0.1,17.4c-0.1,3.5,0.1,6.4,4.7,6.8c-2.5,0-5,0-7.5,0
			c-2.5,0-5,0-7.5,0c5.8-1.2,4.5-5.7,4.5-9.6c0.1-5.5,0.1-10.9,0.2-16.4C1044.3,906.7,1043.8,903.6,1039.1,903.6z"/>
		<path class="st5" d="M711.4,881.9c-5,0-9.9,0-14.9,0c5.7-0.9,4.5-5.3,4.5-9c0.1-5.6,0.1-11.3,0.2-16.9c0-3.4-0.5-6.4-5.2-6.3
			c10.7-2.7,10.7-2.7,10.7,7.6c0,6,0.2,11.9,0.1,17.9C706.7,878.7,707,881.6,711.4,881.9z"/>
		<path class="st6" d="M773.9,851.8c-1.3,0.4-2.1-0.6-3.2-1c-5-2-9.6-0.4-11.5,4.5c-2.5,6.5-2.6,13.3-0.2,19.9
			c1.4,3.8,4.5,6.1,8.9,5.8c1-0.5,1.8-0.9,1.9,0.8c-6.8,2.6-13.8-0.4-17.3-7.4c-3.9-7.7-1.1-18.8,5.9-23.8
			C764,846.7,769.7,847.1,773.9,851.8z"/>
		<path class="st4" d="M603.7,856c-1.2,6.4-1.1,12.8-0.9,19.3c0.1,2.8-0.1,5.8,3.7,6.6c-4.6,0-9.3,0-13.9,0c4-0.9,4.3-3.9,4.3-7.2
			c-0.1-6.5,0-13-0.3-19.4c-0.2-4.1-0.7-4.3-4.8-5.6c9.8-2.8,10.3-2.7,10.4,3.1C602.7,853.8,602.1,855.4,603.7,856z"/>
		<path class="st6" d="M949.9,903.2c10.2-0.4,10.2-0.4,10.2,9c0,5.8-0.1,11.6-0.1,17.5c0,2.5,0,5.2,3.4,6.3c-1.8,0-3.7-0.1-5.5,0
			c-2.6,0.2-4-0.3-3.7-3.5c0.4-4.7-1.8-0.6-3.6-0.6c3.9-4.7,4.1-10,3.7-15.2C953.8,912.3,957,906.5,949.9,903.2z"/>
		<path class="st6" d="M881.9,849.1c10.1-0.3,10.2-0.3,10.1,9.1c0,5.8-0.1,11.6-0.1,17.5c0,2.5,0,5.1,5.1,5.6
			c-10.8,1.5-10.8,1.5-11.1-4.8c-1.4-0.6-1.5,1.6-3.4,1.1c4.1-4.4,3.9-9.7,3.6-14.9C885.9,858.2,889.1,852.4,881.9,849.1z"/>
		<path class="st7" d="M1076.5,903.9c9.1-4.2,15.5-0.8,16,8.2c0.4,5.6,0,11.3-0.1,16.9c0,2.9,0.1,5.7,3.7,6.9c-4.3,0-8.7,0-13,0
			c4.6-1.5,4-5.4,4-9c0.1-4.5,0.2-9-0.1-13.4C1086.6,906.2,1084.2,904,1076.5,903.9z"/>
		<path class="st5" d="M1005,936c-4.3,0-8.6,0-14.5,0c5.5-1.8,5.8-5.1,5.7-8.8c-0.2-4.6,0.2-9.3-0.1-13.9c-0.4-7.2-2.8-9.3-9.8-9.5
			c6.7-4.4,14.3-1.2,15,6.7c0.6,6.1,0.1,12.3,0.1,18.4C1001.5,931.9,1001.6,934.7,1005,936z"/>
		<path class="st4" d="M1060.6,903c2.1,0,4.1,0.1,6.1,0c2.3-0.2,2.5,1.4,3.6,2.8c2.9,3.7,0.5,6.6,0,9.9c-0.6,4.6-1.1,9.2-0.7,13.9
			c0.2,2.8,0.7,5.2,3.9,6.2c-4.3,0-8.7,0-12.9,0C1066.8,932.2,1067,908,1060.6,903z"/>
		<path class="st4" d="M969.4,903c2.2,0,4.2,0.1,6.2,0c2.1-0.1,2.6,1.1,3.8,2.7c2.6,3.7,0.6,6.6,0.1,9.9c-0.7,4.6-1.1,9.2-0.7,13.9
			c0.2,2.8,0.6,5.2,3.9,6.3c-4.3,0-8.7,0-12.7,0C975.8,932,975.9,907.7,969.4,903z"/>
		<path class="st4" d="M947.1,935.4c-9.1,3.5-13.6,0.7-14-8.1c-0.3-6.3-0.3-12.6-0.4-19c0-2.1,0.3-4.5-3.3-4.5
			c0.6-0.5,0.8-0.7,1-0.7c7.9-0.2,7.9-0.2,8,7.6c0.1,5.5,0.2,11,0.5,16.5C939.2,932.9,940.8,934.5,947.1,935.4z"/>
		<path class="st4" d="M878.7,881.4c-8.2,3.6-13.1,0.8-13.6-7.9c-0.4-6.5-0.3-13-0.5-19.5c0-2.2,0.3-4.5-4.3-4.3
			c1.6-0.6,1.9-0.8,2.1-0.8c7.7-0.1,7.7-0.1,7.8,7.4c0.1,5.3,0.2,10.6,0.5,16C871.1,878.9,872.4,880.4,878.7,881.4z"/>
		<path class="st8" d="M778,916.9c0.3,0.7,0.5,1.3,0.8,2c-0.6,2.2-1.3,4.4-1.9,6.6c-1.9,6.6-1.1,8,5.7,10.4c-2.8,0-5.5,0-8.3,0
			c-2.7,0-5.5,0-8.2,0C774.8,932.5,774.1,923.3,778,916.9z"/>
		<path class="st5" d="M607.9,850.7c3.3-2.6,6.5-4.2,9.9-0.9c1.7,1.7,2.1,3.9,0,5.6c-1.9,1.6-3.5,0.3-4.3-1.5
			C612.3,851.4,610.4,850.7,607.9,850.7z"/>
		<path class="st9" d="M1132.5,906.2c-0.5-0.1-1-0.2-1.6-0.2c2-2.7,4.5-4.4,8-3.8c2,0.3,3.2,1.7,3.7,3.6c0.3,1.4-0.2,2.7-1.7,3.2
			c-2,0.6-3.2-0.7-3.9-2.2C1135.6,903.9,1134,905.6,1132.5,906.2z"/>
		<path class="st4" d="M1045,882.9c2.7,0.5,4.1,1.8,4,4.4c-0.1,2.3-1.3,3.8-3.7,3.7c-2.3-0.1-3.5-1.6-3.5-3.9
			C1041.9,884.7,1043.1,883.4,1045,882.9z"/>
		<path class="st4" d="M663.1,833.4c-0.3,2.2-1.4,3.7-3.8,3.5c-2.3-0.2-3.5-1.7-3.4-4c0.1-2.2,1-4,3.5-3.9
			C661.9,829.1,663,830.9,663.1,833.4z"/>
		<path class="st4" d="M969.1,829c2.3,0.3,3.8,1.4,4,3.7c0.2,2.5-0.8,4.3-3.5,4.3c-2.3,0-3.6-1.5-3.6-3.8
			C965.8,830.9,966.8,829.4,969.1,829z"/>
		<path class="st10" d="M382,115c-4.6,5.4-9.6,10.4-14.9,14.9C370.7,123.7,375.7,118.7,382,115z"/>
		<path class="st11" d="M367.2,578c5.6,3.6,10.2,8.1,13.7,13.7C375.8,587.8,371.2,583.3,367.2,578z"/>
		<path class="st12" d="M614,26.9c-6,0-12,0-17.9,0c-0.4-0.2-0.5-0.3-0.4-0.5c0.1-0.2,0.2-0.2,0.4-0.2c6,0,12,0,17.9,0
			c0.3,0.2,0.5,0.3,0.4,0.5C614.2,26.8,614.1,26.9,614,26.9z"/>
		<path class="st13" d="M596.1,680.1c6,0,11.9,0,17.9-0.1c0.3,0.2,0.5,0.4,0.3,0.5c-0.1,0.2-0.2,0.3-0.3,0.3c-6,0-11.9,0-17.9,0
			c-0.4-0.2-0.5-0.3-0.3-0.5C595.8,680.2,596,680.1,596.1,680.1z"/>
		<path class="st14" d="M932,365c-0.1-5.4-0.1-10.8-0.2-16.2c0,0,0.2,0.1,0.2,0.1c0.4-0.4,0.7-0.4,0.9,0.1c0.1,5.7,0.5,11.4-0.2,17
			C932,366,931.8,365.7,932,365z"/>
		<path class="st15" d="M738.9,881.7c-0.7-0.2-1.3-0.5-2-0.7c2.8-1.2,5.3-3.1,8-4.6C744.2,879.5,741.7,880.8,738.9,881.7z"/>
		<path class="st15" d="M579.9,881.7c-0.7-0.2-1.3-0.5-2-0.7c2.8-1.2,5.3-3.1,8-4.6C585.2,879.5,582.7,880.8,579.9,881.7z"/>
		<path class="st16" d="M550.1,875.1c-0.4-0.4-0.8-0.8-1.1-1.2c1.5-1.9,2.3-4.6,5.1-6.3C554,871.3,552,873.2,550.1,875.1z"/>
		<path class="st5" d="M1024.1,903c-2.4-1.8,0.1-5-2-6.9c0-1.3,0.2-2.6,1.3-4.1C1024.6,895.8,1023.4,899.5,1024.1,903z"/>
		<path class="st5" d="M638.1,849c-2.4-1.8,0.1-5-2-6.9c0-1.3,0.2-2.6,1.3-4.1C638.6,841.8,637.4,845.5,638.1,849z"/>
		<path class="st17" d="M769.9,881.8c-0.6-0.3-1.3-0.5-1.9-0.8c2.3-1.3,4.4-2.9,6-5c0.3,0.3,0.7,0.7,1,1
			C773.8,879.2,772.3,880.9,769.9,881.8z"/>
		<path class="st18" d="M931.9,342c-1.4-2.4-1.5-4.8,0.1-7.2c1,1.9,0.9,4,0.7,6.1C932.7,341.5,932.4,341.8,931.9,342z"/>
		<path class="st19" d="M932,365c0.2,0.3,0.4,0.7,0.7,1c0.2,1.7,0.5,3.5-0.5,5.1C930.5,369.2,930.4,367.1,932,365z"/>
		<path class="st20" d="M826,112.1c-2.6-0.5-3.9-2.6-5.4-4.4C823.5,107.8,824.8,109.9,826,112.1z"/>
		<path class="st12" d="M278.9,340c0,3,0,5.9,0,8.9c-0.2,0.5-0.5,0.6-0.8,0.1c0-3,0-6,0-9C278.4,339.5,278.6,339.6,278.9,340z"/>
		<path class="st12" d="M278.9,358.1c0,3,0,5.9,0,8.9c-0.3,0.5-0.5,0.5-0.8,0c0-3,0-6,0-9C278.4,357.5,278.7,357.6,278.9,358.1z"/>
		<path class="st21" d="M1111,942.8c-0.4-0.3-0.8-0.7-1.2-1c0.2-1.3,3.3-0.4,2.1-2.8c1.9-0.5,2.2,0.6,2.2,2.1
			C1113.8,943.1,1112.7,943.6,1111,942.8z"/>
		<path class="st22" d="M278.9,358.1c-0.3,0-0.5-0.1-0.8-0.1c-0.5-3-0.5-6,0-9c0.3,0,0.5,0,0.8-0.1C278.9,352,278.9,355,278.9,358.1
			z"/>
		<path class="st20" d="M821,599.9c0.7-2.8,2.3-4.6,5.4-4.8C824.8,597,823.1,598.7,821,599.9z"/>
		<path class="st23" d="M931.9,342c0.3-0.4,0.5-0.7,0.8-1.1c0.1,2.7,0.1,5.4,0.2,8.1c-0.3,0-0.6,0-0.9-0.1
			C931.9,346.6,931.9,344.3,931.9,342z"/>
		<path class="st24" d="M920,443.9c-0.1-2.5-0.2-5,1.9-6.9C922,439.4,921.3,441.8,920,443.9z"/>
		<path class="st25" d="M312,499c2.2,1.4,3,3.5,3,5.9C313.5,503.2,312.4,501.2,312,499z"/>
		<path class="st26" d="M360.9,135.7c0.1,2.8-2,3.9-3.9,5.2C357.3,138.4,359.2,137.1,360.9,135.7z"/>
		<path class="st27" d="M692.9,669c1.9-1.5,3.7-3,6.4-1.8C697.3,668.4,695.2,669,692.9,669z"/>
		<path class="st28" d="M1011.1,876.1c-0.5,1.2-0.9,2.5-2.5,2.7c-0.9-2.1,1.5-3,1.6-4.7C1012,874,1011.5,875.1,1011.1,876.1z"/>
		<path class="st28" d="M850.1,930.1c-0.5,1.2-0.9,2.5-2.5,2.7c-0.9-2.1,1.5-3,1.6-4.7C851,928,850.5,929.1,850.1,930.1z"/>
		<path class="st29" d="M529,35.9c-2.2,0.7-4.4,1.5-6.7,1.1c2-1.4,4.3-2,6.8-1.9c0.3,0.2,0.4,0.4,0.3,0.5
			C529.2,35.8,529.1,35.9,529,35.9z"/>
		<path class="st27" d="M699.4,40.9c-2.2-0.8-4.7-0.9-6.4-2.8C695.3,38.5,698.2,37.7,699.4,40.9z"/>
		<path class="st28" d="M883.1,930.1c-0.5,1.2-0.9,2.5-2.5,2.7c-0.9-2.1,1.5-3,1.6-4.7C884,928,883.5,929.1,883.1,930.1z"/>
		<path class="st30" d="M355,143c-0.4,2.7-2.2,4.1-4.6,4.9C351.7,146.1,352.6,143.9,355,143z"/>
		<path class="st25" d="M315,202.1c0,2.5-0.7,4.6-3,5.9C312.4,205.8,313.5,203.8,315,202.1z"/>
		<path class="st31" d="M922.1,272c-1.4-1.8-2.1-3.7-1.1-6c0.6,2,1.2,4,1.8,6C922.5,272,922.3,272,922.1,272z"/>
		<path class="st32" d="M596,26.2c0,0.2,0,0.5,0,0.7c-2.4,0-4.8,0.7-7.1-0.6C591.3,26.2,593.7,26.2,596,26.2z"/>
		<path class="st33" d="M614,26.9c0-0.3,0-0.5,0-0.8c2.3,0,4.7,0,7,0.1c0.3,0.2,0.4,0.4,0.3,0.5c-0.1,0.2-0.2,0.3-0.3,0.3
			C618.7,27,616.3,26.9,614,26.9z"/>
		<path class="st26" d="M357,567c2.5,0.3,3.8,1.7,3.9,4.3C359.3,570.2,358.1,568.7,357,567z"/>
		<path class="st34" d="M645,28.3c-2.4,0.8-4.8,1.3-7.1-0.5C640.3,28,642.7,28.2,645,28.3z"/>
		<path class="st26" d="M847.1,574.3c0-2.5,1.3-3.8,3.7-4.3C850.1,571.9,848.6,573.1,847.1,574.3z"/>
		<path class="st29" d="M522,670.1c2.2,0,4.6-0.8,6,1.8C525.9,671.5,523.7,671.4,522,670.1z"/>
		<path class="st35" d="M603.7,856c-3.3,0.2-1.4-2-1.5-3.3c0.9,0.2-0.5,3.5,2.3,1.6C604.9,854.1,604.1,855.4,603.7,856z"/>
		<path class="st36" d="M529.1,671.9c2.3-0.6,4.3-0.5,5.9,1.5C533,673,530.9,673.1,529.1,671.9z"/>
		<path class="st36" d="M529,35.9c0-0.3,0-0.5,0-0.8c1.8-1.2,4-1.1,6-1.5C533.6,35.8,531,35.2,529,35.9z"/>
		<path class="st37" d="M814,605.9c0.4-2.5,1.8-3.7,4.3-3.8C817.2,603.7,815.8,605.1,814,605.9z"/>
		<path class="st38" d="M913.8,243c-2.4-1-2.9-2.6-1.9-4.9C912.5,239.7,913.2,241.3,913.8,243z"/>
		<path class="st39" d="M293.1,254.9c1,2.2,0.5,4-1.8,5.1C291.9,258.3,291.8,256.3,293.1,254.9z"/>
		<path class="st40" d="M919.7,261c-2.4-1-2.7-2.7-1.7-4.9C919.3,257.4,919.1,259.3,919.7,261z"/>
		<path class="st41" d="M286.1,281.1c0.6,2.2,0.5,4.3-1.4,5.9C284.9,285,284.8,282.9,286.1,281.1z"/>
		<path class="st42" d="M931,382.2c0.2-1.4-0.5-3,0.9-4.2c0.2,2.4,0.4,4.9-0.8,7.1C930.3,384.2,930.4,383.2,931,382.2z"/>
		<path class="st34" d="M638,679.2c2.2-1.8,4.6-1.3,7.1-0.5C642.7,678.8,640.3,679,638,679.2z"/>
		<path class="st39" d="M291.3,447c2.3,1.1,2.8,2.8,1.8,5.1C291.8,450.7,291.9,448.7,291.3,447z"/>
		<path class="st27" d="M918.2,450.2c-1.1-2.1-0.1-3.7,1.4-5.1C919.5,446.9,919.4,448.7,918.2,450.2z"/>
		<path class="st32" d="M596.1,680.1c0,0.2,0,0.5,0,0.7c-2.4,0-4.8-0.1-7.1-0.1C591.2,679.4,593.7,680.1,596.1,680.1z"/>
		<path class="st20" d="M392,105.2c-0.4,2.4-1.8,3.7-4.3,3.7C388.9,107.4,390.1,106,392,105.2z"/>
		<path class="st26" d="M850.8,137c-2.3-0.3-3.4-1.9-3.9-4C848.8,133.7,850,135.1,850.8,137z"/>
		<path class="st41" d="M284.7,420c1.8,1.7,2,3.7,1.4,5.9C284.8,424.1,284.9,422,284.7,420z"/>
		<path class="st43" d="M387.7,598.1c2.5,0,3.9,1.3,4.3,3.7C390.1,601,388.9,599.6,387.7,598.1z"/>
		<path class="st44" d="M928.9,302c-2-1.4-2.8-3-1-5.1C928.3,298.7,929.3,300.2,928.9,302z"/>
		<path class="st45" d="M614,680.9c0-0.3,0-0.5,0-0.8c2.3,0,4.7-0.1,7-0.1c0.3,0.2,0.4,0.4,0.3,0.5c-0.1,0.2-0.2,0.3-0.3,0.3
			C618.7,680.8,616.3,680.8,614,680.9z"/>
		<path class="st46" d="M931.8,325.1c-2.6-1-2.2-2.5-0.8-4.3C931.6,322.2,932,323.6,931.8,325.1z"/>
		<path class="st30" d="M351.1,560c2.4,0.4,3.7,1.8,3.8,4.3C353.3,563.1,352,561.8,351.1,560z"/>
		<path class="st47" d="M854.1,566.3c0-2.5,1.3-3.9,3.8-4.3C856.9,563.7,855.7,565.2,854.1,566.3z"/>
		<path class="st48" d="M621,27c0-0.3,0-0.5,0-0.8c1.9,0.2,4.3-1.1,5.3,1.7C624.5,27.6,622.8,27.3,621,27z"/>
		<path class="st49" d="M399,100c-1,1.6-2,3.1-4.2,2.9C395.7,101.3,397,100.1,399,100z"/>
		<path class="st50" d="M278.1,367c0.3,0,0.5,0,0.8,0c0,2,0.6,4.1-0.6,6.1C278.3,371,278.2,369,278.1,367z"/>
		<path class="st51" d="M712,44.1c-1.8,0.4-3.4,0.3-4-1.8C709.3,43,711.2,42.4,712,44.1z"/>
		<path class="st50" d="M278.9,340l-0.4,0l-0.4,0c0.1-2,0.1-4.1,0.2-6.1C279.5,335.9,278.9,338,278.9,340z"/>
		<path class="st52" d="M929.9,314c-1-2-1.7-4,0-6.1C929.9,309.9,929.9,311.9,929.9,314z"/>
		<path class="st53" d="M297.1,463.9c2.1,1.2,2.1,3.1,1.9,5.1C297.6,467.6,297.3,465.7,297.1,463.9z"/>
		<path class="st54" d="M924.8,281c-2.1-1.1-2.1-3-1.6-5c0.2,0,0.3,0,0.5,0C924.1,277.7,924.4,279.3,924.8,281z"/>
		<path class="st53" d="M299,238c0.2,2,0.2,3.9-1.9,5.1C297.3,241.3,297.6,239.4,299,238z"/>
		<path class="st55" d="M907.7,227c-2.6-0.4-2.3-2.4-2.5-4.2C906.9,223.7,907,225.5,907.7,227z"/>
		<path class="st56" d="M1011.1,876.1c-0.2-0.8,0-1.7-0.9-2c-0.1-1.1,0.5-2.5,1.4-1.8C1012.8,873.2,1012.1,874.9,1011.1,876.1z"/>
		<path class="st57" d="M902.7,216c-2.5-0.3-2.4-2.3-2.6-4.1C901.8,212.8,902.2,214.4,902.7,216z"/>
		<path class="st58" d="M883.7,180.9c-0.8,0-1.7-0.1-2.5-0.1c0-1-0.1-2-0.1-2.9C882.6,178.3,883.2,179.5,883.7,180.9z"/>
		<path class="st59" d="M340.9,160.5c0.3,2.5-1.3,3.6-3.2,4.4C338.5,163.3,339.2,161.6,340.9,160.5z"/>
		<path class="st60" d="M346.9,152.8c0.1,2.5-1.5,3.5-3.5,4.2C344.3,155.4,345.1,153.7,346.9,152.8z"/>
		<path class="st61" d="M349.9,148.7c0.2,2.3-1.3,3.4-3,4.3C347.1,151,348.5,149.8,349.9,148.7z"/>
		<path class="st62" d="M857.9,145c-2.1-0.1-3.1-1.5-3.8-3.3C856.2,141.8,857,143.4,857.9,145z"/>
		<path class="st37" d="M817.2,104.9c-1.7-0.5-2.7-1.8-3.6-3.2C816,101.5,817,102.8,817.2,104.9z"/>
		<path class="st56" d="M850.1,930.1c-0.2-0.8,0-1.7-0.9-2c-0.1-1.1,0.5-2.5,1.4-1.8C851.8,927.2,851.1,928.9,850.1,930.1z"/>
		<path class="st56" d="M883.1,930.1c-0.2-0.8,0-1.7-0.9-2c-0.1-1.1,0.5-2.5,1.4-1.8C884.8,927.2,884.1,928.9,883.1,930.1z"/>
		<path class="st63" d="M786.7,81c-1.7,0.2-3-0.4-3.8-2C784.8,78.3,785.7,79.8,786.7,81z"/>
		<path class="st64" d="M737.4,53.9c-2.1,0.2-4-0.1-5.3-2C734.1,51.8,735.9,52.5,737.4,53.9z"/>
		<path class="st63" d="M782.9,628.8c0.3-2.3,1.7-2.9,3.7-2.8C785.8,627.5,784.4,628.1,782.9,628.8z"/>
		<path class="st64" d="M732.1,655.1c1.3-1.9,3.2-2.2,5.3-2C735.9,654.5,734.1,655.2,732.1,655.1z"/>
		<path class="st65" d="M280.2,312.9c0.9,2.1,1.4,4.2-0.4,6.1C280,317,280.1,315,280.2,312.9z"/>
		<path class="st66" d="M647,678.2c1.8-2.2,4.3-0.7,6.5-1.1C651.5,678.8,649.1,677.8,647,678.2z"/>
		<path class="st67" d="M556.1,29.9c-1.2,1.8-2.7,1-4.1,0.3C553.3,30.1,554.7,30,556.1,29.9z"/>
		<path class="st68" d="M659.1,30.3c-1.8,1-3.6,1.3-5.2-0.4C655.6,30.1,657.3,30.2,659.1,30.3z"/>
		<path class="st69" d="M550,30.8c-1.1,2.3-2.6,1-4.1,0.4C547.3,31.1,548.6,31,550,30.8z"/>
		<path class="st70" d="M665.1,31.3c-1.4,0.5-3,2-4.1-0.5C662.3,31,663.7,31.2,665.1,31.3z"/>
		<path class="st71" d="M876.1,537.5c-0.2-1.9,0.4-3.2,2.5-3.4C878.1,535.4,877.4,536.7,876.1,537.5z"/>
		<path class="st59" d="M338.2,543c2.1,0.2,2.9,1.5,2.7,3.5C339.6,545.6,338.8,544.4,338.2,543z"/>
		<path class="st72" d="M869.1,547.4c-0.2-1.9,0.5-3.2,2.6-3.4C871.2,545.4,870.4,546.6,869.1,547.4z"/>
		<path class="st73" d="M866.1,551.4c-0.1-2,0.6-3.2,2.7-3.4C868.2,549.4,867.4,550.6,866.1,551.4z"/>
		<path class="st60" d="M344.1,551c2.1,0.2,3,1.4,2.8,3.5C345.6,553.6,344.7,552.4,344.1,551z"/>
		<path class="st74" d="M863.1,555.3c-0.2-2,0.7-3.1,2.7-3.3C865.2,553.4,864.4,554.5,863.1,555.3z"/>
		<path class="st61" d="M347.2,555c2,0.2,2.9,1.4,2.8,3.3C348.7,557.5,347.7,556.4,347.2,555z"/>
		<path class="st75" d="M859.1,560.3c-0.1-2,0.8-3.1,2.8-3.3C861.4,558.4,860.4,559.5,859.1,560.3z"/>
		<path class="st76" d="M281.9,403.9c2.2,1.2,1,2.7,0.4,4.1C282.1,406.7,282,405.3,281.9,403.9z"/>
		<path class="st49" d="M394.7,604.1c2-0.2,3,0.7,3.2,2.7C396.5,606.4,395.5,605.4,394.7,604.1z"/>
		<path class="st60" d="M809,609.9c0.2-2,1.4-3,3.4-2.8C811.5,608.4,810.4,609.3,809,609.9z"/>
		<path class="st77" d="M400.7,609.1c2-0.2,3.1,0.7,3.3,2.7C402.6,611.2,401.5,610.4,400.7,609.1z"/>
		<path class="st78" d="M804,613.8c0.2-2.1,1.4-2.9,3.3-2.7C806.5,612.3,805.4,613.3,804,613.8z"/>
		<path class="st79" d="M404.7,612.1c2-0.1,3.1,0.7,3.3,2.7C406.6,614.2,405.4,613.4,404.7,612.1z"/>
		<path class="st80" d="M800,616.8c0.2-2.1,1.5-2.9,3.4-2.7C802.6,615.4,801.4,616.2,800,616.8z"/>
		<path class="st81" d="M408.6,615.1c2-0.2,3.2,0.6,3.4,2.7C410.6,617.2,409.4,616.4,408.6,615.1z"/>
		<path class="st68" d="M653.9,677.1c1.6-1.6,3.4-1.4,5.2-0.3C657.3,676.8,655.6,676.9,653.9,677.1z"/>
		<path class="st82" d="M923.7,276c-0.2,0-0.4,0-0.5,0c-1.7-0.9-1.3-2.5-1.1-4c0.2,0,0.4,0,0.7,0C923.1,273.3,923.4,274.7,923.7,276
			z"/>
		<path class="st67" d="M551.9,676.7c1.4-0.7,2.9-1.5,4.1,0.3C554.7,677,553.3,676.9,551.9,676.7z"/>
		<path class="st70" d="M660.9,676.1c1.1-2.4,2.7-1,4.1-0.5C663.7,675.8,662.3,676,660.9,676.1z"/>
		<path class="st69" d="M545.9,675.7c1.4-0.6,2.9-1.9,4.1,0.4C548.6,676,547.3,675.9,545.9,675.7z"/>
		<path class="st66" d="M929.8,399.1c-1.1-1.8-1.5-3.6,0.4-5.2C930,395.7,929.9,397.4,929.8,399.1z"/>
		<path class="st65" d="M279.9,388c1.5,1.6,1.7,3.2,0.3,5C280.1,391.3,280,389.6,279.9,388z"/>
		<path class="st83" d="M930.7,392c-0.8-1.6-0.7-3.3-0.6-5c0.2-0.5,0.5-0.5,0.9-0.1C930.8,388.6,930.8,390.3,930.7,392z"/>
		<path class="st71" d="M789,624.7c0.2-2.1,1.6-2.7,3.4-2.5C791.7,623.4,790.4,624.1,789,624.7z"/>
		<path class="st84" d="M930.9,387c-0.3,0-0.6,0-0.9,0.1c0.1-1.6-0.7-3.5,0.9-4.8c0,1,0.1,2,0.1,3C931,385.8,931,386.4,930.9,387z"
			/>
		<path class="st71" d="M878.7,173.1c-2.1-0.3-2.8-1.5-2.6-3.5C877.5,170.4,878.1,171.7,878.7,173.1z"/>
		<path class="st85" d="M282.9,410c2.4,1.1,1,2.7,0.4,4.1C283.2,412.7,283,411.3,282.9,410z"/>
		<path class="st72" d="M871.8,163c-2.1-0.2-2.9-1.5-2.7-3.5C870.4,160.4,871.2,161.6,871.8,163z"/>
		<path class="st73" d="M868.8,159c-2.1-0.2-2.9-1.5-2.7-3.4C867.4,156.4,868.2,157.6,868.8,159z"/>
		<path class="st74" d="M865.8,155c-2-0.1-2.7-1.4-3-3.1C864.6,152.2,865.1,153.7,865.8,155z"/>
		<path class="st86" d="M928.7,406.1c-0.6-1.5-2-3,0.4-4.2C929,403.3,928.9,404.7,928.7,406.1z"/>
		<path class="st75" d="M861.9,150c-2-0.1-2.7-1.4-3-3.1C860.6,147.2,861.2,148.6,861.9,150z"/>
		<path class="st48" d="M621,680.8c0-0.3,0-0.5,0-0.8c1.8,0,3.5,0.1,5.3,0.1C624.6,681.3,622.8,680.9,621,680.8z"/>
		<path class="st87" d="M412.6,618.1c1.9-0.2,3.2,0.5,3.4,2.6C414.6,620.1,413.4,619.4,412.6,618.1z"/>
		<path class="st88" d="M796,619.8c0.2-2.1,1.5-2.9,3.5-2.7C798.6,618.4,797.4,619.2,796,619.8z"/>
		<path class="st53" d="M493,661c1.5,0.1,3.5-0.8,4,1.7C495.7,662.2,494,662.4,493,661z"/>
		<path class="st60" d="M812,100.2c-1.6-0.2-2.6-1.2-3.5-2.5C810.6,97.3,811.5,98.4,812,100.2z"/>
		<path class="st77" d="M404,95.3c-0.2,2-1.3,2.8-3.3,2.7C401.5,96.6,402.6,95.8,404,95.3z"/>
		<path class="st78" d="M807,96.2c-1.5-0.2-2.6-1-3.3-2.3C805.6,93.4,806.6,94.5,807,96.2z"/>
		<path class="st79" d="M408,92.2c-0.2,2.1-1.4,2.9-3.3,2.7C405.4,93.6,406.6,92.8,408,92.2z"/>
		<path class="st80" d="M803.1,93.2c-1.5-0.2-2.7-1-3.4-2.4C801.7,90.5,802.6,91.5,803.1,93.2z"/>
		<path class="st80" d="M412,89.2c-0.2,2.1-1.4,2.9-3.4,2.7C409.4,90.6,410.6,89.8,412,89.2z"/>
		<path class="st69" d="M927.7,412.1c-0.6-1.4-1.8-2.9,0.4-4.1C928,409.3,927.9,410.7,927.7,412.1z"/>
		<path class="st76" d="M282.3,298.9c0.6,1.5,1.9,3-0.4,4.2C282,301.7,282.1,300.3,282.3,298.9z"/>
		<path class="st88" d="M799.1,90.2c-1.5-0.2-2.6-0.9-3.3-2.3C797.7,87.5,798.6,88.5,799.1,90.2z"/>
		<path class="st87" d="M416,86.3c-0.2,2.1-1.5,2.7-3.4,2.6C413.4,87.6,414.6,86.9,416,86.3z"/>
		<path class="st71" d="M792.1,85.2c-1.4-0.2-2.6-0.8-3.3-2.2C790.7,82.5,791.8,83.4,792.1,85.2z"/>
		<path class="st85" d="M283.3,292.9c0.5,1.4,1.9,3-0.5,4.1C283,295.7,283.2,294.3,283.3,292.9z"/>
		<path class="st89" d="M926.9,293.9c-1.7-1.6-0.5-3.6-0.9-5.4C927.5,290.1,927.1,292,926.9,293.9z"/>
		<path class="st53" d="M497,44.2c-0.4,2.4-2.2,1.7-3.7,1.8C494.1,44.4,495.8,44.9,497,44.2z"/>
		<path class="st90" d="M725.9,279.9c-6,2.4-10.9,6.7-16.2,10.2c-8.3,5.5-16.9,10.5-25.2,16c-9.5,6.3-18.9,12.6-28.4,18.9
			c-4-3.7-5.9-8.9-8.4-13.4c-9.1-16.6-18.4-33.1-27.8-49.5c-6.8-11.8-12.6-24.1-19.9-35.6c-0.4-0.7-0.7-1.6-2-1.8
			c-2.3,2.6-3.5,6.1-5,9.4c-14.2,31.9-28.9,63.6-43.2,95.4c-2.7,6-6.7,11.5-7.3,18.3c5.3,1.9,10.6,1,15.9,0.3
			c3.4-0.6,6.8-0.2,10.2-0.4c0.6-0.1,1.2-0.1,1.8,0c3.9,0.1,7.7,0,11.6,0c7.8-0.2,15.5,0.6,23.3-0.5c0.6-0.2,1.2-0.3,1.8-0.4
			c3.5,0.1,7.1-0.8,10.5,0.7c0.6,0.4,0.7,0.9,0.4,1.5c-13.1,8.5-26.3,17.1-39.4,25.6c-12.7,8.2-25.8,16-38.2,24.7
			c-13.7,9.5-28.1,17.7-41.7,27.3c-10.9,7.7-22.9,13.8-33.9,21.4c-9,6.3-18.5,11.5-27.4,17.9c-8.5,6.1-17.8,10.9-26.4,16.8
			c-11.9,8.2-24.3,15.7-36.3,23.8c-7.8,5.3-16.1,9.9-23.7,15.7c-0.6,0.8-1.3,1.4-2.1,1.8c-0.8,0.2-1.6,0.6-2.1-0.4
			c-0.4-0.8,0-1.2,0.8-1.4c8.3-14.7,16.5-29.3,24.7-44c6.5-11.6,13.2-23.2,19.8-34.7c9-15.7,18.1-31.5,26.8-47.4
			c7.8-14.2,15.6-28.5,23.7-42.5c9.5-16.7,18.8-33.5,28.5-50.1c7.7-13.2,15.1-26.5,22.6-39.8c8.7-15.4,17.5-30.7,26-46.2
			c7.8-14.2,15.8-28.4,23.7-42.5c6.5-11.6,13.1-23.2,19.8-34.7c6.9-11.8,13.3-23.9,20-35.8c5.2-9.2,10.6-18.4,16.2-28.1
			c7.3,11.7,14.1,22.6,21,33.6c6.3,10.1,12.7,20.1,19.1,30.1c0.7,1,2.3,1.4,1.8,3c1.1,1.6,2.2,3.3,3.3,4.9c0.6,1,2.3,1.5,1.7,3.1
			c10.2,16.3,20.4,32.7,30.6,49c11,17.7,22.1,35.3,33.2,53c0.4,0.7,1,1.3,1.5,1.9c0.6,1,2.3,1.4,1.7,3.1
			C717.2,265.5,722.8,271.9,725.9,279.9z"/>
		<path class="st90" d="M727.3,411.1c1.2-0.2,2.6,0.3,3.5-1c0.9-1,2.2-0.6,3.2-1.1c2.3-0.6,4.5-1.3,6.8-1.9c0.8-1,2.3-0.5,3.1-1.4
			c1.4,0,2.6-1,4-0.9c2.1,0.4,3.6-0.6,5.1-1.8c1.6-0.7,3.2-0.9,4.9-1.2c2,0.3,3.6-0.7,5.1-1.8c1.6-0.7,3.2-0.9,4.9-1.2
			c5.1-1.6,10.5-2.2,15.2-4.9c1.7-0.9,3-0.6,3.8,1.2c6.8,9.9,13.6,19.9,20.5,29.7c21.9,31,43.8,62,65.7,93c0.4,0.5,0.6,1.1,1.1,2.3
			c-2.2,0-3.8,0-5.4,0c-52.6,0-105.3,0-157.9,0.1c-3.6,0-5.5-1-7.2-4.4c-6.9-13.8-14.5-27.3-21.1-41.2
			c-6.9-14.7-14.6-28.9-21.5-43.5c1.1-0.9,2.4-1.3,3.8-1.3c2,0.3,3.6-0.7,5.1-1.8c1.6-0.7,3.2-0.9,4.9-1.2c2,0.3,3.6-0.6,5.1-1.9
			c1.6-0.7,3.2-0.9,4.9-1.2c6-1.7,12.1-3.4,18.1-5.1c1.1-1.7,3.1-0.9,4.5-1.7c5.1-1.4,10.3-2.8,15.4-4.3
			C724,411.1,726,411.8,727.3,411.1z"/>
		<path class="st90" d="M499,479.9c6-1.7,12.1-3.4,18.1-5.2c1.3-1.4,3.1-1.7,4.9-1.8c5-1.7,10.6-1.7,15.1-4.9
			c1.8-0.1,1.5,0.9,1.1,1.9c-7.4,16.3-14.8,32.6-22,49c-1.7,3.9-5.2,1.1-7.2,3c-3,0.9-6.1,0.6-9.1,0.1l-0.5-0.1l-0.4,0.2
			c-3.7,0.7-7.4,0.2-11,0.3c-7-0.2-14.1,0.4-21.1,0.8c-3.6,0.4-7.3,0.1-10.9,0.2c-3.6,0-7.2,0-10.8,0c-6.7-0.3-13.4,0.7-20.2,0.6
			c-0.6,0.1-1.1,0.3-1.7,0.4c-2.8-0.1-5.6,0.4-8.4-0.3l-0.5-0.1l-0.4,0.2c-3.7,0.7-7.4,0.2-11,0.3c-7-0.2-14.1,0.4-21.1,0.8
			c-3.3,0.2-6.7,0.5-10-0.2l-0.4-0.1l-0.4,0.2c-3.5,0.7-7.1,0.2-10.7,0.3c-2.6,0-5.2,0.1-7.9-0.1c-0.6-0.2-0.9-0.7-0.8-1.3
			c0.7-0.8,1.5-0.6,2.4-0.3c2.3-0.7,4.6-1.4,6.8-2.1c1.4-1.4,3.2-1.6,5-1.8c1.1,0.1,2.1,0.3,2.8-0.8c0.9-1,2.2-0.6,3.2-1.1
			c2.4-0.1,4.7-0.7,6.8-1.9c0.9-1,2.2-0.6,3.2-1.1c3.2-0.4,6.4-0.9,9-3c1.5-0.7,3.2-0.9,4.9-1.2c2,0.3,3.6-0.7,5.1-1.8
			c1.5-0.7,3.2-0.9,4.9-1.2c7.3-2,14.7-4,22-6.1c8.7-2.6,17.4-5.3,26.1-8c1.4-1.4,3.2-1.6,5-1.8c1,0.1,2.1,0.3,2.8-0.8
			c0.9-1,2.2-0.6,3.2-1.1c2.4-0.1,4.7-0.7,6.8-1.9c0.9-1,2.2-0.6,3.2-1.1c3.2-0.4,6.3-1,9-3c1.5-0.7,3.2-0.9,4.9-1.2
			c2,0.3,3.6-0.7,5.1-1.8C495.6,480.3,497.3,480.1,499,479.9z"/>
		<path class="st91" d="M875.3,521.7c-56,0-112,0-168,0c0-0.2,0-0.3,0-0.5c56,0,112,0,168,0C875.3,521.4,875.3,521.5,875.3,521.7z"
			/>
		<path class="st92" d="M423.9,523.9c7-1.1,14.1-1.1,21.2-0.8c0,0.2,0,0.4,0.1,0.7c-3.4,0.1-6.8,0.1-10.2,0.2
			C431.2,524.7,427.6,524.9,423.9,523.9z"/>
		<path class="st92" d="M382,524.9c7-0.9,14-1,21.1-0.7c0.3,0.2,0.4,0.3,0.3,0.5c-0.1,0.2-0.2,0.3-0.3,0.3
			c-3.7,0.1-7.5,0.1-11.2,0.2c-3,0.8-6.1,0.3-9.2,0.3C382.4,525.2,382.2,525.1,382,524.9z"/>
		<path class="st93" d="M467,522.9c7-1.1,14-1.1,21.1-0.8c0.3,0.2,0.4,0.3,0.3,0.5c-0.1,0.2-0.2,0.3-0.3,0.3
			c-3.8,0.1-7.5,0.1-11.3,0.2c-3,0.8-6.1,0.3-9.2,0.3C467.4,523.3,467.2,523.1,467,522.9z"/>
		<path class="st94" d="M352.1,524c0,0.3,0,0.5,0,0.8c0.5,0.4,0.5,0.8-0.1,1.1c-2.4,0.2-4.8,0.3-7.7,0.5c0.6-2.1,1.4-3.6,3.2-4.3
			c-0.8,2.6,1.1,0.4,1.5,0.9C350.1,523.1,351.2,523.2,352.1,524z"/>
		<path class="st95" d="M538.1,470c-0.3-0.7,0.2-1.8-1.1-1.9c1.9-2,4.5-1.9,6.9-2.2C542,467.2,540.1,468.6,538.1,470z"/>
		<path class="st96" d="M445.1,523.9c0-0.2-0.1-0.4-0.1-0.7c3.6,0,7.3,0,10.9,0c0,0.2,0,0.4-0.1,0.7
			C452.3,523.8,448.7,523.8,445.1,523.9z"/>
		<path class="st96" d="M403,524.9c0-0.3,0-0.5,0-0.8c3.7,0,7.3,0,11,0C410.5,525.9,406.7,524.6,403,524.9z"/>
		<path class="st97" d="M455.9,523.8c0-0.2,0-0.4,0.1-0.7c3.7-0.1,7.3-0.2,11-0.2c0,0,0,0.2,0,0.2c0.3,0.2,0.4,0.4,0.3,0.5
			c-0.1,0.2-0.2,0.2-0.4,0.2C463.3,523.9,459.6,523.9,455.9,523.8z"/>
		<path class="st98" d="M423.9,523.9c3.7,0,7.3,0.1,11,0.1c-3.5,2.1-7.3,0.5-10.9,0.9c-0.3-0.2-0.4-0.4-0.3-0.7
			C423.8,524.1,423.9,524,423.9,523.9L423.9,523.9z"/>
		<path class="st96" d="M360.1,525.2c3.7,0,7.3,0,11,0c-3.5,1.8-7.3,0.5-11,0.7c-0.4-0.1-0.5-0.2-0.4-0.4
			C359.8,525.3,359.9,525.2,360.1,525.2z"/>
		<path class="st96" d="M488.1,522.9c0-0.2,0-0.5,0-0.7c3.7,0,7.3,0,11,0C495.5,523.9,491.7,522.7,488.1,522.9z"/>
		<path class="st99" d="M832.7,379c2.9-1.7,6.1-2.6,9.4-2.9C839.4,378.3,836.2,379.1,832.7,379z"/>
		<path class="st19" d="M466.9,524c0-0.3,0.1-0.5,0-0.8c3.3,0,6.6-0.1,9.8-0.1C473.7,525,470.2,523.6,466.9,524z"/>
		<path class="st100" d="M371.9,525.1c3.3-0.1,6.7-0.1,10-0.2c0,0,0,0.2,0,0.2c0.3,0.2,0.4,0.4,0.3,0.6c-0.1,0.2-0.2,0.2-0.4,0.2
			C378.6,525.7,375.1,526.9,371.9,525.1z"/>
		<path class="st101" d="M499.9,522.1c3,0,6.1-0.1,9.1-0.1C506,523.8,503,523.4,499.9,522.1z"/>
		<path class="st19" d="M381.9,525.9c0-0.3,0.1-0.5,0.1-0.8c3.3,0,6.6,0,9.8-0.1C388.7,527,385.2,525.6,381.9,525.9z"/>
		<path class="st102" d="M844.9,375.1c2.3-1.1,4.6-2,7.2-2.1C850,374.6,847.8,376.2,844.9,375.1z"/>
		<path class="st103" d="M424,524c0,0.3,0,0.6,0,1c-3-0.3-6.1,1-9-0.9C418,524.1,421,524,424,524z"/>
		<path class="st102" d="M575.9,456.1c2.3-1.1,4.6-2,7.2-2.1C581,455.6,578.8,457.2,575.9,456.1z"/>
		<path class="st104" d="M565.9,459.1c2.3-1.1,4.6-2,7.2-2.1C571,458.6,568.8,460.2,565.9,459.1z"/>
		<path class="st105" d="M360.1,525.2c0,0.2,0,0.4,0.1,0.7c-2.7,0-5.4,0.1-8.2,0.1c0-0.4,0.1-0.7,0.1-1.1
			C354.8,525,357.4,525.1,360.1,525.2z"/>
		<path class="st106" d="M665,429.9c-1.1,0.9-2.4,1.2-3.8,1.3c-0.4-0.1-0.9-0.2-1.3-0.3C661.4,430,663,428.9,665,429.9z"/>
		<path class="st107" d="M713.2,258.1c-0.6-1-1.1-2.1-1.7-3.1C713,255.5,714.7,255.9,713.2,258.1z"/>
		<path class="st108" d="M786.9,395.2c-1.1-1-2.3-1.4-3.8-1.2c1-1.6,2.5-0.9,3.9-0.9C787,393.8,786.9,394.5,786.9,395.2z"/>
		<path class="st107" d="M646.2,151.1c-0.6-1-1.2-2.1-1.7-3.1C646,148.5,647.7,148.9,646.2,151.1z"/>
		<path class="st107" d="M641.2,143.1c-0.6-1-1.2-2-1.8-3C641,140.4,642.6,140.8,641.2,143.1z"/>
		<path class="st1" d="M540.1,347.8c10.6-23.5,21.3-47,31.9-70.5c7.7-17,15.3-34,23.1-50.9c0.7-1.6,0.7-4.5,3.4-4.2
			c2.2,0.2,1.8,2.8,2.7,4.1c4.4,6.4,7.9,13.3,11.6,20c10.9,19.5,22,38.8,32.6,58.4c3.6,6.7,8.4,12.8,10.5,20.2
			c-6.5,6.1-14.5,10-21.9,14.9c-4.1,2.7-8.2,5.3-12.3,8c-1.6,0-3.2,0-4.8-0.4c-3.4,0-6.8,0-10.2,0c-4,1-8.2,0-12.2,0.9
			c-4.2,0.1-8.3,0-12.5,0.1c-4.1,0.2-8.2-0.4-12.3,0.4l-0.4,0.2l-0.4-0.1c-3.7-0.8-7.3-0.4-11-0.2c-3.9,0.8-8-0.1-11.9,0.6
			C544,349.2,541.6,350.6,540.1,347.8z"/>
		<path class="st109" d="M618.1,347.2c1.3,0,2.8-0.8,3.9,0.7c-1.3,0.6-2.3,1.9-4,1.1c0.1-0.3,0.1-0.6,0-0.9
			c-0.4-0.2-0.5-0.5-0.3-0.6C617.8,347.3,618,347.2,618.1,347.2z"/>
		<path class="st110" d="M459,491.9c-1.4,1.3-3.4,1-5,1.8C455,491.3,456.8,491,459,491.9z"/>
		<path class="st110" d="M522,472.9c-1.3,1.4-3.3,1.1-4.9,1.8C518,472.3,519.8,472.1,522,472.9z"/>
		<path class="st111" d="M352.1,524c-1.1-0.1-2.3,0.2-3.1-1c0.3-1,1.1-1,1.9-0.9c0.6,1.5,2.5,0.4,3.2,1.7
			C353.5,523.9,352.8,524,352.1,524z"/>
		<path class="st110" d="M366,519.9c-1.4,1.3-3.4,1-5,1.8C362,519.3,363.8,519,366,519.9z"/>
		<path class="st112" d="M758,401.9c-1.4,1.3-3.2,1.1-4.9,1.2C754.5,401.8,756,400.9,758,401.9z"/>
		<path class="st112" d="M768,398.9c-1.4,1.3-3.2,1.1-4.9,1.2C764.5,398.9,766,397.7,768,398.9z"/>
		<path class="st113" d="M406,507.9c-1.4,1.3-3.2,1.1-4.9,1.2C402.5,507.8,404,506.8,406,507.9z"/>
		<path class="st113" d="M489,482.9c-1.4,1.3-3.2,1.1-4.9,1.2C485.5,482.8,487,481.8,489,482.9z"/>
		<path class="st113" d="M499,479.9c-1.4,1.3-3.2,1.1-4.9,1.2C495.5,479.9,496.9,478.7,499,479.9z"/>
		<path class="st112" d="M675,426.9c-1.4,1.3-3.2,1.1-4.9,1.2C671.5,426.8,673,425.9,675,426.9z"/>
		<path class="st114" d="M684.9,423.9c-1.4,1.2-3.1,1.2-4.9,1.2C681.5,423.8,683,422.9,684.9,423.9z"/>
		<path class="st113" d="M396,510.9c-1.4,1.3-3.2,1.1-4.9,1.2C392.5,510.8,394,509.8,396,510.9z"/>
		<path class="st115" d="M465,490.1c-0.8,1.3-2.1,0.9-3.2,1.1C462.4,489.4,463.6,489.2,465,490.1z"/>
		<path class="st115" d="M475.1,487.1c-0.8,1.3-2.1,0.9-3.2,1.1C472.5,486.5,473.5,486.1,475.1,487.1z"/>
		<path class="st116" d="M744,406c-0.7,1.4-2.1,0.9-3.2,1.1c0-2.4,2.4-0.8,3.2-1.9c0.3,0.2,0.4,0.4,0.3,0.6
			C744.2,405.9,744.1,406,744,406z"/>
		<path class="st117" d="M707.6,417c-1.2,1.4-3.1,1-4.5,1.7C703.7,415.9,705.9,417.2,707.6,417z"/>
		<path class="st115" d="M372,518.1c-0.8,1.3-2.1,0.9-3.2,1.1C369.4,517.4,370.6,517.2,372,518.1z"/>
		<path class="st118" d="M744,406c0-0.3,0-0.6,0-0.8c1.3,0.2,2.5-1.7,3.9-0.3C746.8,405.8,745.5,406.2,744,406z"/>
		<path class="st116" d="M734,409.1c-0.7,1.3-2.1,0.9-3.2,1.1C731.4,408.3,732.6,408.3,734,409.1z"/>
		<path class="st115" d="M382,515.1c-0.8,1.3-2.1,0.9-3.2,1.1C379.4,514.4,380.6,514.2,382,515.1z"/>
		<path class="st117" d="M727.3,411.1c-1.1,1.4-3,0.8-4.3,1.6C723.6,410.1,725.7,411.1,727.3,411.1z"/>
		<path class="st90" d="M202.9,745.9c-18.2,0-35.9,0-54.2,0c9-25,17.8-49.8,27.1-75.7C185,695.9,193.9,720.8,202.9,745.9z"/>
		<path class="st90" d="M884.9,744.6c0,14.4,0.4,27.8-0.1,41.3c-0.5,14.6-11.9,27.3-25.7,29.7c-8.6,1.5-14.3-1.9-16.3-10.4
			c-2.7-11.6-2.9-23.4,0.2-35c3.2-11.8,10.5-17.6,22.6-19.1C872.2,750.2,879,750.2,884.9,744.6z"/>
		<path class="st0" d="M826.3,843.4c0-0.8,0-1.7,0-2.5c-0.2-9.2,0.3-9.6,9.6-8.9c9.8,0.7,14.1,8.7,9.3,17.3
			c-2.5,4.4-13.5,7.7-17.9,5.5c-1.4-0.7-1.1-1.9-1.1-3c-0.1-2.8,0-5.6,0-8.5C826.2,843.4,826.3,843.4,826.3,843.4z"/>
		<path class="st0" d="M910.8,867.4c0.4-3.5,0.7-6.9,1.2-10.4c0.6-3.8,2.8-6.4,6.7-7c3.8-0.6,7,1.1,8.7,4.5
			c3.4,6.7,3.8,13.7,0.6,20.6c-2.2,4.7-6.3,6.8-10.4,5.6c-4.6-1.3-6.7-4.6-6.6-9.3c0-1.3,0-2.7,0-4
			C910.9,867.5,910.8,867.4,910.8,867.4z"/>
		<path class="st119" d="M780.9,913.8c2.2-7.1,4.7-13.8,8.3-21.2c2.9,7.6,5.5,14.2,8.2,21.2C791.6,913.8,786.4,913.8,780.9,913.8z"
			/>
		<path class="st90" d="M916.2,920.3c-0.1,8.3-4.6,14.7-10.4,14.7c-5.7,0-10.3-6-10.7-14.1c-0.2-4.4,0.4-8.7,2.8-12.4
			c3.9-5.9,10.6-6.1,14.9-0.4C915.2,911.3,916.2,915.1,916.2,920.3z"/>
		<path class="st0" d="M1111,942.8c1-0.6,2-1.1,3.1-1.7c5.1-1.2,10.1-1.8,15.2-0.5c2.3,0.6,4.6,1.3,5.1,4.1c0.5,2.8-1.1,4.7-3.1,6.3
			c-4.7,3.6-15.5,4.2-20.4,1.1C1107,949.8,1107.1,946.9,1111,942.8z"/>
		<path class="st120" d="M723.4,861.7c0.3-4,1.4-7.5,4.7-10c3.5-2.7,7.4-2.2,10,1.2c1.5,1.9,2.5,4.1,1.6,6.4c-1,2.7-3.5,2.6-5.9,2.6
			c-3,0-6,0-8.9,0C724.4,862,723.9,861.8,723.4,861.7z"/>
		<path class="st120" d="M571.1,862c-2.2-0.5-5.8,1.3-6.5-1.1c-0.8-2.6,0.9-5.8,3.1-8c2.2-2.2,4.7-3.8,8-2.4
			c3.6,1.5,5.6,4.3,5.1,8.2c-0.5,3.8-3.9,3.3-6.7,3.4C573.1,862,572.1,862,571.1,862z"/>
		<path class="st119" d="M1111.9,914.1c0.1-1,0.1-2.4,0.4-3.6c1-3.6,3-6.5,7.1-6.4c3.9,0.1,5.8,2.8,6.6,6.3c0.6,2.4,0.8,4.9,0.3,7.4
			c-0.8,3.9-2.5,7.3-6.9,7.1c-4.4-0.2-6.7-3.2-7.4-7.4C1111.9,916.5,1112,915.5,1111.9,914.1z"/>
		<path class="st121" d="M582,348.1c4.4,0,8.8-0.1,13.2-0.2c3.7-0.5,7.4-0.9,11.1,0.3c-8.1,0.8-16.2,1-24.4,0.7
			c-0.3-0.2-0.4-0.4-0.3-0.6C581.8,348.1,581.9,348.1,582,348.1z"/>
		<path class="st122" d="M540.1,347.8c1.8,1.6,3.9,1.1,6,1.1c3.7-0.9,7.5-0.3,11.2-0.4c0.2,0.2,0.5,0.3,0.7,0.5
			c-5.4,1.2-10.9,0.4-16.3,0.9C540.1,350.1,539.8,349.2,540.1,347.8z"/>
		<path class="st123" d="M606.3,348.2c-3.7-0.1-7.4-0.2-11.1-0.3c3.8-1.9,7.9-0.4,11.8-0.9c0.3,0.2,0.4,0.4,0.3,0.7
			c-0.1,0.2-0.2,0.3-0.3,0.3l-0.3,0.3L606.3,348.2z"/>
		<path class="st124" d="M582,348.1c0,0.3,0,0.5,0,0.8c-4,0-8,0-12,0C573.9,347.1,578,348.4,582,348.1z"/>
		<path class="st125" d="M607,348c0-0.3,0-0.6,0-1c3.7,0.1,7.4,0.1,11.1,0.2c0,0.3,0,0.6-0.1,0.9C614.3,348.1,610.7,348,607,348z"/>
		<path class="st126" d="M558.1,348.1c3.7,0.3,7.4-1.1,11,0.8c-3.7,0.1-7.3,0.1-11,0.2c0,0,0-0.2,0-0.2c-0.3-0.2-0.4-0.4-0.3-0.6
			C557.8,348.2,558,348.1,558.1,348.1z"/>
		<path class="st127" d="M558.1,348.1c0,0.3-0.1,0.5-0.1,0.8c-4,0-7.9,0.1-11.9,0.1C550,347,554.1,348.4,558.1,348.1z"/>
	</g>
</g>
</svg>
