<?xml version="1.0" encoding="utf-8"?>
<!-- Generator: Adobe Illustrator 22.1.0, SVG Export Plug-In . SVG Version: 6.00 Build 0)  -->
<svg version="1.1" id="Layer_1" xmlns="http://www.w3.org/2000/svg" xmlns:xlink="http://www.w3.org/1999/xlink" x="0px" y="0px"
	 viewBox="0 0 1280 1024" style="enable-background:new 0 0 1280 1024;" xml:space="preserve">
<style type="text/css">
	.st0{fill:#283592;}
	.st1{fill:#FEFEFE;}
	.st2{fill:#38449A;}
	.st3{fill:#354199;}
	.st4{fill:#848CC1;}
	.st5{fill:#838BC0;}
	.st6{fill:#5A64AC;}
	.st7{fill:#7D84BD;}
	.st8{fill:#8B92C4;}
	.st9{fill:#727AB8;}
	.st10{fill:#8A91C4;}
	.st11{fill:#717AB7;}
	.st12{fill:#5968DB;}
	.st13{fill:#253294;}
	.st14{fill:#5D6AD3;}
	.st15{fill:#1F319F;}
	.st16{fill:#213097;}
	.st17{fill:#142596;}
	.st18{fill:#1C2B92;}
	.st19{fill:#13218B;}
	.st20{fill:#1B298C;}
	.st21{fill:#1B298E;}
	.st22{fill:#283593;}
	.st23{fill:#030304;}
	.st24{fill:none;}
	.st25{fill:none;stroke:#FFFFFF;stroke-width:10;}
</style>
<g>
	<g>
		<path class="st0" d="M660,1014c-12,0-24,0-36,0c-1.7-1.7-3.9-0.8-5.8-1c-1.2,0-2.4,0-3.7,0c-1.6,0.1-3.3-0.3-4.5,1
			c-3.3,0-6.7,0-10,0c-21-2.6-42.2-3.7-63-8.3c-85-18.7-160.2-56.4-225.9-113.6C252,840.7,207.9,778.5,177.6,706.6
			c-16.6-39.4-28-80.5-33.2-123c-1.1-9.1-0.3-18.5-2.4-27.6c0-3.3,0-6.7,0-10c1.5-2,1.5-4,0-6c0-3.3,0-6.7,0-10c1.6-4,1.6-8,0-12
			c0-2.7,0-5.3,0-8c1.6-4,1.6-8,0-12c0-3.3,0-6.7,0-10c1.3-1.3,1.3-2.7,0-4c0-4,0-8,0-12c2.8-18.3,3-36.9,6.7-55.2
			c17.9-88.5,56.3-166.6,115.9-234.4c69.6-79.2,155.9-130.9,257.8-156.7c24.9-6.3,50.1-10.5,75.9-10.6c1.3,0,2.7,0,3.7-1
			c2.7,0,5.3,0,8,0c1.3,1.4,3,0.9,4.5,1c1.2,0,2.4,0,3.7,0c2-0.2,4.1,0.7,5.8-1c12,0,24,0,36,0c1.7,1.7,3.9,0.8,5.8,1
			c1.2,0,2.4,0,3.7,0c1.6-0.1,3.3,0.3,4.5-1c2.7,0,5.3,0,8,0c23.4,2.3,46.8,4,69.9,9.3C834.6,42.5,908,79.5,972.2,135.2
			c53.7,46.5,95.1,102.2,125.3,166.2c21.6,45.8,36,93.8,42.2,144.1c1.2,9.5,0.5,19.1,2.3,28.6c0,2.7,0,5.3,0,8c-1.5,2-1.5,4,0,6
			c0,2.7,0,5.3,0,8c-1.6,4-1.6,8,0,12c0,4,0,8,0,12c-1.6,4-1.6,8,0,12c0,2.7,0,5.3,0,8c-1.3,1.3-1.3,2.7,0,4c0,4,0,8,0,12
			c-2.2,25.4-5,50.8-11.1,75.7c-19.9,80.3-56.7,151.7-111.4,213.9c-69.7,79.1-155.9,130.9-257.9,156.7
			c-24.9,6.3-50.1,10.5-75.9,10.6c-1.3,0-2.7,0-3.7,1c-2.7,0-5.3,0-8,0c-1.3-1.4-3-0.9-4.5-1c-1.2,0-2.4,0-3.7,0
			C663.9,1013.2,661.7,1012.3,660,1014z"/>
		<path class="st1" d="M602,14c-11.1,4.6-23.2,3.9-34.7,5.5C366.8,47.9,196.4,206.3,154.1,404c-4.5,20.8-7.8,41.8-10,63
			c-0.2,1.8,0.5,4.1-2.1,5c0-149.8,0.1-299.7-0.2-449.5c0-7.2,1.5-8.7,8.7-8.7C301,14.1,451.5,14,602,14z"/>
		<path class="st1" d="M1142,474c-4.3-10.5-3.6-21.9-5.4-32.8c-29-173.5-122.8-299.5-279.4-378.4C803.9,35.9,746.6,21.4,687,16
			c-1.8-0.2-4.1,0.6-5-2c150.7,0,301.3,0.1,452-0.2c6.8,0,8.2,1.3,8.2,8.2C1141.9,172.7,1142,323.3,1142,474z"/>
		<path class="st1" d="M682,1014c11.1-4.5,23.2-3.9,34.8-5.5c201.4-28.5,371.1-187,413.5-386.4c4.2-19.9,7.3-39.9,9.6-60.1
			c0.2-2.1-0.9-4.8,2.1-6c0,150-0.1,300,0.2,450c0,6.8-1.3,8.2-8.2,8.2C983.3,1013.9,832.7,1014,682,1014z"/>
		<path class="st1" d="M142,556c4.6,10.1,3.6,21.2,5.5,31.7c35,195.4,145.6,328.2,330.9,398.6c37.2,14.1,76.1,21.3,115.6,25.5
			c2.1,0.2,4.8-0.9,6,2.1c-150,0-300-0.1-450,0.2c-6.8,0-8.2-1.3-8.2-8.2C142.1,856,142,706,142,556z"/>
		<path class="st2" d="M1142,508c-3-4-3.1-8,0-12C1142,500,1142,504,1142,508z"/>
		<path class="st3" d="M142,498c3,4,3,8,0,12C142,506,142,502,142,498z"/>
		<path class="st3" d="M142,518c3,4,3,8,0,12C142,526,142,522,142,518z"/>
		<path class="st2" d="M1142,532c-3.1-4-3-8,0-12C1142,524,1142,528,1142,532z"/>
		<path class="st4" d="M1142,488c-2.4-2-3-4,0-6C1142,484,1142,486,1142,488z"/>
		<path class="st5" d="M142,540c2.4,2,3,4,0,6C142,544,142,542,142,540z"/>
		<path class="st6" d="M666.1,15.9c-2.2,0.1-4.6,0.5-6.1-1.9c2,0,4,0,6,0c0.7,0.4,0.9,0.8,0.7,1.2C666.5,15.6,666.3,15.9,666.1,15.9
			z"/>
		<path class="st6" d="M624,14c-1.5,2.4-3.8,2-6.1,1.8c-0.6-0.4-0.8-0.8-0.6-1.2c0.2-0.4,0.4-0.6,0.7-0.6C620,14,622,14,624,14z"/>
		<path class="st6" d="M617.9,1012.1c2.2-0.1,4.6-0.5,6.1,1.9c-2,0-4,0-6,0c-0.7-0.4-0.9-0.8-0.7-1.2
			C617.5,1012.4,617.7,1012.1,617.9,1012.1z"/>
		<path class="st6" d="M660,1014c1.5-2.4,3.8-2,6.1-1.8c0.6,0.4,0.8,0.8,0.6,1.2c-0.2,0.4-0.4,0.6-0.7,0.6
			C664,1014,662,1014,660,1014z"/>
		<path class="st7" d="M142,484c2.5,1.3,2.1,2.7,0,4C142,486.7,142,485.3,142,484z"/>
		<path class="st7" d="M1142,544c-2.5-1.3-2.1-2.7,0-4C1142,541.3,1142,542.7,1142,544z"/>
		<path class="st8" d="M674,14c-0.6,2-2.3,1.9-3.9,1.8c-0.7-0.4-1-0.7-0.8-1.1c0.2-0.4,0.4-0.6,0.7-0.6C671.3,14,672.7,14,674,14z"
			/>
		<path class="st9" d="M670,14c0,0.6,0,1.2,0.1,1.8c-1.3,0-2.7,0.1-4,0.1c0-0.6-0.1-1.2-0.1-1.9C667.3,14,668.7,14,670,14z"/>
		<path class="st9" d="M618,14c0,0.6,0,1.2-0.1,1.8c-1.3,0-2.7-0.1-4-0.1c-0.6-0.4-0.8-0.8-0.5-1.2c0.2-0.4,0.4-0.5,0.6-0.5
			C615.3,14,616.7,14,618,14z"/>
		<path class="st8" d="M614,14c0,0.6,0,1.1-0.1,1.7c-1.6,0.2-3.2,0.3-3.9-1.7C611.3,14,612.7,14,614,14z"/>
		<path class="st10" d="M610,1014c0.6-2,2.3-1.9,3.9-1.8c0.7,0.4,1,0.7,0.7,1.1c-0.2,0.4-0.4,0.6-0.7,0.6
			C612.7,1014,611.3,1014,610,1014z"/>
		<path class="st11" d="M614,1014c0-0.6,0-1.2-0.1-1.8c1.3,0,2.7-0.1,4-0.1c0,0.6,0.1,1.2,0.1,1.9C616.7,1014,615.3,1014,614,1014z"
			/>
		<path class="st11" d="M666,1014c0-0.6,0-1.2,0.1-1.8c1.3,0,2.7,0.1,4,0.1c0.6,0.4,0.8,0.8,0.5,1.2c-0.2,0.4-0.4,0.5-0.6,0.5
			C668.7,1014,667.3,1014,666,1014z"/>
		<path class="st10" d="M670,1014c0-0.6,0-1.1,0.1-1.7c1.6-0.2,3.2-0.3,3.9,1.7C672.7,1014,671.3,1014,670,1014z"/>
		<path class="st12" d="M638.1,50c254.3,0.4,460.1,205.7,459.9,460.6c-0.3,254-205.9,459.9-461,459.4
			c-253.8-0.5-459.2-206-458.9-460.5C178.4,255.5,383.6,50.4,638.1,50z"/>
		<path class="st0" d="M919.6,655.8c0,20.1,0.1,40.1,0.1,60.2c-4.1,3.2-9,2-13.5,2c-98,0.1-196.1,0.1-294.1,0.1
			c-69.5,0-138.9,0-208.4-0.1c-4.5,0-9.4,1.2-13.5-1.9c-0.1-90.3-0.2-180.5-0.2-270.8c0-34.6,0.2-69.3-0.2-103.9
			c-0.1-7.6,2.3-9.7,9.7-9.4c14.6,0.5,29.3-0.1,44,0.3c6.4,0.2,8.6-1.7,8.7-8.4c0.1-19.7,0.4-19.7,19.9-19.7
			c81.6,0,163.2-0.1,244.8,0.2c6.9,0,11.9-2,16.5-6.9c10.2-10.8,20.8-21.3,31.3-31.9c3.6-3.7,7.8-5.5,13.3-5.5
			c30.6,0.3,61.3,0.2,91.9,0c5.1,0,8.7,1.5,12.2,5.1c9.4,9.9,19,19.7,29,28.9c6.6,6.2,9.7,13.2,8.7,22.1c-1.3,2.5-0.8,5.2-0.8,7.9
			c0,108.3,0,216.6,0,324.9C919,651.2,918.7,653.6,919.6,655.8z"/>
		<path class="st13" d="M390.2,716c73.9,0,147.8,0,221.8,0c3.4,1.9,7.2,1,10.8,1c95.4,0.1,190.8,0,286.2,0.1c3.6,0,7.3-0.9,10.8,0.9
			c-2.5,3.3-6.2,1.9-9.3,1.9C740.2,720,570,720,399.7,719.8C396.4,719.8,391.2,722.7,390.2,716z"/>
		<path class="st14" d="M928.5,717.6c0-132.4,0-264.9,0-397.3c0.3,0,0.7,0,1,0c0,132.4,0,264.8,0,397.2
			C929.1,717.4,928.8,717.5,928.5,717.6z"/>
		<path class="st15" d="M919.6,655.8c-2.8-3.2-1.6-7-1.6-10.6c-0.1-106.2-0.1-212.5,0-318.7c0-3.5-1.3-7.4,1.7-10.5
			C919.7,429.3,919.7,542.6,919.6,655.8z"/>
		<path class="st16" d="M919.7,718c-98.8,0-197.6,0-296.4-0.1c-3.8,0-8.1,1.5-11.4-1.9c102.6,0,205.1,0,307.7,0
			C919.7,716.7,919.7,717.3,919.7,718z"/>
		<path class="st1" d="M642.4,656.6c-29.3,0-58.6,0-88,0c-13,0-13,0-13-12.5c0-41.7,0-83.3,0-125c0-13.8,1.8-15.7,15.1-15.7
			c22.8,0,22.8,0,22.8-22.4c0-13,0.3-26-0.1-39c-0.6-22.7,12.7-36,30.5-46.6c16.2-9.7,34.2-7.1,51.1-5.3
			c11.9,1.2,21.9,10.8,30.8,19.7c12.4,12.4,16,27.4,15.1,44.5c-0.7,14.3,0,28.7-0.2,43c-0.1,4.8,1.3,6.5,6.2,6.2
			c6.6-0.4,13.4,0.3,20-0.2c8.4-0.7,11.8,3.9,11.8,11c0.2,45,0.1,90,0.1,135c0,7.6-5,7.3-10.2,7.3
			C703.7,656.6,673.1,656.6,642.4,656.6z"/>
		<path class="st17" d="M546.7,658.4c63.5,0,127,0,190.6,0c0,0.3,0,0.6,0,0.9c-63.6,0-127.3,0-190.9,0
			C546.5,659,546.6,658.7,546.7,658.4z"/>
		<path class="st18" d="M747.5,510.7c0,47,0,94.1,0,141.1c-0.3,0-0.6,0-1,0c0-47.1,0-94.2,0-141.4
			C746.8,510.5,747.2,510.6,747.5,510.7z"/>
		<ellipse class="st19" cx="539" cy="580.9" rx="0.6" ry="99.9"/>
		<path class="st20" d="M577.4,460.6c0,13.1,0,26.2,0,39.2c-0.3,0-0.6,0-0.9,0c0-13.1,0-26.2,0-39.3
			C576.8,460.5,577.1,460.5,577.4,460.6z"/>
		<path class="st21" d="M576.4,451c0-6.2,0-12.4,0-18.6C578.3,438.9,578.1,445.4,576.4,451z"/>
		<path class="st22" d="M643,507.4c-10,0-20-0.2-30,0.1c-4.3,0.1-6.7-0.5-6.6-5.8c0.4-19,0-38,0.8-56.9c0.5-13.4,14-25.6,27.1-27.6
			c27-4.1,45.3,14,43.5,39.2c-1.1,15.6-0.2,31.3,0.5,46.9c0.2,4.4-1.5,4.1-4.3,4.1C663.7,507.4,653.4,507.4,643,507.4z"/>
		<path class="st23" d="M633.2,603.3c1.7-6.4,0.5-12.7-5.1-19c-4.9-5.5-2.7-16.6,2.6-20.9c5.9-4.9,16.5-5.1,22.3,0
			c6.2,5.6,8.3,13.7,3.2,19.7c-7.7,9-6.6,18.4-5.1,28.1c1.3,8.2-1,11.2-9.6,11.5c-9.2,0.3-9.7-4.5-8.9-11.2
			C632.8,609.2,632.9,606.8,633.2,603.3z"/>
	</g>
</g>
<circle class="st24" cx="640" cy="512" r="500"/>
<circle class="st25" cx="640" cy="512" r="500"/>
</svg>
