<?xml version="1.0" encoding="utf-8"?>
<!-- Generator: Adobe Illustrator 22.1.0, SVG Export Plug-In . SVG Version: 6.00 Build 0)  -->
<svg version="1.1" id="Layer_1" xmlns="http://www.w3.org/2000/svg" xmlns:xlink="http://www.w3.org/1999/xlink" x="0px" y="0px"
	 viewBox="0 0 1280 1024" style="enable-background:new 0 0 1280 1024;" xml:space="preserve">
<style type="text/css">
	.st0{fill:#283592;}
	.st1{fill:#FEFEFE;}
	.st2{fill:#38449A;}
	.st3{fill:#354199;}
	.st4{fill:#5A64AC;}
	.st5{fill:#848CC1;}
	.st6{fill:#838BC0;}
	.st7{fill:#8B92C4;}
	.st8{fill:#727AB8;}
	.st9{fill:#7D84BD;}
	.st10{fill:#8A91C4;}
	.st11{fill:#717AB7;}
	.st12{fill:#5968DB;}
	.st13{fill:#2A3794;}
	.st14{fill:#2B3894;}
	.st15{fill:#2D3A95;}
	.st16{fill:none;stroke:#FFFFFF;stroke-width:10;stroke-miterlimit:10;}
</style>
<g>
	<g>
		<path class="st0" d="M142,518c0-2.7,0-5.3,0-8c1.6-4,1.6-8,0-12c0-3.3,0-6.7,0-10c1.2-1.3,1.2-2.7,0-4c0-4,0-8,0-12
			c2.4-14.1,1.9-28.4,3.4-42.5c3.2-31,12.4-60.6,22.9-89.7c19.6-54.7,48.8-104.2,85.9-148.8c38.2-45.9,83.4-83.9,135.2-113.8
			c48.5-28.1,100.2-47.8,155.4-58.1c16.7-3.1,33.7-2.7,50.6-4.2c2.3-0.2,4.7,0.7,6.7-1c2.7,0,5.3,0,8,0c1.3,1.4,3,0.9,4.5,1
			c1.2,0,2.4,0,3.7,0c2-0.2,4.1,0.7,5.8-1c12,0,24,0,36,0c1.7,1.7,3.9,0.8,5.8,1c1.2,0,2.4,0,3.6,0c1.6-0.1,3.3,0.4,4.5-1
			c2.7,0,5.3,0,8,0c14.7,2.2,29.7,1.8,44.5,3.4c31,3.2,60.6,12.4,89.7,22.9C870.9,60,920.4,89.1,965,126.2
			c45.9,38.2,83.9,83.4,113.8,135.2c28,48.6,48,100.1,58.1,155.4c3,16.7,2.7,33.7,4.1,50.6c0.2,2.3-0.7,4.7,1,6.7c0,2.7,0,5.3,0,8
			c-1.5,2-1.5,4,0,6c0,2.7,0,5.3,0,8c-1.6,4-1.6,8,0,12c0,4,0,8,0,12c-1.6,4-1.6,8,0,12c0,2.7,0,5.3,0,8c-1.2,1.3-1.2,2.7,0,4
			c0,4,0,8,0,12c-2.4,14.1-1.9,28.4-3.4,42.5c-3.3,31-12.3,60.6-22.9,89.7c-19.8,54.7-48.9,104.2-85.9,148.8
			c-38.2,45.9-83.4,83.9-135.2,113.8c-48.5,28.1-100.2,47.8-155.4,58.1c-16.7,3.1-33.7,2.7-50.6,4.2c-2.3,0.2-4.7-0.7-6.7,1
			c-2.7,0-5.3,0-8,0c-1.3-1.4-3-0.9-4.5-1c-1.2,0-2.4,0-3.7,0c-2,0.2-4.1-0.7-5.8,1c-12,0-24,0-36,0c-1.7-1.7-3.9-0.8-5.8-1
			c-1.2,0-2.4,0-3.6,0c-1.6,0.1-3.3-0.4-4.5,1c-3.3,0-6.7,0-10,0c-14.1-2.4-28.4-1.9-42.5-3.4c-31-3.2-60.6-12.4-89.7-22.9
			C413.1,968,363.6,938.9,319,901.8c-45.9-38.2-83.9-83.4-113.8-135.2c-28.1-48.5-47.8-100.2-58-155.4c-3.1-16.7-2.7-33.7-4.1-50.6
			c-0.1-1.6,0.3-3.3-1-4.7c0-3.3,0-6.7,0-10c1.5-2,1.5-4,0-6c0-3.3,0-6.7,0-10C143.6,526,143.6,522,142,518z"/>
		<path class="st1" d="M602,14c-11.1,4.6-23.2,3.9-34.8,5.5C366.4,48.2,196.7,206,154.1,404c-4.4,20.5-7.6,41.2-10,62
			c-0.2,2.1,0.9,4.8-2.1,6c0-149.8,0.1-299.7-0.2-449.5c0-7.2,1.5-8.7,8.7-8.7C301,14.1,451.5,14,602,14z"/>
		<path class="st1" d="M1142,474c-4.2-10.5-3.5-21.9-5.4-32.8C1104.5,255,1001.1,124.8,828,50c-44.9-19.4-92.3-29.6-141-34
			c-1.8-0.2-4.1,0.6-5-2c150.7,0,301.3,0.1,452-0.2c6.8,0,8.2,1.3,8.2,8.2C1141.9,172.7,1142,323.3,1142,474z"/>
		<path class="st1" d="M142,556c4.6,10.1,3.6,21.2,5.5,31.7c36.4,200.7,151.1,334.8,343.2,402.7c33.7,11.9,68.8,17.8,104.3,21.5
			c1.8,0.2,4.1-0.5,5,2.1c-150,0-300-0.1-450,0.2c-6.8,0-8.2-1.3-8.2-8.2C142.1,856,142,706,142,556z"/>
		<path class="st1" d="M682,1014c11.2-4.5,23.2-3.9,34.8-5.5c201.8-28.8,370.9-186.7,413.5-386.4c4.2-19.9,7.3-39.9,9.6-60.1
			c0.2-2.1-0.9-4.8,2.1-6c0,150-0.1,300,0.2,450c0,6.8-1.3,8.2-8.2,8.2C983.3,1013.9,832.7,1014,682,1014z"/>
		<path class="st2" d="M1142,508c-2.7-4-2.8-8,0-12C1142,500,1142,504,1142,508z"/>
		<path class="st3" d="M142,498c2.8,4,2.7,8,0,12C142,506,142,502,142,498z"/>
		<path class="st3" d="M142,518c2.7,4,2.8,8,0,12C142,526,142,522,142,518z"/>
		<path class="st2" d="M1142,532c-2.8-4-2.7-8,0-12C1142,524,1142,528,1142,532z"/>
		<path class="st4" d="M624,14c-1.7,1.9-3.8,2-6.1,1.8c-1.3-0.7-1.3-1.3,0.1-1.8C620,14,622,14,624,14z"/>
		<path class="st4" d="M666.1,15.7c-2.3,0.2-4.5,0.2-6.1-1.7c2,0,4,0,6,0C667.4,14.5,667.5,15.1,666.1,15.7z"/>
		<path class="st5" d="M1142,488c-2.2-2-3-4,0-6C1142,484,1142,486,1142,488z"/>
		<path class="st6" d="M142,540c2.2,2,3,4,0,6C142,544,142,542,142,540z"/>
		<path class="st4" d="M617.9,1012.2c2.3-0.2,4.4-0.1,6.1,1.8c-2,0-4,0-6,0C616.6,1013.5,616.6,1012.9,617.9,1012.2z"/>
		<path class="st4" d="M660,1014c1.7-1.9,3.8-2,6.1-1.7c1.3,0.7,1.3,1.2-0.1,1.7C664,1014,662,1014,660,1014z"/>
		<path class="st7" d="M613.9,15.7c-1.6,0.1-3.2,0.3-3.9-1.7c1.3,0,2.7,0,4,0C615.4,14.7,615.3,15.2,613.9,15.7z"/>
		<path class="st8" d="M613.9,15.7c0-0.6,0.1-1.1,0.1-1.7c1.3,0,2.7,0,4,0c0,0.6,0,1.2-0.1,1.8C616.6,15.7,615.2,15.7,613.9,15.7z"
			/>
		<path class="st8" d="M666.1,15.7c-0.1-0.6-0.1-1.2-0.1-1.7c1.3,0,2.7,0,4,0c1.4,0.5,1.5,1,0.1,1.7
			C668.8,15.7,667.4,15.7,666.1,15.7z"/>
		<path class="st7" d="M670.1,15.7c0-0.6-0.1-1.1-0.1-1.7c1.3,0,2.7,0,4,0C673.3,16,671.7,15.9,670.1,15.7z"/>
		<path class="st9" d="M142,484c2.3,1.3,1.8,2.7,0,4C142,486.7,142,485.3,142,484z"/>
		<path class="st9" d="M1142,544c-2.3-1.3-1.8-2.7,0-4C1142,541.3,1142,542.7,1142,544z"/>
		<path class="st10" d="M610,1014c0.7-1.9,2.3-1.8,3.9-1.7c1.4,0.5,1.5,1,0.1,1.7C612.7,1014,611.3,1014,610,1014z"/>
		<path class="st11" d="M614,1014c0-0.6-0.1-1.1-0.1-1.7c1.3,0,2.7-0.1,4-0.1c0.1,0.6,0.1,1.2,0.1,1.8
			C616.7,1014,615.3,1014,614,1014z"/>
		<path class="st11" d="M666,1014c0-0.6,0.1-1.2,0.1-1.7c1.3,0,2.7,0,4,0.1c1.3,0.6,1.3,1.2-0.1,1.7C668.7,1014,667.3,1014,666,1014
			z"/>
		<path class="st10" d="M670,1014c0-0.6,0.1-1.1,0.1-1.7c1.6-0.2,3.2-0.3,3.9,1.7C672.7,1014,671.3,1014,670,1014z"/>
		<path class="st12" d="M1098,509.6c0.1,254-205.7,460.2-459.4,460.4C384.2,970.2,178,764.2,178,509.9C178,256.1,384.1,50,637.9,50
			C891.8,50,1097.9,255.8,1098,509.6z"/>
		<path class="st0" d="M642.1,164c194.4,0.5,350.4,157.2,349.9,351.8C991.5,708.9,833.9,864.6,639.5,864
			c-192.7-0.6-348-158.5-347.4-353.3C292.6,320.1,450.7,163.6,642.1,164z"/>
		<path class="st1" d="M972,514.4C971.8,696.2,823.6,844.1,641.6,844C459.3,843.9,312,695.7,312,512.6
			c0-180.2,149.2-329,329.4-328.6C824.4,184.4,972.2,332,972,514.4z"/>
		<path class="st0" d="M630.5,570c-23.7,0-42.4-17.1-44.1-41.5c-0.4-6.3-3-8.4-8.1-10.4c-34.8-13.4-69.4-26.9-104.1-40.4
			c-9-3.5-14.4-9.7-14-19.6c0.4-9,5.6-14.7,14.1-17.4c5.8-1.9,11.1,0.4,16.4,2.5c34.4,13.5,68.8,26.8,103.1,40.4
			c5.7,2.3,9.9,2.4,15.4-1.5c15.4-10.8,32.2-12.4,48.9-3.4c5.3,2.9,8.5,2.5,13.2-0.6c63.7-41.2,127.6-82.2,191.4-123.3
			c13.6-8.7,21.2-8.7,26.8,0.1c5.9,9.1,2.5,17.4-10.5,25.8c-63.5,40.9-127,81.9-190.7,122.6c-5.5,3.5-8.1,6.6-7.7,13.9
			C681.7,545.5,657.9,570,630.5,570z"/>
		<path class="st13" d="M552.9,308.1c3,0.3,4.6,2.4,6.4,4.4c34.2,36.4,68.3,72.8,102.4,109.3c1.6,1.7,6.3,3.6,2.5,7
			c-3.2,2.8-6.2,0.3-8.6-2.2c-7.5-8-15-16-22.5-24.1c-26.9-28.6-53.8-57.3-80.6-86c-1.7-1.8-4.7-3.2-3.8-6.4
			C549.3,308.4,551.2,308.2,552.9,308.1z"/>
		<path class="st14" d="M733.7,386.4c-0.6,3.4-2.8,4.3-5.1,2.9c-2.2-1.3-4-3.5-5.7-5.5c-27.5-32.9-55.1-65.9-82.4-99
			c-1.7-2.1-6.8-4.5-2.7-7.9c3.5-2.9,5.9,1.2,7.9,3.7c28.4,34,56.7,68,85.1,102C731.9,383.9,732.8,385.2,733.7,386.4z"/>
		<path class="st15" d="M799.8,355c-0.7,2.8-2.5,3.6-4.5,2.4c-1.6-1-2.9-2.7-4.1-4.3c-23-28.8-46-57.7-68.8-86.7
			c-1.6-2-6.1-4.4-3-7.2c3.8-3.4,5.6,1.4,7.5,3.7c23,28.8,46,57.7,69,86.6C797.2,351.3,798.5,353.2,799.8,355z"/>
	</g>
</g>
<circle class="st16" cx="640" cy="512" r="500"/>
</svg>
