<?xml version="1.0" encoding="utf-8"?>
<!-- Generator: Adobe Illustrator 22.1.0, SVG Export Plug-In . SVG Version: 6.00 Build 0)  -->
<svg version="1.1" id="Layer_1" xmlns="http://www.w3.org/2000/svg" xmlns:xlink="http://www.w3.org/1999/xlink" x="0px" y="0px"
	 viewBox="0 0 1280 1024" style="enable-background:new 0 0 1280 1024;" xml:space="preserve">
<style type="text/css">
	.st0{fill:#FEFEFE;}
	.st1{fill:#283592;}
	.st2{fill:#26A599;}
	.st3{fill:#1B2343;}
	.st4{fill:#020306;}
	.st5{fill:#010206;}
	.st6{fill:#262A36;}
	.st7{fill:#192246;}
	.st8{fill:#406576;}
	.st9{fill:#364A55;}
	.st10{fill:#273D4A;}
	.st11{fill:#18213E;}
	.st12{fill:#1A2C75;}
	.st13{fill:#373C4C;}
	.st14{fill:#323749;}
	.st15{fill:#202745;}
	.st16{fill:#222F42;}
	.st17{fill:#1B2C75;}
	.st18{fill:#424656;}
	.st19{fill:#2C303C;}
	.st20{fill:#292D37;}
	.st21{fill:#232A4A;}
	.st22{fill:#2E3240;}
	.st23{fill:#1D2645;}
	.st24{fill:#20263D;}
	.st25{fill:#18286A;}
	.st26{fill:#2B414E;}
	.st27{fill:#2A2D37;}
	.st28{fill:#17536D;}
	.st29{fill:#262A34;}
	.st30{fill:#252833;}
	.st31{fill:#365160;}
	.st32{fill:#1F2745;}
	.st33{fill:#212639;}
	.st34{fill:#0C142F;}
	.st35{fill:#212946;}
	.st36{fill:#222948;}
	.st37{fill:#434D74;}
	.st38{fill:#11131D;}
	.st39{fill:#3F4252;}
	.st40{fill:#131723;}
	.st41{fill:#3A3E4E;}
	.st42{fill:#293841;}
	.st43{fill:#283A46;}
	.st44{fill:#1A2B73;}
	.st45{fill:#363E55;}
	.st46{fill:#353D54;}
	.st47{fill:#060B1C;}
	.st48{fill:#0B0B10;}
	.st49{fill:#1A2A72;}
	.st50{fill:#0F1A40;}
	.st51{fill:#1A2B74;}
	.st52{fill:#0E1941;}
	.st53{fill:#0D1840;}
	.st54{fill:#081626;}
	.st55{fill:#0D183F;}
	.st56{fill:#0F2845;}
	.st57{fill:#343D55;}
	.st58{fill:#102A49;}
	.st59{fill:#15313F;}
	.st60{fill:#12222E;}
	.st61{fill:#30485A;}
	.st62{fill:#294454;}
	.st63{fill:#154072;}
	.st64{fill:#010305;}
	.st65{fill:#243F4F;}
	.st66{fill:#2A4255;}
	.st67{fill:#2C4356;}
	.st68{fill:#32495C;}
	.st69{fill:#2A4454;}
	.st70{fill:#1A3947;}
	.st71{fill:#122D3A;}
	.st72{fill:#163443;}
	.st73{fill:#253E50;}
	.st74{fill:#363E54;}
	.st75{fill:#343C51;}
	.st76{fill:#192A71;}
	.st77{fill:#0C0C0F;}
	.st78{fill:#0C1539;}
	.st79{fill:#0C163C;}
	.st80{fill:#192A72;}
</style>
<g>
	<g>
		<path class="st0" d="M299,512.5c0-115.2,0-230.3-0.1-345.5c0-3.4,0.7-4.1,4.1-4.1c225.7,0.1,451.3,0.1,677,0
			c3.4,0,4.1,0.7,4.1,4.1c-0.1,230.7-0.1,461.3,0,692c0,3.4-0.7,4.1-4.1,4.1c-225.7-0.1-451.3-0.1-677,0c-3.4,0-4.1-0.7-4.1-4.1
			C299,743.5,299,628,299,512.5z"/>
		<path class="st1" d="M850,764.9c-8.5,8.1-18.3,14.5-28.1,20.9c-12.7,8.4-25.9,16-39.7,22.6c-3.6,1.7-7.4,3.2-11.1,4.7
			c-1.3-0.1-2.3,0.6-3.1,1.5c-10.7,4.5-21.6,8.4-32.8,11.5c-2.3-0.1-4.3,1-6.4,1.8c-13.6,4.5-27.8,6.9-41.9,8.9
			c-8.2,1.2-16.4,2.4-24.7,2.1c-1.7,0.7-3.5,0.3-5.3,0.4c-2.4,0-4.8,0-7.2,0c-5.7,0-11.4,0-17.1,0c-1.9,0-3.9,0-5.8,0
			c-2-0.5-4-0.6-6.1-0.3c-11.7-0.1-23.4-1.4-34.8-4c-1.2-1.5-2.7-0.5-4.1-0.4c-3.6-0.8-7.3-1.5-10.9-2.3c-1.7-1.4-3.9-1.1-5.9-1.5
			c-0.4,0-0.7,0-1.1-0.1c-1.7-1.6-4.1-1-6-1.8c-11.9-2.4-23.3-6.7-34.7-10.9c-2.1-0.8-4.2-1.7-6.3-2.5c-0.8-0.9-1.8-1.6-3.1-1.5
			c-10.3-3.9-20.1-8.9-29.7-14.3c-10.3-5.8-20.3-12.1-30.1-18.7c-9.1-6.2-17.9-12.9-26.1-20.3c-1-1-1.5-2.5-3.1-2.7
			c-3.2-1.8-5.4-4.8-7.9-7.4c-3.3-4-7.3-7.4-10.8-11.2c-1-0.9-1.9-1.8-2.9-2.5c-2.1-2.3-4.9-3.9-6.3-6.8c-0.7-2-2.2-3.2-3.9-4.2
			c-14.5-16.2-26.2-34.2-37.1-52.9c-11.1-19.1-19.5-39.3-26.6-60.1c-0.2-0.6-0.1-1.3-0.2-1.9c-0.3-1.8-0.1-3.8-2-5
			c-3-10.9-5.9-21.9-7.8-33c0-1.4,0.9-2.9-0.5-4.1c-2.3-10.8-4-21.8-3.9-32.9c0.7-2-0.2-3.9-0.4-5.8c0-1.6,0-3.2,0-4.8
			c0-2.9,0-5.7,0-8.6c0-2.9,0-5.8,0-8.8c0-2.9,0-5.7,0-8.6c0-1.6,0-3.2,0-4.8c0.3-1.9,1-3.8,0.4-5.8c-0.1-11.1,1.6-22,3.9-32.9
			c1.4-1.2,0.5-2.7,0.5-4.1c1.9-11.2,4.9-22.1,7.8-33c1.9-1.2,1.7-3.2,2-5c2.5-10.4,6.7-20.1,10.8-30c5.7-13.7,12.3-27,20.3-39.6
			c7.3-11.6,14.3-23.5,23.5-33.8c3.1-3.5,5.1-8,9.3-10.7c1.1-1.9,3.2-3.1,3.9-5.2c1.8-2.2,3.6-4.4,6.1-5.8c0.9-1.3,1.9-2.4,3-3.4
			c2.8-2.9,5.6-5.7,8.5-8.5c1-1.2,2.2-2.2,3.4-3c1.8-2.8,4-5.4,6.9-7.1c1.6-0.2,2.2-1.7,3.2-2.7c11-10.2,23.4-18.7,36-26.8
			c15.9-10.2,32.2-19.7,49.9-26.6c1.3,0.1,2.3-0.6,3.1-1.5c9.1-2.1,17.3-7,26.6-9c4.9-1,9.9-2.5,14.7-4.4c2.2-0.6,4.4-1,6.6-1.5
			c1.9-1,4.4-0.4,6.2-1.9c3.8,0,7.4-1.1,10.9-2.3c1.4,0.1,2.8,1,4.1-0.4c7.6-2,15.5-1.6,23.2-3.4c3.6-0.8,7.8,0.8,11.6-0.6
			c2,0.3,4,0.2,6-0.3c1.9,0,3.8,0,5.8,0c5.7,0,11.3,0,17,0c2.4,0,4.7,0,7.1,0c2,0,4.1-0.3,5.7,1.4c8.1-1.6,16.1,0,24,1.2
			c6.2,1,12.5,1.6,18.6,3c5.4,1.3,11,1.6,16,4.2c2.4,1.3,5.6-0.4,7.9,1.7c2.1,1.1,4.6,1.2,6.5,2.8c5.3-1.2,9.9,1.8,14.3,3.5
			c6.1,2.4,12.6,3.7,18.3,6.9c0.9,1.1,2.2,1.5,3.1,2.5c2.9-1.1,5.3,1.2,7.1,2.4c6.3,3.9,13.7,5.5,19.7,10.1
			c5.5,4.1,12.1,6.4,17.8,10.4c6.2,4.3,12.4,8.5,18.6,12.8c5.4,3.7,10.8,7.4,15.3,12.3c1.7,0.5,2.3,2.3,3.6,3.2
			c2,0.5,3.2,2.2,4.8,3.3c1.1,1.2,2,2.6,3.2,3.7c8,6.6,15.5,13.6,21.9,21.8c1.1,1.3,2.5,2.2,3.7,3.3c1.4,1.7,2.7,3.4,4.1,5.1
			c0.9,1,1.7,2.2,2.9,2.9c8.5,9.1,14.3,20.1,22.2,29.7c0.3,0.4,0.1,1.2,0.1,1.9c0.7,1.3,2,2.4,1.5,4.1c-0.9,2.2-3,3.1-4.8,4.2
			c-14.6,8.9-28.7,18.7-43.2,27.7c-10.2,6.3-20,13.1-30.1,19.5C824,401,808.6,411.3,793,421c-8.3,5.2-16.5,10.7-24.6,16.1
			c-1.9,1.3-4,3.4-6.8,1.4c-8.1-12.6-16.4-25.1-24.2-37.8c-12.5-20.4-25.6-40.6-38.1-61c-15.9-26-32.5-51.5-48.5-77.4
			c-4.2-6.8-8.6-13.5-12.7-20.3c-2.3-3.9-3-3.8-5.2,0c-11.2,19.9-22.5,39.7-33.6,59.6c-9.2,16.4-18.4,32.8-27.7,49.2
			c-12.8,22.8-25.7,45.5-38.6,68.2c-13.6,24-27.1,48.1-40.7,72.2c-12.7,22.6-25.6,45.2-38.3,67.8c-12.3,21.9-24.7,43.8-37,65.7
			c-10.3,18.3-20.6,36.5-30.9,54.7c-0.5,0.9-1.2,1.6-1.9,2.3c-0.4,0.7-2.4,1.6,0,2.1c1.5,0.3,3.2-0.1,4.9-0.1c2.3,0,4.7,0,7-0.1
			c3.5-0.1,7.1,0.3,10.6-0.3c0.6-0.1,1.1-0.1,1.7,0c3.3,0.6,6.6,0.3,9.9,0.3c3.4-0.1,6.8,0.4,10.1-0.7c3.5-0.5,6.9-0.2,10.4-0.3
			c3.6-0.1,7.3,0.3,10.9-0.3c0.6-0.1,1.1-0.1,1.7,0c3,0.6,6,0.3,9.1,0.3c3.7-0.2,7.4,0.5,11-0.7c3.3-0.5,6.5-0.2,9.8-0.3
			c3.6,0,7.2,0,10.9,0c3.6,0,7.2,0,10.8,0c3.5-0.1,7,0.5,10.4-0.6c3.5-0.5,7-0.2,10.5-0.3c3.6-0.1,7.2,0.3,10.8-0.3
			c0.5-0.1,1.1-0.1,1.6-0.1c3,0.6,6,0.3,9,0.4c1.9-0.3,4.4,1.2,5.4-1.8c6.5-15.4,13.8-30.4,20.6-45.7c0.7-1.7,1.6-3.3,2.8-4.7
			c1.5-1.9,3.3-3.3,5.4-4.4c7.3-2.7,14.8-4.9,22.3-6.9c2.5,0.3,4.7-0.7,6.8-1.8c1.5-0.9,3.3-0.7,4.9-1.3c2-0.3,3.8-0.8,5.5-1.9
			c7.9-2.7,16-4.9,24.1-7.2c5.9-1.7,11.4-4.5,17.3-6c10.8-2.6,21.2-6.2,31.9-9.2c1.4-0.4,2.9-0.7,4.4-0.5c0.5,0.1,1,0.4,1.4,0.7
			c1.6,1.5,2.4,3.6,3.4,5.5c8.8,16.9,16.7,34.1,25,51.2c4.5,9.3,10.6,17.7,14.7,27.2c1.1,2.6,3.1,3.8,5.9,3.7c1.5-0.1,3,0,4.5,0
			c49.8,0,99.7,0,149.5,0c1.8,0,3.7,0.3,5.7-0.4c0.2-2-1.3-3.3-2.3-4.6c-21-29.7-42-59.3-62.7-89.1c-6.6-9.5-14.6-18.3-19.4-29
			c-0.2-0.8-0.1-1.6,0.2-2.3c0.8-1.4,1.9-2.3,3.4-2.8c14.6-4.8,29.5-9,44.3-13.2c2.7,0.4,5.1-0.5,7.3-1.9c1.5-0.9,3.3-0.7,4.8-1.3
			c2-0.3,3.8-0.8,5.5-1.9c8.1-2.7,16.3-5.1,24.6-7.4c5.9-1.6,11.5-4.2,17.4-6c11.1-3.3,22.4-5.7,33.3-9.8c1.9-0.7,4.2-1.9,5.4,1.2
			c0.1,5.3-0.3,10.6,0.2,16c-0.3,5-0.6,10-1,15c-0.6,1.3-0.9,2.7-0.6,4.1c0,7.7-1.1,15.3-3,22.8c-1.3,1.3-0.5,2.7-0.4,4.1
			c-1.6,8.4-3,16.8-5.8,24.9c-1.3,2.1-1.3,4.6-1.9,6.9c-3.9,15.8-10.3,30.7-16.7,45.5c-6.1,14.2-14,27.3-22.3,40.2
			c-7.2,11.2-14.2,22.6-23.3,32.5c-1,0.9-2.5,1.5-2.7,3.1c-0.9,2.1-2.8,3.3-4.3,4.9c-1,1-2.5,1.5-2.6,3.2
			c-6.7,7.9-14.5,14.6-21.9,21.9c-1.9,0.6-3.1,2.2-4.3,3.7c-1.5,0.9-1.7,3.1-3.8,3.3C852.3,761.8,851.2,763.4,850,764.9z"/>
		<path class="st2" d="M881.9,534c-1.3,0.4-2.5,0.7-3.8,1.1c-2.4,0.8-4.6,2-7.2,2c-11.4,3.3-22.9,6.1-34,10.2
			c-4.6,1.7-9.6,2.5-14,4.9c-1.1,1-2.5,1.3-3.6,2.1c-4.6,2.2-9.5,3.4-14.4,4.5c-2-0.3-3.9,0-5.5,1.3c-1.5,1-3.2,1.7-5,1.6
			c-1.8-0.2-3.5,0.2-4.9,1.4c-1.5,1.2-3.1,2-5.1,1.7c-2.4-0.5-4.3,0.5-6.1,1.9c-1.2,0.8-2.5,1.2-3.9,1.1c-2.4-0.5-4.3,0.5-6.1,2
			c-1.2,0.8-2.4,1.2-3.9,1.1c-2.4-0.6-4.2,0.8-5.9,2.1c-4.9,1.8-9.8,3.5-15,4.3c-1.7-0.1-3.3,0.3-4.6,1.4
			c-5.5,2.1-11.1,3.8-16.9,5.1c-2-0.2-3.9-0.1-5.5,1.3c-1.5,1-3.2,1.7-5.1,1.7c-1.8-0.2-3.5,0.2-4.9,1.3c-1.5,1-3.2,1.7-5,1.7
			c-1.9,0-3.8-0.2-5.7,0.2c-8.7,3.3-17.9,5.2-26.7,8.2c-5.9,2-12.2,3.2-18.2,5.2c-8.2,2.8-16.4,5.3-24.6,7.9
			c-2.4,0.7-4.8,1.2-7.2,1.7c-2,0.9-4.1,1.3-6.2,1.9c-1.3,0.4-2.5,0.7-3.8,1.1c-2.4,0.8-4.6,2-7.2,2c-7.3,2.3-14.6,4.5-21.9,6.8
			c-2.2,0.9-4.6,1.4-6.3,3.3c-4.5,2.9-9.8,3.4-14.8,4.7c-2.4-0.4-4.4,0.5-6.2,2c-5.4,2.1-11,3.7-16.7,5c-2-0.2-3.9,0-5.5,1.3
			c-1.5,1-3.1,1.7-5,1.6c-2.1-0.3-3.8,0.3-5.4,1.6c-4.6,2.1-9.3,3.6-14.3,4.5c-2.6-0.6-4.7,0.3-6.6,1.9c-1.2,0.8-2.4,1.2-3.8,1
			c-2.5-0.6-4.2,0.8-5.9,2.2c-15.3,4.9-30.8,9.5-46.3,13.8c-2-0.2-4-0.1-5.7,1.3c-1.5,1-3.2,1.7-5.1,1.7c-1.8-0.2-3.5,0.2-4.9,1.4
			c-1.5,1.2-3.1,2-5.1,1.7c-2.4-0.5-4.3,0.5-6.1,1.9c-1.2,0.8-2.5,1.2-3.9,1.1c-2.4-0.5-4.3,0.5-6.1,2c-1.1,0.8-2.4,1.2-3.8,1.1
			c-2.4-0.6-4.1,0.6-5.8,2c-2.7,1.3-5.4,2.4-8.5,1.7c-1-0.5-1.5-1.3-1.5-2.5c3.2-6.1,9.7-7.9,14.9-11.3
			c16.5-10.9,33.1-21.6,49.9-32.1c12-7.5,23.7-15.3,35.6-22.9c13.9-8.8,27.6-17.9,41.4-27c11.2-7.4,22.7-14.6,34.1-21.6
			c8.9-5.5,17.4-11.7,26.3-17.1c12.2-7.4,23.8-15.8,36.1-23.1c9.6-5.7,18.3-12.7,28.2-17.8c1.5-0.7,3-1.4,4.4-2.3
			c11.3-7.6,23-14.6,34-22.7c16.2-10.7,32.4-21.3,48.8-31.6c6-3.8,12-7.7,17.8-11.8c1.2-0.9,2.4-1.8,4.1-1.5
			c3.1,0.6,5.2-1.7,7.2-3.2c7.4-5.3,15.1-10.2,22.8-15c7.8-4.9,15.5-10,23.4-14.8c10.6-6.4,20.9-13.3,31.3-20
			c15-9.6,29.9-19.3,44.9-28.9c8.5-5.4,16.9-10.9,25.4-16.3c1-0.6,1.9-0.6,2.7,0.3c10.5,18.4,20.8,36.9,28.1,56.9
			c0.2,1.8,0.2,3.7,1.9,5c0.9,3.5,2.9,6.7,3.2,10.4c0.7,1.3,0.2,2.9,1,4.1c0.5,1.5,0.8,3.2,1.8,4.5c1.3,5,2.7,10,4,14.9
			c0.1,3.1,0.4,6.2,2,9.1c0.1,0.6,0.2,1.2,0.3,1.8c0.2,2.8,0.3,5.6,1.8,8.2c0,0.7,0.1,1.3,0.1,2c-0.6,1.6,0.3,2.8,0.9,4.1
			c1.3,6.2,1.8,12.5,2.1,18.8c-0.6,1.6,0,2.9,0.8,4.3c0.1,3.2,0.2,6.5,0.3,9.7c-0.6,2.4-0.1,4.8,0.2,7.1c0.3,1.9,0.1,3.9,0.1,5.8
			c0,0.5-0.2,0.9-0.7,1.1c-15.3,5.6-31.2,8.7-46.6,14.1c-7.3,2.6-14.7,5-22.4,6.7c-3.5,0.8-7.2,1.9-10.7,3.4
			C886.1,533,884,533.3,881.9,534z"/>
		<path class="st3" d="M406,738.9c3.8,3.8,8.5,6.8,11,11.8c-4.3-2.8-7.6-6.8-11-10.6C405.5,739.7,405.5,739.3,406,738.9z"/>
		<path class="st4" d="M650,185.9c-6,0-12,0-17.9,0c-0.4-0.2-0.5-0.3-0.4-0.5c0.1-0.2,0.2-0.2,0.4-0.2c6,0,12,0,17.9,0
			c0.3,0.2,0.5,0.3,0.4,0.5C650.2,185.8,650.1,185.9,650,185.9z"/>
		<path class="st5" d="M632.1,839.1c6,0,11.9,0,17.9-0.1c0.3,0.2,0.5,0.4,0.3,0.5c-0.1,0.2-0.2,0.3-0.3,0.3c-6,0-11.9,0-17.9,0
			c-0.4-0.2-0.5-0.3-0.3-0.5C631.8,839.2,632,839.1,632.1,839.1z"/>
		<path class="st6" d="M968.7,525.1c-1.7-5.7,0-11.5-0.9-17.2c0,0,0.2,0.1,0.2,0.1c0.3-0.4,0.6-0.4,0.9,0.1
			C968.8,513.7,968.7,519.4,968.7,525.1z"/>
		<path class="st7" d="M415.1,277c-3,3-6,6-9.1,9.1c-0.5-0.4-0.5-0.8-0.1-1.3c2.3-2.9,5-5.5,7.9-7.9
			C414.3,276.5,414.7,276.5,415.1,277z"/>
		<path class="st8" d="M967.9,501c-1.4-2.4-1.6-4.8,0.2-7.2c1.2,2.3,0.8,4.8,0.8,7.2C968.5,501.5,968.2,501.5,967.9,501z"/>
		<path class="st9" d="M963.9,455c-2.7-2.3-2.4-5.2-1.8-8.2C963.5,449.4,963.4,452.2,963.9,455z"/>
		<path class="st10" d="M961.8,445c-2.6-2.6-2.9-5.7-2-9.1C960.5,439,961.2,442,961.8,445z"/>
		<path class="st4" d="M314.8,517.1c0,3,0,5.9,0.1,8.9c-0.3,0.5-0.5,0.5-0.8,0c0-3,0-6,0-9C314.4,516.6,314.7,516.6,314.8,517.1z"/>
		<path class="st11" d="M314.8,517.1c-0.3,0-0.5-0.1-0.8-0.1c-0.5-3-0.5-6,0-9c0.2-0.4,0.5-0.4,0.7-0.1
			C314.8,511,314.8,514,314.8,517.1z"/>
		<path class="st4" d="M314.8,507.9c-0.2,0-0.5,0.1-0.7,0.1c0-3,0-6,0-9c0.3-0.5,0.5-0.5,0.8,0C314.9,502,314.9,504.9,314.8,507.9z"
			/>
		<path class="st12" d="M626,186c-1.8,1.5-3.5,1.4-5.1-0.2c1.3-0.9,2.7-0.7,4.1-0.5C625.4,185.3,625.8,185.6,626,186z"/>
		<path class="st12" d="M620.8,839.1c1.7-1.6,3.4-1.7,5.1-0.2c-0.2,0.5-0.5,0.7-1,0.7C623.5,839.8,622.1,840.1,620.8,839.1z"/>
		<path class="st13" d="M565,194.9c-2.2,0.7-4.4,1.5-6.7,1.1c2-1.4,4.3-2,6.8-1.9c0.3,0.2,0.4,0.4,0.3,0.5
			C565.2,194.8,565.1,194.9,565,194.9z"/>
		<path class="st14" d="M735.4,199.9c-2.2-0.8-4.8-0.9-6.5-2.8C731.3,197.5,734.2,196.7,735.4,199.9z"/>
		<path class="st14" d="M728.9,828c1.9-1.5,3.7-3,6.4-1.8C733.3,827.4,731.2,828,728.9,828z"/>
		<path class="st15" d="M396.9,294.8c0,2.7-2,3.9-3.9,5.2C393.2,297.4,395.2,296.2,396.9,294.8z"/>
		<path class="st16" d="M919.9,340.1c-0.9-0.1-1.8-0.2-2.7-0.3c-0.4-1.4-0.7-2.8-1.1-4.3C918.4,336.2,918.9,338.3,919.9,340.1z"/>
		<path class="st17" d="M314.9,488.9c1.5,1.7,1.6,3.3,0.1,5c-0.4-0.2-0.7-0.5-0.7-1C314.1,491.5,314.1,490.2,314.9,488.9z"/>
		<path class="st17" d="M315,531c1.5,1.7,1.5,3.4-0.1,5c-0.8-1.3-0.8-2.6-0.6-4C314.4,531.6,314.6,531.2,315,531z"/>
		<path class="st18" d="M956,602.9c-0.1-2.5-0.2-5,1.9-6.9C958,598.4,957.3,600.8,956,602.9z"/>
		<path class="st19" d="M626,186c-0.3-0.2-0.7-0.5-1-0.7c2.4-0.1,4.7-0.1,7.1-0.2c0,0.2,0,0.5,0,0.7C630,185.9,628,186,626,186z"/>
		<path class="st20" d="M650,185.9c0-0.3,0-0.5,0-0.8c2.3,0,4.7,0,7,0.1c0.3,0.2,0.4,0.4,0.3,0.5c-0.1,0.2-0.2,0.3-0.3,0.3
			C654.7,186,652.3,185.9,650,185.9z"/>
		<path class="st21" d="M850,764.9c0.4-2.5,1.8-3.7,4.3-3.8C853.2,762.7,851.8,764.1,850,764.9z"/>
		<path class="st22" d="M565,194.9c0-0.3,0-0.5,0-0.8c1.8-1.2,4-1.1,6-1.5C569.6,194.8,567,194.2,565,194.9z"/>
		<path class="st23" d="M858,757.8c0.4-2.4,1.8-3.6,4.3-3.7C861.1,755.5,860,757.2,858,757.8z"/>
		<path class="st13" d="M558,829.1c2.2,0,4.6-0.8,6,1.8C561.9,830.5,559.7,830.4,558,829.1z"/>
		<path class="st24" d="M327.2,606.1c2.5,0.9,2.9,2.7,2,5C328.5,609.4,327.8,607.8,327.2,606.1z"/>
		<path class="st24" d="M329.1,413.9c0.9,2.3,0.5,4-2,5C327.8,417.2,328.5,415.6,329.1,413.9z"/>
		<path class="st15" d="M393,726c2.6,0.2,3.8,1.7,3.9,4.2C395.3,729.1,394,727.7,393,726z"/>
		<path class="st25" d="M967.1,544.1c-2-1.7-0.8-2.9,0.6-4.1C967.8,541.4,968.1,542.9,967.1,544.1z"/>
		<path class="st26" d="M949.8,402c-2.5-1-2.8-2.8-1.9-5C948.5,398.6,949.2,400.3,949.8,402z"/>
		<path class="st27" d="M967.9,501c0.3,0,0.6,0,0.9,0c0,2.3,0,4.7,0,7c-0.3,0-0.6,0-0.9-0.1C968,505.6,967.9,503.3,967.9,501z"/>
		<path class="st28" d="M967.8,484.1c-2.6-1-2.2-2.5-0.8-4.3C967.6,481.2,968,482.6,967.8,484.1z"/>
		<path class="st22" d="M565.1,830.9c2.3-0.6,4.3-0.5,5.9,1.5C569,832,566.9,832.2,565.1,830.9z"/>
		<path class="st19" d="M624.9,839.7c0.3-0.2,0.7-0.5,1-0.7c2,0.1,4.1,0.1,6.1,0.2c0,0.2,0,0.5,0,0.7
			C629.7,840.1,627.3,840.2,624.9,839.7z"/>
		<path class="st29" d="M650,839.9c0-0.3,0-0.5,0-0.8c2.3,0,4.7-0.1,7-0.1c0.3,0.2,0.4,0.4,0.3,0.5c-0.1,0.2-0.2,0.3-0.3,0.3
			C654.7,839.8,652.3,839.8,650,839.9z"/>
		<path class="st30" d="M315,531c-0.2,0.3-0.4,0.7-0.7,1c-0.1-2-0.1-4-0.2-6.1c0.3,0,0.5,0,0.8,0C314.9,527.7,315,529.4,315,531z"/>
		<path class="st30" d="M314.3,493c0.2,0.3,0.4,0.7,0.7,1c0,1.7-0.1,3.4-0.1,5.1c0,0-0.4,0-0.4,0l-0.4,0
			C314.2,497,314.3,495,314.3,493z"/>
		<path class="st31" d="M964.9,461c-1.6-1.1-2.8-2.2-0.9-4.1C964.7,458.2,965.2,459.5,964.9,461z"/>
		<path class="st23" d="M861.2,270.9c-1.7-0.7-3-1.7-3.2-3.7C859.8,267.8,861.1,268.8,861.2,270.9z"/>
		<path class="st32" d="M886.8,296c-2.1-0.1-3-1.5-3.7-3.3C885.1,292.9,886.2,294.2,886.8,296z"/>
		<path class="st33" d="M405.9,284.8c0,0.4,0.1,0.8,0.1,1.3c-0.6,1.3-1.7,2.2-3,2.8C403.1,286.9,404.4,285.8,405.9,284.8z"/>
		<path class="st33" d="M415.1,277c-0.4,0-0.8-0.1-1.3-0.1c1-1.5,2.1-2.8,4.1-2.9C417.3,275.3,416.4,276.4,415.1,277z"/>
		<path class="st34" d="M891.1,724.1c-0.7-2.4,1-2.7,2.7-3.1C893.2,722.4,892.3,723.4,891.1,724.1z"/>
		<path class="st32" d="M884.1,732.2c-0.8-2.4,1-2.8,2.6-3.2C886.5,730.6,885.3,731.4,884.1,732.2z"/>
		<path class="st35" d="M424.8,758.1c2.4-0.8,2.8,1,3.1,2.7C426.5,760.4,425.6,759.3,424.8,758.1z"/>
		<path class="st36" d="M428,264.2c-0.4,1.7-0.7,3.4-3.2,2.7C425.6,265.7,426.5,264.6,428,264.2z"/>
		<path class="st37" d="M657,186c0-0.3,0-0.5,0-0.8c1.9,0.2,4.3-1.1,5.3,1.7C660.5,186.6,658.8,186.3,657,186z"/>
		<path class="st21" d="M853.2,263.9c-1.7-0.5-2.7-1.8-3.6-3.2C852,260.5,853,261.8,853.2,263.9z"/>
		<path class="st33" d="M406,738.9c0,0.4-0.1,0.8-0.1,1.2c-1.3-0.7-2.3-1.7-2.7-3.1C404.6,737,405.5,737.7,406,738.9z"/>
		<path class="st38" d="M963.7,571.1c-0.7-1.4-1.7-2.9,0.4-4.1C964,568.3,963.9,569.7,963.7,571.1z"/>
		<path class="st39" d="M517,209.3c-0.4,1.7-1.3,2.6-3.1,1.5C514.5,209.6,516,209.9,517,209.3z"/>
		<path class="st40" d="M319.3,451.9c0.5,1.4,1.9,3-0.5,4.1C319,454.7,319.2,453.3,319.3,451.9z"/>
		<path class="st38" d="M586,189.8c-1.1,2.3-2.6,1-4.1,0.4C583.3,190.1,584.6,190,586,189.8z"/>
		<path class="st41" d="M768,814.7c0.4-1.7,1.3-2.7,3.1-1.5C770.4,814.4,769.1,814.2,768,814.7z"/>
		<path class="st39" d="M513.9,814.1c1.8-1.1,2.7-0.2,3.1,1.5C516,815.1,514.5,815.4,513.9,814.1z"/>
		<path class="st42" d="M955.9,421c-1.8-0.8-2.1-2.3-1.9-4c0.3-0.4,0.5-0.4,0.8,0C955.2,418.3,955.5,419.7,955.9,421z"/>
		<path class="st43" d="M954.8,417l-0.4,0c0,0-0.4,0-0.4,0c-1.7-1.2-0.9-3-1-4.6C954.4,413.7,954.2,415.5,954.8,417z"/>
		<path class="st38" d="M581.9,834.7c1.4-0.6,2.9-1.9,4.1,0.4C584.6,835,583.3,834.9,581.9,834.7z"/>
		<path class="st40" d="M318.9,569c2.4,1.1,1.1,2.6,0.5,4.1C319.2,571.7,319,570.3,318.9,569z"/>
		<path class="st41" d="M771.2,212.9c-1.3-0.5-2.9-0.6-3.1-2.5C769.3,210.9,771.3,210.6,771.2,212.9z"/>
		<path class="st34" d="M893.8,304c-1.8-0.1-2.6-1.2-2.9-2.9C892.5,301.4,893,302.8,893.8,304z"/>
		<path class="st37" d="M657,839.8c0-0.3,0-0.5,0-0.8c1.8,0,3.5,0.1,5.3,0.1C660.7,840.3,658.8,839.9,657,839.8z"/>
		<path class="st0" d="M654.2,508.7c-12.1,7-23.5,15-35.2,22.6c-14,9.1-28.5,17.4-42.3,26.7c-12.6,8.5-25.6,16.5-38.4,24.8
			c-13.7,9-27.3,18.1-41.1,27c-11.8,7.6-24.1,14.5-35.7,22.5c-8.3,5.7-17,10.7-25.2,16.5c-8.8,6.3-18.5,11.3-27.4,17.5
			c-7.3,5-15.4,8.7-21.9,14.8c-0.7,0.6-1.3,1.4-2.2,1.8c-0.8,0.3-1.6,0.6-2.2-0.3c-0.5-0.7-0.1-1.2,0.6-1.4
			c5.5-9.5,10.5-19.3,16.1-28.7c6.1-10.4,12.1-20.8,17.9-31.3c8.6-15.4,17.4-30.8,25.9-46.3c5.7-10.3,11.8-20.6,17.6-30.9
			c8.9-15.8,17.8-31.7,26.7-47.6c6.1-11.1,12.5-22.1,18.9-33c11.6-19.9,22.9-40,33.9-60.2c8.5-15.5,17.3-30.9,25.9-46.4
			c5.9-10.6,12.1-21.1,18.1-31.7c8.7-15.4,17.4-30.8,25.9-46.4c7.1-13.1,15.2-25.7,21.9-39.1c0.6-1.3,1.9-2.2,3.4-3.8
			c42.2,67.6,84.4,135,126.5,202.4c-12,8-23.8,16.1-35.9,23.9c-11.3,7.4-22.8,14.6-34.3,21.9c-4.1-3.7-5.9-8.9-8.4-13.5
			c-9.1-16.6-18.4-33.1-27.8-49.5c-6.7-11.7-12.7-23.7-19.7-35.3c-0.4-0.7-0.7-1.5-1.9-2.1c-1.6,0.8-2,2.7-2.7,4.2
			c-9.2,19.6-17.9,39.4-26.9,59.1c-7.9,17.1-15.6,34.3-23.4,51.4c-1.2,2.7-3,5.2-2.7,8.4c5.3,1.9,10.6,1,16,0.3
			c3.4-0.6,6.8-0.2,10.2-0.4c0.6-0.1,1.2-0.1,1.8,0c3.9,0.1,7.7,0,11.6,0c7.8-0.2,15.5,0.5,23.3-0.5c0.6-0.2,1.2-0.3,1.7-0.4
			c3.5,0,7.1-0.7,10.5,0.6C654.5,507,654.6,507.8,654.2,508.7z"/>
		<path class="st0" d="M701,588.9c2,0.3,3.6-0.7,5.1-1.8c1.6-0.7,3.2-0.9,4.9-1.2c2,0.3,3.6-0.6,5.1-1.9c1.6-0.7,3.2-0.9,4.9-1.2
			c6-1.7,12.1-3.4,18.1-5.1c1.1-1.7,3.1-0.9,4.5-1.7c5.1-1.4,10.3-2.8,15.4-4.3c1.4-1.5,3.2-1.7,5-1.8c1.5,0.4,2.6-0.3,3.8-1.1
			c2-0.9,3.9-1.9,6.2-2c1.5,0.4,2.7-0.3,3.8-1c2-0.9,3.9-1.9,6.2-2c2,0.3,3.6-0.6,5.1-1.8c1.6-0.7,3.2-0.9,4.9-1.2
			c2,0.3,3.6-0.7,5.1-1.8c1.6-0.7,3.2-0.9,4.9-1.2c5.1-1.6,10.5-2.2,15.2-4.9c1.7-0.9,3-0.6,3.8,1.2c14.1,20.2,28.2,40.5,42.4,60.7
			c14.5,20.7,29.1,41.2,43.6,61.9c0.4,0.5,0.6,1.1,1.2,2.2c-2,0.1-3.6,0.2-5.2,0.2c-52.7,0-105.3,0-158,0.1c-3.6,0-5.6-0.9-7.3-4.3
			c-6.9-13.8-14.5-27.3-21.1-41.2c-6.9-14.7-14.7-28.9-21.5-43.6C698.3,589.3,699.5,588.9,701,588.9z"/>
		<path class="st0" d="M412,675.9c1.5,0.4,2.6-0.4,3.8-1.1c2-0.9,3.9-1.9,6.2-2c2,0.3,3.6-0.6,5.1-1.8c1.5-0.7,3.2-0.9,4.9-1.2
			c2,0.3,3.6-0.7,5.1-1.8c1.5-0.7,3.2-0.9,4.9-1.2c7.3-2,14.7-4,22-6.1c8.7-2.6,17.4-5.3,26.1-8c1.4-1.4,3.2-1.7,5-1.8
			c1.5,0.4,2.6-0.4,3.8-1.1c2-0.9,3.9-1.9,6.2-2c5.1-1.3,10.4-2.1,15.1-4.8c1.5-0.7,3.2-0.9,4.9-1.2c2,0.3,3.6-0.7,5.1-1.8
			c1.5-0.7,3.2-0.9,4.9-1.2c6-1.7,12.1-3.4,18.1-5.2c1.3-1.4,3.1-1.7,4.9-1.8c5-1.7,10.6-1.7,15.1-4.9c0.8-0.6,1.5-0.6,2.1,0.2
			c0.5,0.6,0.2,1.2-0.4,1.6c-7.9,17.1-16.4,33.9-23.1,51.5c-1.9,1.1-4.1,0.3-6,1.1c-3.2-0.1-6.5,0.5-9.7-0.3l-0.5-0.1l-0.4,0.2
			c-3.7,0.7-7.4,0.2-11,0.3c-7-0.2-14.1,0.4-21.1,0.8c-3.6,0.4-7.3,0.1-10.9,0.2c-3.6,0-7.2,0-10.8,0c-6.7-0.3-13.4,0.7-20.2,0.6
			c-0.6,0.1-1.1,0.3-1.7,0.4c-2.8-0.1-5.6,0.4-8.4-0.3l-0.5-0.1l-0.4,0.2c-3.7,0.7-7.4,0.2-11,0.3c-7-0.2-14.1,0.4-21.1,0.8
			c-3.3,0.2-6.7,0.5-10-0.2l-0.4-0.1l-0.4,0.2c-3.4,0.7-6.8,0.2-10.2,0.3c-2.4,0-4.8,0-7.2,0c-0.5,0-1,0-1.5-0.1
			c-0.5-0.4-0.5-0.8,0-1.3c3.1,0,5.8-1.6,8.8-2.3c1.4-1.4,3.2-1.7,5-1.8c1.5,0.4,2.6-0.4,3.8-1.1C407.8,677,409.7,675.9,412,675.9z"
			/>
		<path class="st44" d="M743.3,680c56,0,112.1,0,168.1,0c0,0.2,0,0.3,0,0.5c-56.1,0-112.2,0-168.2,0
			C743.2,680.4,743.2,680.2,743.3,680z"/>
		<path class="st45" d="M503,681.9c7-1.1,14-1.1,21.1-0.8c0.3,0.2,0.4,0.3,0.3,0.5c-0.1,0.2-0.2,0.3-0.3,0.3
			c-3.8,0.1-7.5,0.1-11.3,0.2c-3,0.8-6.1,0.3-9.2,0.3C503.4,682.3,503.2,682.1,503,681.9z"/>
		<path class="st46" d="M459.9,682.9c7-1.1,14.1-1.1,21.2-0.8c0,0.2,0,0.4,0.1,0.7c-3.4,0.1-6.8,0.1-10.2,0.2
			C467.2,683.7,463.6,683.9,459.9,682.9z"/>
		<path class="st46" d="M418,683.9c7-0.9,14-1,21.1-0.7c0.3,0.2,0.4,0.3,0.3,0.5c-0.1,0.2-0.2,0.3-0.3,0.3
			c-3.7,0.1-7.5,0.1-11.2,0.2c-3,0.8-6.1,0.3-9.2,0.3C418.4,684.2,418.2,684.1,418,683.9z"/>
		<path class="st47" d="M383.4,681.2c-0.7,3,1.3,0.1,1.6,0.7c1.1,0.5,2,1.3,3,1.9l0,0c0.3,0.3,0.3,0.5,0.2,0.7
			c-0.1,0.2-0.3,0.3-0.4,0.3c-1.1,0.1-2.3,0.3-3.4,0.1c-1.3-0.2-3.2,1.6-3.8-0.3C380.4,683.3,381.8,681.8,383.4,681.2z"/>
		<path class="st17" d="M545.9,680.9c1.8-1,3.8-0.3,5.7-0.5c-1.2,3.2-3.9,1-5.8,1.5c-0.3-0.2-0.4-0.5-0.2-0.7
			C545.7,681,545.8,680.9,545.9,680.9z"/>
		<path class="st48" d="M481.1,682.9c0-0.2-0.1-0.4-0.1-0.7c3.6,0,7.3,0,10.9,0c0,0.2,0,0.4-0.1,0.7
			C488.3,682.8,484.7,682.8,481.1,682.9z"/>
		<path class="st48" d="M524.1,681.9c0-0.2,0-0.5,0-0.7c3.7,0,7.3,0,11,0C531.5,682.9,527.7,681.7,524.1,681.9z"/>
		<path class="st48" d="M396.1,684.2c3.7,0,7.3,0,11,0c-3.5,1.8-7.3,0.5-11,0.7c-0.4-0.1-0.5-0.2-0.4-0.4
			C395.8,684.3,395.9,684.2,396.1,684.2z"/>
		<path class="st49" d="M459.9,682.9c3.7,0,7.3,0.1,11,0.1c-3.5,2.1-7.3,0.5-10.9,0.9c-0.3-0.2-0.4-0.4-0.3-0.7
			C459.8,683.1,459.9,683,459.9,682.9L459.9,682.9z"/>
		<path class="st50" d="M491.9,682.8c0-0.2,0-0.4,0.1-0.7c3.7-0.1,7.3-0.2,11-0.2c0,0,0,0.2,0,0.2c0.3,0.2,0.4,0.4,0.3,0.5
			c-0.1,0.2-0.2,0.2-0.4,0.2C499.3,682.9,495.6,682.9,491.9,682.8z"/>
		<path class="st48" d="M439,683.9c0-0.3,0-0.5,0-0.8c3.7,0,7.3,0,11,0C446.5,684.9,442.7,683.6,439,683.9z"/>
		<path class="st51" d="M502.9,683c0-0.3,0.1-0.5,0-0.8c3.3,0,6.6-0.1,9.8-0.1C509.7,684,506.2,682.6,502.9,683z"/>
		<path class="st52" d="M545.9,680.9c0,0.3,0,0.7-0.1,1c-3.3-0.2-6.8,1-9.9-0.8C539.3,681,542.6,680.9,545.9,680.9z"/>
		<path class="st53" d="M407.9,684.1c3.3-0.1,6.7-0.1,10-0.2c0,0,0,0.2,0,0.2c0.3,0.2,0.4,0.4,0.3,0.6c-0.1,0.2-0.2,0.2-0.4,0.2
			C414.6,684.7,411.1,685.9,407.9,684.1z"/>
		<path class="st51" d="M417.9,684.9c0-0.3,0.1-0.5,0.1-0.8c3.3,0,6.6,0,9.8-0.1C424.7,686,421.2,684.6,417.9,684.9z"/>
		<path class="st54" d="M574.7,628.9c0.4-1.5-0.2-2-1.7-1.8c1.9-2,4.5-1.9,6.9-2.2C578.2,626.2,576.5,627.5,574.7,628.9z"/>
		<path class="st55" d="M460,683c0,0.3,0,0.6,0,1c-3-0.3-6.1,1-9-0.9C454,683.1,457,683,460,683z"/>
		<path class="st56" d="M870.9,537.1c2.3-1.1,4.6-2,7.2-2C876,536.6,873.8,538.2,870.9,537.1z"/>
		<path class="st56" d="M601.9,618.1c2.3-1.1,4.6-2,7.2-2C607,617.6,604.8,619.2,601.9,618.1z"/>
		<path class="st57" d="M396.1,684.2c0,0.2,0,0.4,0.1,0.7c-2.7,0-5.5,0-8.2,0c0.1-0.3,0.1-0.7,0.2-1
			C390.8,684,393.4,684.1,396.1,684.2z"/>
		<path class="st58" d="M612.9,615c1.9-1.3,3.9-1.9,6.2-1.9C617.4,614.9,615.3,615.2,612.9,615z"/>
		<path class="st58" d="M881.9,534c1.9-1.3,3.9-1.9,6.2-1.9C886.4,533.9,884.3,534.2,881.9,534z"/>
		<path class="st59" d="M701,588.9c-1.1,0.9-2.4,1.2-3.8,1.3c-0.4-0.1-0.9-0.2-1.3-0.3C697.4,589,699,587.9,701,588.9z"/>
		<path class="st60" d="M822.9,554.2c-1.1-1-2.3-1.4-3.8-1.2c1-1.6,2.5-0.9,3.9-0.9C823,552.8,822.9,553.5,822.9,554.2z"/>
		<path class="st1" d="M576.1,506.8c18.4-40.7,36.8-81.4,55.3-122.1c0.6-1.4,0.7-3.7,2.8-3.6c2.3,0,2,2.5,2.9,3.9
			c5.7,9.1,10.7,18.5,15.8,27.9c5.6,10.4,11.9,20.4,17.3,30.9c4.9,9.6,10.8,18.8,16,28.4c2,3.8,5.2,7.1,5.9,11.7
			c-3.6,4.4-9,6.2-13.4,9.6c-6.5,4.9-13.7,9-20.7,13.4c-1.6,0-3.2,0-4.8-0.4c-3.4,0-6.8,0-10.2,0c-4,1-8.2,0-12.2,0.9
			c-4.2,0.1-8.3,0-12.5,0.1c-4.1,0.2-8.2-0.4-12.3,0.4l-0.4,0.2l-0.4-0.1c-3.7-0.8-7.3-0.4-11-0.2c-3.9,0.8-8-0.1-11.9,0.6
			C580,508.2,577.6,509.6,576.1,506.8z"/>
		<path class="st61" d="M505,647.9c-1.9,1.2-4,1.7-6.2,2C500.4,647.7,502.5,647.2,505,647.9z"/>
		<path class="st62" d="M422,672.9c-1.9,1.2-4,1.7-6.2,2C417.4,672.8,419.5,672.1,422,672.9z"/>
		<path class="st61" d="M412,675.9c-1.9,1.2-4,1.7-6.2,2C407.4,675.7,409.5,675.2,412,675.9z"/>
		<path class="st63" d="M388.1,683.9c-1.4,0-3.2,0.5-3-1.9c0.3-1.2,1.2-1,2.1-0.9c0.4,0.7,0.7,1.4,1.1,2
			C388.2,683.4,388.1,683.6,388.1,683.9z"/>
		<path class="st64" d="M654.1,506.2c1.3,0,2.8-0.8,3.9,0.7c-1.3,0.6-2.5,1.2-3.8,1.8c-0.1-0.5-0.1-1.1-0.2-1.6
			c-0.4-0.2-0.5-0.5-0.3-0.6C653.8,506.3,654,506.2,654.1,506.2z"/>
		<path class="st65" d="M784,563.9c-1.9,1.2-4,1.7-6.2,2C779.4,563.8,781.5,563.2,784,563.9z"/>
		<path class="st66" d="M774,566.9c-1.9,1.2-4,1.7-6.2,2C769.4,566.7,771.5,566.3,774,566.9z"/>
		<path class="st67" d="M764,569.9c-1.4,1.3-3.4,1.1-5,1.8C760,569.2,761.9,569.3,764,569.9z"/>
		<path class="st68" d="M402,678.9c-1.4,1.3-3.4,1.1-5,1.8C398,678.3,399.8,678,402,678.9z"/>
		<path class="st69" d="M558,631.9c-1.3,1.4-3.3,1.1-4.9,1.8C554,631.3,555.8,631.1,558,631.9z"/>
		<path class="st68" d="M495,650.9c-1.4,1.3-3.4,1.1-5,1.8C491,650.3,492.8,650,495,650.9z"/>
		<path class="st70" d="M535,638.9c-1.4,1.3-3.2,1.1-4.9,1.2C531.5,638.9,532.9,637.7,535,638.9z"/>
		<path class="st70" d="M525,641.9c-1.4,1.3-3.2,1.1-4.9,1.2C521.5,641.8,523,640.8,525,641.9z"/>
		<path class="st70" d="M442,666.9c-1.4,1.3-3.2,1.1-4.9,1.2C438.5,666.8,440,665.8,442,666.9z"/>
		<path class="st70" d="M432,669.9c-1.4,1.3-3.2,1.1-4.9,1.2C428.5,669.8,430,668.8,432,669.9z"/>
		<path class="st71" d="M720.9,582.9c-1.4,1.2-3.1,1.2-4.9,1.2C717.5,582.8,719,581.9,720.9,582.9z"/>
		<path class="st72" d="M711,585.9c-1.4,1.3-3.2,1.1-4.9,1.2C707.5,585.8,709,584.9,711,585.9z"/>
		<path class="st72" d="M794,560.9c-1.4,1.3-3.2,1.1-4.9,1.2C790.5,560.8,792,559.9,794,560.9z"/>
		<path class="st72" d="M804,557.9c-1.4,1.3-3.2,1.1-4.9,1.2C800.5,557.9,802,556.7,804,557.9z"/>
		<path class="st73" d="M743.6,576c-1.2,1.4-3.1,1-4.5,1.7C739.7,574.9,741.9,576.2,743.6,576z"/>
		<path class="st74" d="M618,507.1c4.4-0.1,8.8-0.1,13.2-0.2c3.7-0.5,7.4-0.9,11.1,0.3c-8.1,0.8-16.2,1-24.4,0.7
			c-0.3-0.2-0.4-0.4-0.3-0.6C617.8,507.1,617.9,507.1,618,507.1z"/>
		<path class="st75" d="M576.1,506.8c1.8,1.6,3.9,1.1,6,1.1c3.7-0.9,7.5-0.3,11.2-0.4c0.2,0.2,0.5,0.3,0.7,0.5
			c-5.4,1.2-10.9,0.4-16.3,0.9C576.1,509.1,575.8,508.2,576.1,506.8z"/>
		<path class="st76" d="M642.3,507.2c-3.7-0.1-7.4-0.2-11.1-0.3c3.8-1.9,7.9-0.4,11.8-0.9c0.3,0.2,0.4,0.4,0.3,0.7
			c-0.1,0.2-0.2,0.3-0.3,0.3l-0.3,0.3L642.3,507.2z"/>
		<path class="st77" d="M618,507.1c0,0.3,0,0.5,0,0.8c-4,0-8,0-12,0C609.9,506.1,614,507.4,618,507.1z"/>
		<path class="st78" d="M643,507c0-0.3,0-0.6,0-1c3.7,0.1,7.4,0.1,11.1,0.2c0,0.3,0,0.6-0.1,0.9C650.3,507.1,646.7,507,643,507z"/>
		<path class="st79" d="M594.1,507.1c3.7,0.3,7.4-1.1,11,0.8c-3.7,0.1-7.3,0.1-11,0.2c0,0,0-0.2,0-0.2c-0.3-0.2-0.4-0.4-0.3-0.6
			C593.8,507.2,594,507.1,594.1,507.1z"/>
		<path class="st80" d="M594.1,507.1c0,0.3-0.1,0.5-0.1,0.8c-4,0-7.9,0.1-11.9,0.1C586,506,590.1,507.4,594.1,507.1z"/>
	</g>
</g>
</svg>
