<?xml version="1.0" encoding="utf-8"?>
<!-- Generator: Adobe Illustrator 22.1.0, SVG Export Plug-In . SVG Version: 6.00 Build 0)  -->
<svg version="1.1" id="Layer_1" xmlns="http://www.w3.org/2000/svg" xmlns:xlink="http://www.w3.org/1999/xlink" x="0px" y="0px"
	 viewBox="0 0 1728 216" style="enable-background:new 0 0 1728 216;" xml:space="preserve">
<style type="text/css">
	.st0{fill:#4667F7;}
	.st1{fill:#6070BA;}
	.st2{fill:#5D74DC;}
	.st3{fill:#687CD4;}
	.st4{fill:#283593;}
	.st5{fill:#FFFFFF;}
	.st6{fill:#4566F5;}
	.st7{fill:#26A69A;}
	.st8{fill:#26358A;}
	.st9{fill:#1F387A;}
	.st10{fill:#7389D6;}
	.st11{fill:#407494;}
	.st12{fill:#CBCFDE;}
	.st13{fill:#277C8C;}
	.st14{fill:#377F93;}
	.st15{fill:#347C90;}
	.st16{fill:#357B92;}
	.st17{fill:#3F7C95;}
	.st18{fill:#2E8191;}
	.st19{fill:#568FA3;}
	.st20{fill:#3C7B93;}
	.st21{fill:#5590A3;}
	.st22{fill:#3D7D92;}
	.st23{fill:#377A91;}
	.st24{fill:#3B7694;}
	.st25{fill:#317F90;}
	.st26{fill:#2C788C;}
	.st27{fill:#2F7590;}
	.st28{fill:#3D7D93;}
	.st29{fill:#277D8E;}
	.st30{fill:#3D7695;}
	.st31{fill:#34768F;}
	.st32{fill:#6192AA;}
	.st33{fill:#28708D;}
	.st34{fill:#317A90;}
	.st35{fill:#387A90;}
	.st36{fill:#417992;}
	.st37{fill:#2D6D8E;}
	.st38{fill:#236C8A;}
	.st39{fill:#367192;}
	.st40{fill:#2A6C89;}
</style>
<g>
	<g>
		<path class="st0" d="M0.5,96c0-31.8,0-63.7,0-95.5c576,0,1151.9,0,1727.9,0c0,72,0,143.9,0,215.9c-575.9,0-1151.9,0-1727.9,0
			c0-33.9,0-67.8,0-101.7c0.8-0.3,1.2,0.3,1.6,0.8c1.1,4.8,1.5,9.8,2.5,14.6c3.4,15.4,9.8,29.3,19.7,41.6c9.9,12.4,22,22,36.2,28.8
			c6.3,3,12.9,5.1,19.6,6.8c10.2,2.6,20.5,2.9,30.9,2.7c3.3-0.1,6.5-1.1,9.7-1c2.1,0.2,4.1,0,6.1-0.9c0.2-0.1,0.4-0.1,0.7-0.2
			c0.8,0,1.5-0.3,2.2-0.4c0.2-0.1,0.4-0.1,0.6-0.1c0.9,0,1.8-0.4,2.6-0.8c0.2-0.1,0.4-0.1,0.6-0.2c0.8-0.1,1.6-0.4,2.3-0.8
			c0.2-0.1,0.4-0.2,0.6-0.2c0.3-0.1,0.6-0.2,0.8-0.2c0.2-0.1,0.4-0.1,0.5-0.1c0.3-0.1,0.7-0.2,1-0.3c0.2-0.1,0.3-0.1,0.5-0.2
			c0.3-0.1,0.7-0.2,1-0.3c0.2-0.1,0.3-0.1,0.5-0.2c0.2-0.1,0.5-0.2,0.7-0.3c0.2-0.1,0.3-0.2,0.5-0.2c0.2-0.1,0.5-0.2,0.7-0.3
			c0.2-0.1,0.3-0.1,0.5-0.2c0.2-0.1,0.5-0.2,0.8-0.3c0.2-0.1,0.3-0.1,0.5-0.2c0.2-0.1,0.5-0.2,0.7-0.2c0.2-0.1,0.3-0.1,0.5-0.2
			c0.2-0.1,0.5-0.2,0.7-0.3c0.1-0.1,0.3-0.2,0.4-0.2c0.1-0.1,0.3-0.2,0.4-0.2c0.1-0.1,0.3-0.2,0.4-0.2c0.1-0.1,0.3-0.2,0.4-0.2
			c0.1-0.1,0.3-0.2,0.4-0.3c0.1-0.1,0.3-0.2,0.4-0.2c0.1-0.1,0.3-0.1,0.5-0.2c0.2-0.1,0.4-0.2,0.6-0.4c0.1-0.1,0.3-0.2,0.4-0.3
			c0.1-0.1,0.3-0.2,0.4-0.2c0.1-0.1,0.3-0.1,0.4-0.2c0.1-0.1,0.3-0.1,0.4-0.2c0.1-0.1,0.3-0.2,0.4-0.2c0.1-0.1,0.3-0.2,0.4-0.2
			c0.1-0.1,0.3-0.2,0.4-0.2c0.2-0.1,0.4-0.2,0.6-0.3c0.1-0.1,0.3-0.2,0.4-0.2c0.3-0.2,0.6-0.4,0.9-0.6c0.1-0.1,0.3-0.2,0.5-0.3
			c0.2-0.1,0.3-0.2,0.5-0.3c0.2-0.1,0.3-0.2,0.5-0.3c0.4-0.2,0.7-0.4,1.1-0.6c0.2-0.1,0.4-0.2,0.6-0.3c1.5-0.4,2.7-1.3,3.8-2.3
			c0.1-0.2,0.3-0.3,0.4-0.4c0.5-0.3,1.1-0.5,1.5-1c0.1-0.2,0.3-0.3,0.4-0.4c0.3-0.2,0.6-0.4,0.9-0.6c0.1-0.2,0.3-0.3,0.4-0.4
			c0.1-0.1,0.3-0.3,0.5-0.4c0.2-0.1,0.3-0.2,0.5-0.3c0.4-0.2,0.9-0.5,1.2-0.9c0.1-0.2,0.3-0.3,0.5-0.4c0.6-0.3,1.2-0.6,1.7-1.2
			c0.1-0.2,0.2-0.3,0.3-0.5c0.1-0.2,0.3-0.3,0.4-0.5c0.1-0.1,0.2-0.1,0.2-0.2c0.1-0.1,0.3-0.3,0.5-0.4c0.2-0.1,0.3-0.2,0.5-0.3
			c0.7-0.3,1.2-0.8,1.5-1.5c0.1-0.2,0.3-0.3,0.4-0.5c0.4-0.4,1-0.6,1.4-1c0.1-0.2,0.2-0.3,0.3-0.4c0.1-0.1,0.2-0.3,0.4-0.4
			c0.1-0.1,0.1-0.1,0.2-0.2c0.1-0.1,0.2-0.3,0.4-0.4c0.1-0.1,0.1-0.1,0.2-0.2c0.1-0.2,0.2-0.3,0.4-0.4c0.1-0.1,0.1-0.1,0.2-0.2
			c0.1-0.2,0.3-0.3,0.4-0.4c0.1-0.1,0.2-0.1,0.3-0.2c1-0.8,1.9-1.6,2.5-2.7c0.1-0.2,0.2-0.4,0.3-0.5c0.1-0.2,0.2-0.3,0.4-0.5
			c0.1-0.1,0.1-0.1,0.2-0.2c0.1-0.2,0.2-0.3,0.4-0.4c0.1-0.1,0.1-0.1,0.2-0.2c0.1-0.1,0.2-0.3,0.4-0.4c0.1-0.1,0.1-0.1,0.2-0.2
			c0.1-0.1,0.3-0.3,0.4-0.4c0.1-0.1,0.2-0.1,0.2-0.2c0.4-0.3,0.6-0.7,0.8-1.1c0.1-0.2,0.2-0.3,0.3-0.5c0.1-0.2,0.2-0.3,0.4-0.4
			c0.1-0.1,0.1-0.1,0.2-0.2c0.3-0.2,0.5-0.5,0.7-0.8c0.1-0.2,0.2-0.3,0.3-0.5c0.1-0.2,0.2-0.3,0.3-0.4c0.1-0.1,0.1-0.1,0.2-0.2
			c0.3-0.2,0.5-0.5,0.6-0.8c0.1-0.2,0.2-0.3,0.3-0.5c0.1-0.2,0.2-0.3,0.3-0.4c0.1-0.1,0.1-0.1,0.2-0.2c0.2-0.3,0.5-0.6,0.6-0.9
			c0.1-0.2,0.2-0.3,0.3-0.5c0.2-0.3,0.4-0.6,0.6-0.9c0.1-0.2,0.2-0.3,0.3-0.5c0.3-0.3,0.4-0.6,0.6-1c0.1-0.2,0.2-0.3,0.3-0.5
			c0.2-0.3,0.4-0.6,0.5-1c0.1-0.2,0.1-0.3,0.2-0.5c0.1-0.2,0.2-0.3,0.3-0.5c0-0.1,0.1-0.1,0.2-0.2c0.1-0.2,0.3-0.4,0.5-0.6
			c0.1-0.1,0.2-0.3,0.3-0.4c0.1-0.1,0.2-0.3,0.3-0.4c0-0.1,0.1-0.1,0.1-0.2c0.1-0.1,0.2-0.3,0.3-0.4c0.1-0.1,0.1-0.3,0.2-0.4
			c0.1-0.2,0.2-0.4,0.3-0.6c0-0.2,0.1-0.3,0.2-0.4c0-0.2,0.1-0.3,0.2-0.4c0.1-0.2,0.1-0.3,0.2-0.4c0.1-0.2,0.2-0.4,0.3-0.6
			c0-0.2,0.1-0.3,0.2-0.4c0-0.2,0.1-0.3,0.2-0.4c0.1-0.2,0.1-0.3,0.2-0.4c0.1-0.2,0.2-0.4,0.3-0.6c0-0.2,0.1-0.3,0.2-0.4
			c0.1-0.2,0.1-0.3,0.2-0.4c0.1-0.2,0.1-0.3,0.2-0.4c0.1-0.2,0.2-0.4,0.3-0.6c0-0.2,0.1-0.3,0.2-0.5c0.1-0.2,0.2-0.5,0.3-0.7
			c0.1-0.2,0.1-0.3,0.2-0.5c0.1-0.2,0.2-0.3,0.3-0.4c0-0.1,0.1-0.1,0.1-0.2c0.1-0.2,0.3-0.4,0.4-0.6c0.1-0.1,0.1-0.3,0.2-0.4
			c0.1-0.2,0.2-0.4,0.3-0.6c0-0.2,0.1-0.3,0.2-0.5c0.1-0.2,0.1-0.5,0.2-0.7c0-0.2,0.1-0.3,0.2-0.5c0.1-0.3,0.3-0.6,0.4-1
			c0-0.2,0.1-0.3,0.1-0.5c0-0.2,0.1-0.3,0.2-0.5c0.1-0.2,0.1-0.3,0.2-0.5c0.2-0.3,0.3-0.6,0.4-0.9c0-0.2,0.1-0.3,0.2-0.5
			c0.1-0.3,0.3-0.6,0.3-1c0-0.2,0.1-0.4,0.1-0.5c0.1-0.3,0.2-0.7,0.3-1c0-0.2,0.1-0.4,0.2-0.6c0.4-0.7,0.7-1.4,0.7-2.2
			c0-0.2,0.1-0.4,0.2-0.6c0.7-1.3,1-2.8,1.3-4.3c0-0.2,0-0.4,0.1-0.6c0.1-0.7,0.5-1.3,0.5-2.1c0-0.2,0-0.4,0-0.6
			c0.4-1.3,0.7-2.6,1-3.9c0-0.2,0-0.4,0.1-0.6c0.2-0.4,0.4-0.8,0.7-1.1c1.3-0.7,1.1-1.6,0.3-2.6c-0.2-0.9,0-1.9-0.2-2.8
			c-0.1-0.2-0.1-0.5,0-0.7c0.2-1.2,0.6-2.3,0.7-3.5c0.7-1,1.6-1.9,0.4-3.1c-0.1-0.8,0-1.7-0.1-2.5c0-0.7-0.2-1.4-0.4-2.2
			c0-0.5,0-1,0.2-1.4c1.8-2,1.6-6.3-0.4-8c-0.4-0.8-0.2-1.6-0.4-2.4c-0.1-0.3-0.2-0.7-0.3-1c-0.1-0.6-0.3-1.1-0.3-1.6
			c-0.1-0.3-0.2-0.6-0.2-1c-0.1-0.7,0-1.5-0.2-2.2c-0.1-0.3-0.2-0.6-0.3-0.9c-0.1-0.4-0.2-0.8-0.3-1.2c-0.1-0.3-0.1-0.6-0.2-0.9
			c0-0.3-0.1-0.6-0.1-0.9c-0.1-0.4-0.3-0.8-0.3-1.3c0-0.3,0.1-0.7,0.2-1c0.1-0.2,0.4-0.4,0.4-0.6c0.5-1.8-2-8.5-3.5-9.6
			c0-1.4,0.4-2.7-0.6-4c-0.5-0.7-1-1.2-1.8-1.4c-0.2-0.1-0.4-0.3-0.5-0.5c-0.2-0.3-0.4-0.6-0.5-1c0-0.2-0.1-0.5,0-0.7
			c0.8-1.1,0.8-2.3,0-3.3c-2.5-3.1-4-6.8-6.2-10.2c-0.5-0.7-1.3-0.8-2-1.2c-0.3-0.2-0.6-0.4-0.8-0.7c-0.1-0.2-0.2-0.4-0.2-0.7
			c0.2-0.9,0.5-1.9-0.8-2.4c-0.5-0.2-0.7-0.7-0.8-1.1c-0.6-2.2-2-3.4-4.2-3.9c-0.8-1.1-0.4-3.3-2.7-3.1c-0.3-0.1-0.6-0.3-0.8-0.6
			c-0.2-0.2-0.4-0.5-0.6-0.7c-0.2-0.5-0.5-1-1.2-1.2c-1.1-0.7-2-1.7-2.8-2.7c-0.6-2.9-0.9-3.2-3.4-3.2c-0.3-0.2-0.6-0.4-0.7-0.7
			c0-2-1.1-3-3-3.2c-0.6-0.1-1.3-0.1-1.7-0.6c-0.3-1.3-0.8-2.3-2-3c-5.8-3.6-11.5-7.4-17.8-10c-4.5-1.9-9-4.1-14-4.4
			c-0.5,0-0.9-0.2-1.3-0.5c-1.6-1.1-3.4-1.5-5.2-1.4c-1.7,0.1-3.3,0-4.9-0.7c-1.1-0.5-2,0-2.8,0.7c-0.3,0.1-0.7,0.1-1,0
			c-0.9-1-1.9-0.7-2.9-0.3c-1.3,0-2.5,0.1-3.8,0c-0.4-0.1-0.8-0.2-1.2-0.2c-3.3-0.3-6.6-0.2-9.9-0.1c-0.5,0.1-1,0.2-1.5,0.3
			C96.3,6,95.1,6,94,6.1c-0.5,0-0.9,0.2-1.4,0.3c-0.8,0.1-1.6,0.1-2.4,0.2c-0.3,0.1-0.7,0.2-1,0.3c-0.7,0.1-1.3,0.4-2,0.4
			c-1.3,0.1-2.5,0.1-3.7-0.6c-1.5-0.8-3.2-0.5-4.6,0.3c-1.4,0.8-2.9,1.1-4.5,1.5c-9.5,2.2-18.3,6.3-26.3,11.8
			c-4.2,2.9-8.3,5.9-12,9.4c-1.7,1.5-3.7,3-4.6,5.6c-0.7,2.1-3.2,3.1-4.2,5.2c-0.1,0.2-0.3,0.4-0.4,0.5c-1.2,0.9-2.3,2-3.8,2.3
			c-0.4,0.1-0.7,0.3-1,0.7c-2,3.3-4.9,6-6.8,9.5c-0.7,1.3-0.9,2.7-0.7,4.1c0,0.2,0,0.5-0.1,0.7c-0.1,0.4-0.3,0.6-0.6,0.9
			c-0.2,0.2-0.4,0.3-0.6,0.4c-2.4,0.7-2.9,1.6-2.2,4.5c0,0.2-0.1,0.5-0.2,0.7c-0.3,0.4-0.5,0.8-1,1c-1.8,0.6-2.2,2-1.9,3.6
			c0.2,1.2,0,2-1.1,2.6c-1.2,0.7-1.8,2-1.8,3.2c-0.1,2.4-1.8,4.6-0.6,7.2c0.3,0.7,0,1.6-0.9,2c-1.6,0.8-1.4,2.1-0.9,3.5
			c1.1,2.8-0.3,5.3-0.9,7.9C1.7,96.3,1.1,96.5,0.5,96z"/>
		<path class="st0" d="M0.5,96c0.4-0.1,0.8-0.3,0.8-0.8c0.3-1.7,0.7-3.4,1-5.2c0.1-0.6,0.1-1.2-0.3-1.6c-1.1-1-0.5-2.2-0.5-3.4
			c0-0.9,0.3-1.6,1.4-1.5c1.2,0,1.2-0.8,0.8-1.4c-1-1.6-0.8-3.2,0-4.8C3.9,77,3.8,76.4,3.8,76c0.3-2.4,0.8-4.6,3.5-5.3
			c-0.1-1-0.7-1.7-0.6-2.7c0.2-1.8,0.9-2.5,2.9-3c0.4-0.1,0.7-0.4,1-0.6c1,1,0.5,2.1,0.1,3.1c-1.5,4.6-3.6,9-4.8,13.8
			c-1.3,5.3-2.6,10.7-3,16.2c-0.1,1.2-0.3,2.4-1,3.4c-0.4,0.4-0.9,0.7-1.5,0.4C0.5,99.5,0.5,97.8,0.5,96z"/>
		<path class="st1" d="M0.5,101.3c0.3-0.2,0.6-0.4,0.9-0.5c0.6,0.2,1,0.7,1,1.2c0.2,3.5,0.7,7-0.3,10.5c-0.6,0.6-1.1,0.5-1.5-0.1
			c0-1.3,0-2.6,0-3.8c0.4-1.3,0.4-2.6,0-3.8C0.5,103.5,0.5,102.4,0.5,101.3z"/>
		<path class="st2" d="M0.5,112.3c0.3,0.2,0.6,0.3,0.9,0.5c1,1,1.1,2-0.1,2.9c-0.3-0.3-0.5-0.6-0.8-1C0.5,113.9,0.5,113.1,0.5,112.3
			z"/>
		<path class="st3" d="M0.5,104.6c0.7,1.3,0.7,2.6,0,3.8C0.5,107.2,0.5,105.9,0.5,104.6z"/>
		<path class="st4" d="M1.2,115.7c0.2-0.9,0.2-1.9,0.1-2.9c0.1-4,0.2-8,0-12.1c0.7-8.3,2.3-16.4,4.8-24.3c1.1-3.6,2.7-7,4-10.5
			c0.2-0.5,0.4-1,0.5-1.6c0,0,0-0.1,0-0.1c0.3-2.1,0.6-4.2,2.8-5.3l0,0c0.3-0.3,0.2-0.7,0.5-0.9l0,0c0.7-4.2,3.6-7.1,5.7-10.5
			c1.8-2.9,4.6-4.8,6.8-7.2l0,0c3.8-3.9,7-8.3,11.2-11.9c7.8-6.6,16.4-11.8,25.8-15.8c4.2-1.8,8.5-3.6,13.1-4.3c1.6-0.2,3-1,4.5-1.4
			c1.7-0.5,3.3,0.3,5,0c0.5-0.1,0.8-0.5,1.3-0.4c4.4-0.4,8.8-1.3,13.3-1.3c5.4,0,10.7,0.1,16.1,0.7c2.8,0.3,5.7,0.4,8.5,0.8
			c0.2,0,0.5,0.1,0.7,0.1c0.8,0.2,1.5,0.4,2.3,0.6c0.2,0,0.4,0,0.6,0.1c0.4,0.1,0.8,0.2,1.2,0.3c0.2,0,0.4,0.1,0.6,0.2
			c0.8,0.6,1.8,0.7,2.8,0.8c0.2,0,0.4,0,0.6,0c0.5,0.1,0.9,0.3,1.4,0.4c0.2,0,0.4,0.1,0.6,0.1c0.3,0.1,0.5,0.2,0.8,0.3
			c0.2,0,0.4,0.1,0.5,0.2c0.3,0.1,0.7,0.3,1,0.4c0.2,0,0.4,0.1,0.5,0.1c0.3,0.1,0.5,0.2,0.8,0.3c0.2,0,0.3,0.1,0.5,0.2
			c0.2,0.1,0.5,0.2,0.7,0.3c0.2,0,0.3,0.1,0.5,0.2c0.2,0.1,0.5,0.2,0.7,0.3c0.2,0,0.3,0.1,0.5,0.2c0.2,0.1,0.5,0.2,0.7,0.3
			c0.2,0,0.3,0.1,0.5,0.2c0.2,0.1,0.5,0.2,0.7,0.3c0.2,0,0.3,0.1,0.5,0.2c0.2,0.1,0.5,0.2,0.7,0.3c0.2,0,0.3,0.1,0.5,0.2
			c0.2,0.1,0.3,0.1,0.5,0.2c0.1,0,0.2,0.1,0.2,0.1c0.2,0.1,0.5,0.2,0.7,0.3c0.2,0.1,0.3,0.1,0.5,0.2c0.3,0.1,0.5,0.2,0.7,0.4
			c0.2,0.1,0.3,0.2,0.5,0.3c0.4,0.3,0.7,0.6,1.2,0.7c0.2,0,0.3,0.1,0.5,0.2c0.2,0.1,0.5,0.2,0.7,0.3c0.2,0.1,0.3,0.1,0.5,0.2
			c0.2,0.1,0.3,0.1,0.5,0.2c0.2,0.1,0.3,0.2,0.5,0.2c0.2,0.1,0.5,0.3,0.7,0.4c0.2,0.1,0.3,0.2,0.5,0.4c0.4,0.3,0.8,0.6,1.4,0.8
			c0.2,0,0.4,0.1,0.5,0.2c0.2,0.1,0.5,0.3,0.7,0.4c0.2,0.1,0.3,0.2,0.4,0.3c0.2,0.1,0.3,0.2,0.4,0.3c0.1,0,0.1,0.1,0.2,0.1
			c0.2,0.1,0.3,0.2,0.4,0.3c0.2,0.1,0.3,0.2,0.4,0.3c0.2,0.1,0.5,0.3,0.7,0.4c0.2,0.1,0.3,0.2,0.4,0.4c0.4,0.4,0.9,0.7,1.4,0.9
			c0.2,0.1,0.3,0.2,0.5,0.3c0.5,0.5,1.1,0.9,1.7,1.1c0.2,0.1,0.4,0.2,0.5,0.3c0.4,0.4,0.8,0.8,1.2,1.2c0.1,0.1,0.2,0.3,0.4,0.4
			c0.1,0.1,0.2,0.3,0.4,0.4c0.1,0,0.1,0.1,0.2,0.2c0.2,0.1,0.3,0.2,0.5,0.2c0.1,0,0.2,0.1,0.2,0.1c0.3,0.1,0.5,0.1,0.8,0.3
			c0.2,0.1,0.3,0.2,0.4,0.3c0.2,0.3,0.5,0.5,0.8,0.7c0.2,0.1,0.3,0.2,0.5,0.3c0.2,0.1,0.4,0.3,0.6,0.5c0.1,0.1,0.2,0.3,0.3,0.4
			c0.1,0.2,0.1,0.3,0.2,0.5c0,0.1,0.1,0.2,0.1,0.2c0.2,0.2,0.3,0.4,0.6,0.6c0.2,0.1,0.3,0.1,0.5,0.2c0.2,0,0.4,0.1,0.5,0.2
			c0.1,0,0.2,0.1,0.2,0.1c0.2,0.2,0.5,0.3,0.7,0.4c0.2,0.1,0.3,0.2,0.5,0.3c0.2,0.1,0.3,0.2,0.4,0.4c0.1,0.1,0.1,0.2,0.2,0.2
			c0.1,0.2,0.2,0.4,0.3,0.5c0,0.1,0.1,0.2,0.1,0.3c0.1,0.2,0.2,0.4,0.3,0.6c0.1,0.1,0.1,0.2,0.2,0.2c0.9,0.8,1.6,1.7,2.5,2.4
			c0.2,0.1,0.4,0.2,0.5,0.2c0.2,0.1,0.3,0.2,0.4,0.4c0,0.1,0.1,0.2,0.1,0.2c0.1,0.2,0.2,0.3,0.3,0.4c0.1,0.1,0.1,0.1,0.2,0.2
			c0.1,0.1,0.2,0.2,0.3,0.4c0.1,0.1,0.1,0.1,0.2,0.2c0.1,0.1,0.2,0.2,0.4,0.3c0.1,0,0.1,0.1,0.2,0.1c0.2,0.1,0.3,0.1,0.5,0.2
			c0.1,0,0.2,0.1,0.2,0.1c0.2,0.1,0.3,0.2,0.4,0.3c0.1,0.1,0.2,0.3,0.3,0.4c0.1,0.2,0.2,0.5,0.3,0.7c0.1,0.1,0.2,0.3,0.2,0.4
			c0.1,0.2,0.1,0.3,0.2,0.4c0,0.1,0.1,0.1,0.1,0.2c0.1,0.1,0.2,0.3,0.3,0.4c0.1,0,0.1,0.1,0.2,0.1c0.1,0.1,0.3,0.2,0.4,0.2
			c0.1,0.1,0.3,0.2,0.4,0.3c0.1,0.1,0.2,0.2,0.3,0.4c0.1,0.1,0.2,0.3,0.3,0.4c0.1,0.2,0.3,0.4,0.5,0.5c0.1,0.1,0.3,0.2,0.4,0.3
			c0.1,0.1,0.2,0.2,0.3,0.4c0.1,0.1,0.1,0.1,0.2,0.2c0.1,0.1,0.2,0.3,0.3,0.4c0.1,0.1,0.2,0.3,0.3,0.4c0.1,0.1,0.2,0.2,0.3,0.4
			c0,0,0.1,0.2,0.1,0.2c0.1,0.1,0.1,0.3,0.2,0.4c0,0,0.1,0.2,0.1,0.2c0.1,0.1,0.2,0.2,0.3,0.3c0.1,0.1,0.2,0.2,0.3,0.4
			c0.1,0.1,0.2,0.3,0.3,0.4c0.1,0.1,0.2,0.3,0.3,0.4c0.1,0.1,0.1,0.3,0.2,0.5c0,0.2,0,0.3,0,0.5c0,0.4,0.2,0.7,0.4,0.9
			c0.1,0.1,0.3,0.2,0.4,0.4c0.2,0.1,0.3,0.2,0.4,0.3c0.1,0.1,0.3,0.3,0.4,0.4c0.4,0.6,0.8,1.1,1.3,1.7c0.1,0.2,0.2,0.4,0.3,0.6
			c0.1,0.2,0.1,0.5,0.1,0.7c0,0.1,0,0.2-0.1,0.4c-0.1,0.2-0.2,0.4-0.4,0.6c-4.6,3.5-9.6,6.3-14.4,9.5c-10.6,7-21.4,13.7-31.9,20.7
			c-1,0.7-2,1.4-3.3,0.9c-2.9-2.7-4.5-6.4-6.6-9.6c-8.9-14-17.6-28-26.4-42c-1.9-3-3.8-6.1-5.7-9.1c-0.9-1.4-1.4-1.1-2.1,0.1
			C94.6,36.8,88.1,48.4,81.6,60c-6.5,11.5-13,22.9-19.5,34.4c-6.6,11.7-13.1,23.4-19.8,35c-5.2,9.1-10.2,18.2-15.4,27.3
			c-0.6,1-1.2,2.1-2,3c-0.2,0.2-0.3,0.5-0.4,0.8c0,0.2,0,0.4,0,0.6c0.9,1.4,2.1,0.2,3.1,0.4c11.1-0.4,22.3-0.7,33.4-1
			c3.7-0.1,7.5-0.4,11.2-0.4c2.1,0,3.1-1,3.9-2.8c1.7-3.9,3.3-7.8,5.4-11.4c0.3-0.5,0.5-0.9,0.6-1.5c0.6-1.3,1.8-1.8,3-2.1
			c11.2-3.3,22.4-6.9,33.7-10.1c0.8-0.2,1.5-0.4,2.4-0.2c0.5,0.2,0.8,0.6,1.2,1c1,0.9,1.5,2.1,2,3.2c4,8.1,8.1,16.1,12.4,24
			c0.7,0.9,1.7,0.8,2.6,0.8c15,0,30,0,45.1,0c0.8,0,1.6,0.2,2.2-0.6c-1.7-3.4-4-6.3-6.2-9.3c-6.1-8.7-12.3-17.4-18.4-26.1
			c-0.8-1.2-1.8-2.3-1.1-3.9c2.2-1.9,5.1-2.2,7.7-3c3.3-1.1,6.7-2.1,10.1-3.1c0.9-0.3,1.7-0.9,2.5-1.4c7.5-2.7,15.2-4.7,22.8-7
			c1.1-0.3,2.4-0.7,3.1,0.8c0.3,3.6,0.2,7.1-0.4,10.7l0,0.1c-0.7,2.3,0.3,4.9-0.9,7.1l0,0.1c-0.4,1.6-0.6,3.1-0.9,4.7l0,0.1
			c-0.5,0.7,0.1,1.6-0.5,2.3l0,0.1c-0.5,1.7-0.8,3.5-1.4,5.2l0,0.1c-0.5,0.9-0.6,1.9-0.9,2.8l0,0.1c-0.4,0.4,0,1-0.5,1.4l0,0.1
			c-0.4,0.4,0,1-0.4,1.4l-0.1,0.1c-0.4,0.4,0,1-0.5,1.4c-0.1,0.1-0.1,0.2-0.1,0.3c-0.1,0.2-0.2,0.4-0.4,0.6l0,0.1
			c-0.4,0.4,0,1-0.5,1.4c-0.1,0.1-0.1,0.2-0.1,0.4c-0.2,0.3-0.1,0.8-0.4,1l0,0c-0.2,0.3-0.1,0.7-0.4,0.9l0,0.1
			c-0.3,0.2-0.2,0.7-0.4,0.9l0,0c-0.1,0.1-0.2,0.2-0.3,0.4c-0.1,0.2-0.1,0.3-0.2,0.5c-0.2,0.3-0.1,0.7-0.4,1l0,0
			c-0.3,0.2-0.2,0.7-0.4,0.9c-0.1,0.1-0.1,0.2-0.1,0.4c-0.1,0.2-0.2,0.4-0.4,0.6l-0.1,0.1c-0.3,0.2-0.2,0.7-0.5,0.9
			c-0.1,0.1-0.1,0.2-0.1,0.4c-0.1,0.2-0.2,0.4-0.4,0.6l0,0.1c-0.3,0.2-0.2,0.7-0.5,0.9c-0.1,0.1-0.1,0.2-0.1,0.3
			c-0.1,0.2-0.2,0.4-0.4,0.6l0,0.1c-0.3,0.2-0.2,0.7-0.4,0.9l0,0.1c-0.3,0.2-0.2,0.7-0.5,0.9l0,0c-0.1,0.2-0.3,0.3-0.4,0.4l-0.1,0.1
			c-0.2,0.2-0.2,0.6-0.4,0.8l0,0.1c-0.1,0.1-0.2,0.3-0.3,0.4c-0.1,0.2-0.1,0.3-0.2,0.5c-0.3,0.5-0.5,1-0.9,1.5l0,0.1
			c-0.3,0.5-0.6,1-0.9,1.4l0,0c-0.3,0.5-0.6,1-0.9,1.4l0,0c-0.3,0.5-0.6,1-0.9,1.4l0,0c-0.1,0.2-0.3,0.3-0.4,0.5l0,0
			c-0.3,0.5-0.5,1-1,1.4l0,0c-0.1,0.2-0.3,0.3-0.5,0.5l0,0c-0.3,0.5-0.6,1-1,1.4l0,0c-0.1,0.2-0.3,0.3-0.5,0.5l0,0
			c-0.4,0.7-0.9,1.3-1.5,1.9l0,0c-0.1,0.2-0.3,0.4-0.5,0.5l0,0c-0.1,0.2-0.3,0.4-0.5,0.5l0,0c-0.1,0.2-0.3,0.3-0.4,0.5l0,0
			c-0.1,0.1-0.3,0.3-0.4,0.4l-0.1,0.1c-0.9,1.4-2.4,2.4-3.3,3.8l0,0c-0.1,0.2-0.3,0.3-0.5,0.5l0,0c-0.1,0.2-0.3,0.3-0.5,0.5l0,0
			c-0.1,0.2-0.3,0.3-0.5,0.5l0,0c-0.1,0.2-0.3,0.4-0.5,0.5l0,0c-0.6,0.5-1.2,1-1.8,1.5l-0.1,0.1c-0.7,0.8-1.4,1.7-2.4,2.2l0,0
			c-0.1,0.2-0.3,0.3-0.5,0.5l0,0c-0.1,0.2-0.3,0.3-0.5,0.5l0,0c-0.8,0.6-1.5,1.4-2.4,1.9l0,0c-0.6,0.5-1.2,1-1.9,1.4l-0.1,0.1
			c-0.1,0.2-0.3,0.3-0.4,0.4l0,0c-0.4,0.4-0.9,0.6-1.4,0.9l0,0c-0.6,0.5-1.2,1-1.9,1.4l0,0c-1.4,1.1-2.8,2.1-4.3,2.8
			c-0.2,0.1-0.3,0.1-0.5,0.2c-0.3,0.5-0.9,0.5-1.3,0.8l-0.1,0.1c-0.1,0.2-0.3,0.3-0.5,0.4c-0.2,0-0.3,0.1-0.4,0.2
			c-0.3,0.6-1,0.5-1.4,0.8l0,0c-0.2,0.3-0.6,0.2-0.9,0.5l-0.1,0.1c-0.1,0.2-0.3,0.3-0.5,0.4l0,0c-0.3,0.3-0.7,0.3-1,0.4
			c-0.1,0-0.3,0-0.4,0.1c-0.2,0.2-0.3,0.3-0.5,0.4l0,0c-0.3,0.5-1,0.1-1.4,0.5l0,0c-0.1,0.2-0.3,0.3-0.5,0.5l0,0
			c-0.2,0.3-0.7,0.2-1,0.5l0,0c-0.2,0.3-0.7,0.2-1,0.5l0,0c-0.2,0.3-0.7,0.2-1,0.5l0,0c-0.4,0.5-1,0.1-1.4,0.5l0,0
			c-0.3,0.5-1,0.1-1.4,0.5l-0.1,0c-0.2,0.3-0.7,0.2-0.9,0.4l0,0c-0.4,0.5-1,0.1-1.4,0.5l-0.1,0c-0.4,0.4-1,0-1.4,0.5l-0.1,0
			c-0.4,0.4-1,0-1.4,0.4l0,0c-0.3,0.3-0.7,0.2-1,0.5c-0.2,0-0.3,0-0.4,0.1c-1,0.3-1.9,0.4-2.8,0.9l0,0c-1.1,0.4-2.2,0.6-3.3,0.9
			l-0.1,0c-0.7,0.5-1.6-0.1-2.3,0.4l-0.1,0c-2.2,0.7-4.4,1-6.7,1.4c-1.9,0.1-3.8,0.4-5.7,0.6c-8.2,0.8-16.4,0.7-24.6-0.3
			c-6.3-0.8-12.4-2.2-18.4-4.1c-6.2-2-12.1-4.5-17.8-7.7c-6.2-3.4-11.9-7.5-17.3-12c-5.8-4.9-10.8-10.4-15.4-16.4
			c-6.3-8.1-11-17-14.5-26.7c-1.8-4.9-3.2-10-4.1-15.2C2.4,124.2,1.9,119.9,1.2,115.7z"/>
		<path class="st5" d="M1028.8,165.6c-8.8,0-17.6,0-26.4,0c-0.6,0-1.1,0-1.7,0c-1,0-1.5-0.3-1.5-1.4c0-0.9,0.2-1.5,1.3-1.6
			c2.5-0.3,4.9-0.6,7.3-1.5c4.7-1.7,7.5-5,8-10.1c0.2-1.8-0.1-3.5-0.4-5.2c-0.5-2.2-1.2-4.3-2-6.4c-3.1-8.1-6.2-16.1-9.3-24.2
			c-0.8-2-0.8-2-2.9-2c-11.7,0-23.4,0-35,0c-1.4,0-2.1,0.3-2.6,1.7c-2.5,7.1-5.1,14.1-7.6,21.2c-1.2,3.3-2.1,6.7-2.5,10.2
			c-0.9,8.1,3.5,14.3,11.5,15.9c0.5,0.1,0.9,0.3,1.4,0.3c1.2,0,1.4,0.7,1.4,1.7c0,1.1-0.7,1.2-1.6,1.2c-2,0-4,0-6,0
			c-10.1,0-20.2,0-30.2,0c-0.6,0-1.3,0-1.9,0c-0.8,0-1.1-0.6-1.1-1.3c0-0.7-0.1-1.5,1-1.6c0.2,0,0.5,0,0.7-0.1
			c4.8-0.6,8.6-2.9,11.6-6.6c3-3.6,5.3-7.6,7.3-11.8c3-6.7,5.5-13.6,8.1-20.5c10.6-28.9,21.1-57.8,31.6-86.7c1-2.7,0.4-2.4,3.5-2.4
			c0.4,0,0.8,0,1.2,0c1.2-0.2,1.9,0.3,2.3,1.5c0.8,2.3,1.7,4.5,2.6,6.7c12.5,32.1,25,64.2,37.5,96.3c1.2,3.1,2.5,6.1,3.8,9
			c0.7,1.5,1.5,3,2.3,4.5c3,5.6,7.7,8.8,14.1,9.6c1,0.1,1.9,0.4,2.8,0.4c1.2,0.1,1.4,0.7,1.4,1.8c0,1.2-0.8,1.2-1.7,1.2
			c-6.6,0-13.3,0-19.9,0C1034.4,165.6,1031.6,165.6,1028.8,165.6z"/>
		<path class="st5" d="M336.5,165.6c-8.9,0-17.8,0-26.6,0c-0.6,0-1.3,0-1.9,0c-0.8,0-1.1-0.5-1.1-1.3c0-0.7-0.1-1.5,1-1.6
			c2.5-0.3,5.1-0.7,7.5-1.5c5.2-1.7,8.2-6,8.2-11.4c0-1.7-0.4-3.3-0.8-5c-0.5-2.2-1.3-4.3-2.1-6.4c-2.9-7.7-5.9-15.4-8.8-23.1
			c-0.9-2.4-0.6-2.2-3-2.2c-11.6,0-23.2,0-34.8,0c-2.4,0-2-0.1-2.7,1.8c-2.5,6.8-5,13.7-7.4,20.5c-1.3,3.8-2.5,7.6-2.7,11.6
			c-0.4,8.2,3.8,13.5,11.9,15.2c0.5,0.1,0.9,0.2,1.4,0.2c1,0,1.1,0.7,1.1,1.5c0,0.8-0.2,1.4-1.2,1.4c-0.5,0-1,0-1.4,0
			c-11.8,0-23.7,0-35.5,0c-0.4,0-0.8,0-1.2,0c-1,0.1-1.5-0.3-1.5-1.3c0-0.9,0.2-1.5,1.3-1.6c1.1-0.1,2.2-0.3,3.3-0.6
			c3.3-0.9,5.9-2.8,8.1-5.3c3.2-3.5,5.6-7.6,7.6-11.9c3.1-6.7,5.6-13.6,8.1-20.5c10.6-29,21.1-58,31.7-86.9c1.2-3.3,0.5-2.8,4-2.8
			c2.9,0,2.4-0.4,3.5,2.5c13.3,34.2,26.6,68.4,39.9,102.6c1.2,3,2.5,5.9,3.8,8.8c0.7,1.5,1.4,2.9,2.2,4.3c3,5.5,7.6,8.7,13.9,9.5
			c1,0.1,2.1,0.4,3.1,0.5c1.1,0.1,1.2,0.8,1.2,1.6c0,0.9-0.4,1.3-1.3,1.3c-0.6,0-1.1,0-1.7,0C354.4,165.6,345.4,165.6,336.5,165.6z"
			/>
		<path class="st5" d="M1666.6,160.3c-0.8-0.9-1.7-1.7-2.5-2.6c-4.5-5-4.4-14.7,4-18.5c1.7-0.8,3.4-1.3,5.2-1.9
			c0.6-0.2,1.3-0.5,2-0.7c-0.7-0.9-1.7-1.2-2.4-1.7c-5.2-3.5-9.2-8.1-10.5-14.3c-2.1-9.3,1-17.1,8.1-23.2c7.7-6.6,18.5-8.3,28.5-2
			c2.2,1.4,3.6,1.4,5.6-0.2c3.5-2.9,7.7-4,12.3-3.6c2.3,0.2,4.3,1,6,2.8c1.4,1.5,2,3.2,1.8,5.3c-0.4,3.6-3.9,5.3-6.9,3.4
			c-0.7-0.4-1.2-1-1.8-1.6c-0.5-0.6-1-1.2-1.4-1.9c-2.6-4.4-6.8-3.4-9.6-1.2c-0.9,0.7-0.9,1.3-0.3,2.2c1.2,1.5,2.1,3.2,2.9,4.9
			c2.3,4.8,3.2,9.8,2.3,15.2c-0.7,4.2-2.5,7.9-5.5,10.9c-4.7,4.6-10.4,7.3-17.1,7.8c-3.4,0.2-6.9,0.3-10.3,0.9
			c-1.9,0.3-3.8,0.8-5.4,1.8c-1.9,1.1-2.8,2.8-2.6,5c0.2,2.1,1.7,3.1,3.6,3.8c2.2,0.7,4.4,0.8,6.6,0.8c5.4,0,10.9,0,16.3,0.1
			c3.3,0,6.5,0.6,9.7,1.6c10.9,3.8,15.2,12.1,14,22.7c-0.9,7.6-5,13-11.7,16.5c-3.7,1.9-7.6,3-11.6,3.5c-7.6,1.1-15.1,1-22.6-0.7
			c-3.8-0.9-7.3-2.3-10.4-4.8c-5.4-4.4-7.7-11.8-5.6-18.4c1.4-4.5,4.4-7.5,8.9-9c1.3-1.2,2.7-0.7,4.1-0.4c3.5,0.8,6.8,2,7.7,6.2
			c0.1,0.5,0.2,1.1,0.3,1.6c0,1.4-0.2,2.6-1.6,3.1c-1.3,0.5-2.3-0.2-3.1-1.2c-1.1-1.4-2.3-2.4-4.2-2.4c-2.7,0.1-4.4,1.7-5.2,4
			c-1.6,4.3-1,9.7,3.3,13.3c3.9,3.3,8.5,4.8,13.4,5.3c7.9,0.8,15.5-0.2,21.9-5.5c4.2-3.4,5.9-10.4,3.7-15.3
			c-2.1-4.5-6.2-5.9-10.7-6.6c-5.6-0.8-11.2-0.4-16.7-0.4c-2,0-4-0.1-5.8-1.1c-0.9-0.5-1.9-0.9-3-0.9
			C1668.4,162.7,1667.2,161.8,1666.6,160.3z"/>
		<path class="st5" d="M1591.7,101.4c1.4-1.2,2.5-2.2,3.6-3c8.5-6.8,18.2-8.4,28.5-5.6c6.6,1.7,11.4,5.7,13.3,12.6
			c0.6,2.1,0.7,4.2,0.7,6.4c0,11.6,0,23.2,0,34.8c0,2.5,0,4.9,0.4,7.4c0.5,3.9,2.5,6.5,6.2,7.8c1.2,0.4,2.4,0.8,3.7,1.1
			c0.8,0.2,1.2,0.7,1.1,1.5c0,0.9-0.6,1.2-1.4,1.2c-0.6,0-1.1,0-1.7,0c-9.9,0-19.8,0-29.8,0c-0.6,0-1.1,0-1.7,0
			c-0.8,0-1.4-0.1-1.4-1.1c0-1,0.4-1.5,1.3-1.6c0.9-0.1,1.9-0.4,2.8-0.6c3.5-0.7,5.5-3,6.5-6.4c0.6-2.2,0.9-4.4,0.9-6.6
			c0.3-12.2,0.3-24.5,0-36.7c0-2.1-0.3-4.1-0.8-6.2c-1.5-6.5-6-10.3-12.6-10.8c-10.5-0.8-18.1,5.5-19.3,16c-0.4,3.1-0.5,6.2-0.5,9.3
			c0,9.4,0,18.9,0.1,28.3c0,1.8,0.1,3.5,0.4,5.3c0.6,3.5,2.5,5.8,5.7,7.2c1.3,0.5,2.7,1,4.1,1.2c0.9,0.2,1.1,0.7,1.1,1.6
			c-0.1,1-0.6,1.2-1.4,1.2c-2.1,0-4.2,0-6.2,0c-8.4,0-16.8,0-25.2,0c-0.6,0-1.3,0-1.9,0c-0.8,0-1.2-0.4-1.2-1.2
			c0-0.7,0.1-1.3,0.9-1.4c1-0.2,2-0.4,3-0.6c3.7-0.7,5.8-3.1,6.8-6.7c0.6-2.3,0.9-4.7,0.9-7.1c0.2-12.7,0.2-25.4,0-38.1
			c0-1.9-0.2-3.8-0.8-5.7c-1.2-4.1-3.6-6.9-8.1-7.3c-0.3,0-0.6-0.1-0.9-0.2c-0.8-0.1-1-0.6-1-1.4c0-0.7,0.2-1.2,1.1-1.3
			c2.7-0.4,5.4-0.8,8.1-1.2c3.8-0.5,7.6-1.1,11.4-1.6c2-0.3,2-0.2,2.4,1.7C1591.3,95.9,1591.4,98.5,1591.7,101.4z"/>
		<path class="st5" d="M1410.8,101.3c1.2-0.4,1.7-1.2,2.3-1.7c8.8-7.7,18.9-9.8,30-6.8c7.1,1.9,12,6.3,13.5,13.8
			c0.4,2.1,0.4,4.3,0.4,6.5c0,10.9,0,21.8,0,32.6c0,2.3,0.1,4.6,0.2,7c0.3,5.3,2.5,8,7.5,9.6c0.7,0.2,1.4,0.4,2.1,0.5
			c1,0.2,1.6,0.6,1.5,1.7c-0.1,1.2-1,1.1-1.7,1.1c-2.6,0-5.3,0-7.9,0c-7.8,0-15.7,0-23.5,0c-0.6,0-1.1,0-1.7,0
			c-0.8,0-1.1-0.4-1.1-1.2c0-0.7,0.2-1.3,1-1.4c0.9-0.2,1.9-0.4,2.8-0.6c4.2-0.8,6.3-3.5,7.2-7.4c0.7-3.2,0.8-6.5,0.9-9.8
			c0.1-9.4,0.1-18.9,0-28.3c0-3.4-0.2-6.7-0.8-10c-1.3-6.6-6-10.8-12.8-11.3c-10.8-0.8-18.5,5.8-19.3,16.7
			c-0.3,3.6-0.5,7.2-0.5,10.8c0.1,8,0,16,0.1,24c0,2,0.2,4,0.3,6c0.3,4.6,2.6,7.6,7,9c0.8,0.3,1.7,0.5,2.5,0.7
			c1,0.2,1.6,0.5,1.5,1.7c-0.1,1.4-1.1,1.1-1.9,1.1c-1.3,0-2.6,0-3.8,0c-9.1,0-18.2,0-27.4,0c-0.6,0-1.3,0-1.9,0
			c-0.7,0-0.9-0.5-0.9-1.1c0-0.6-0.1-1.2,0.7-1.4c0.5-0.1,1.1-0.2,1.6-0.3c5.7-1.1,7.8-3.2,8.9-8.9c0.5-2.5,0.6-5.1,0.6-7.6
			c0.2-12.6,0.4-25.3-0.2-37.9c-0.1-2.3-0.6-4.6-1.8-6.6c-1.4-2.4-3.4-3.8-6.1-4.2c-0.5-0.1-0.9-0.1-1.4-0.2
			c-0.8-0.1-1.3-0.4-1.3-1.3c0-0.9,0.3-1.4,1.2-1.4c0.3,0,0.6-0.1,0.9-0.1c6.1-0.9,12.2-1.8,18.3-2.6c2-0.3,2.1-0.2,2.5,1.8
			C1410.5,96,1410.8,98.5,1410.8,101.3z"/>
		<path class="st5" d="M572.5,157.3c-0.8,0.4-1.4,1.2-2.1,1.8c-8.2,7-17.7,9.4-28.2,7c-9.5-2.1-14.8-8.8-14.9-18.5
			c-0.1-6.3,0-12.6,0-19c0-6.5-0.1-13-0.1-19.4c0-1.8-0.1-3.7-0.4-5.5c-0.6-3.5-2.5-6-5.9-7.2c-1.3-0.4-2.6-0.8-3.9-1.1
			c-0.9-0.2-1.1-0.7-1.1-1.6c0.1-1,0.6-1.2,1.5-1.2c7,0,14.1,0,21.1,0c1.3,0,1.7,0.5,1.7,1.7c-0.1,1.6,0,3.2,0,4.8
			c0,13.4,0,26.9,0,40.3c0,4,0.2,8,0.9,11.9c1.6,8.8,8.5,11.3,14.5,11.1c9.6-0.4,15.9-6.4,16.9-16c0.3-2.8,0.5-5.6,0.5-8.4
			c0-9.9,0-19.8,0-29.8c0-1.6-0.2-3.2-0.4-4.8c-0.5-3.4-2.3-5.7-5.5-7c-1.3-0.5-2.7-1-4.1-1.2c-1-0.2-1.4-0.7-1.3-1.7
			c0.1-1,0.7-1.1,1.5-1.1c7,0,14.1,0,21.1,0c1.1,0,1.6,0.4,1.6,1.5c0,0.6,0,1.3,0,1.9c0,16.4,0,32.8,0.1,49.2c0,2.3,0.1,4.6,0.5,6.9
			c0.4,2.2,1.1,4.2,2.5,5.9c1.7,2.1,4,2.8,6.5,3.1c1.3,0.2,1.7,0.8,1.4,1.9c-0.2,0.8-0.9,0.8-1.5,0.9c-2.2,0.3-4.4,0.6-6.6,0.9
			c-4.3,0.6-8.5,1.2-12.8,1.8c-1.6,0.2-1.6,0.2-1.9-1.3c-0.5-2.4-0.6-4.8-0.8-7.2C572.9,158,572.8,157.6,572.5,157.3z"/>
		<path class="st5" d="M1354.5,157.2c-1.2,0.5-1.7,1.2-2.3,1.8c-8.4,7.2-18,9.5-28.6,7c-9.2-2.2-14.5-8.8-14.6-18.3
			c-0.1-12-0.1-24-0.1-36c0-2.2-0.1-4.3-0.3-6.5c-0.4-5.2-2.6-7.8-7.6-9.3c-0.8-0.2-1.5-0.4-2.3-0.6c-1-0.2-1.3-0.8-1.2-1.7
			c0.1-1.1,0.8-1,1.5-1c7,0,14.1,0,21.1,0c1,0,1.5,0.4,1.4,1.4c0,0.6,0,1.3,0,1.9c0,13.4,0,26.7,0,40.1c0,4.8,0.1,9.6,0.8,14.4
			c1.4,8.4,7.4,13,15.8,12c9.5-1.1,15.1-7,15.8-16.8c0.3-3.7,0.5-7.3,0.5-11c0-7.8-0.1-15.5-0.1-23.3c0-2.1-0.1-4.2-0.3-6.2
			c-0.4-4.8-2.5-7.5-7-8.9c-0.9-0.3-1.8-0.5-2.8-0.7c-1-0.2-1.3-0.7-1.3-1.7c0.1-1,0.7-1.1,1.5-1.1c7,0,14.1,0,21.1,0
			c1.2,0,1.6,0.5,1.5,1.6c0,0.6,0,1.1,0,1.7c0,14.1,0,28.2,0,42.2c0,3.8,0.1,7.7,0.4,11.5c0.1,0.9,0.2,1.8,0.3,2.6
			c0.7,4.4,3,8.4,9.1,9c1.1,0.1,1.6,1,1.3,2c-0.3,0.8-1,0.7-1.6,0.8c-3.5,0.5-7,1-10.4,1.5c-2.8,0.4-5.7,0.8-8.6,1.2
			c-1.9,0.3-1.9,0.3-2.2-1.7c-0.3-1.9-0.5-3.8-0.7-5.7C1354.5,158.7,1354.5,158.1,1354.5,157.2z"/>
		<path class="st5" d="M1286.9,129.5c0.6,17.6-14.9,37.6-37.6,37.6c-22.9,0-37.9-19.6-37.9-37.9c0-19.1,17.7-37.8,37.8-37.8
			C1269.7,91.4,1287.5,110.6,1286.9,129.5z"/>
		<path class="st5" d="M720.5,130c0,6.1,0,12.2,0,18.2c0,2.1,0.2,4.2,0.4,6.2c0.1,1,0.4,2,0.8,3c1.8,4.3,7.2,5.4,10.5,2
			c0.5-0.5,0.9-1.1,1.4-1.7c0.5-0.6,0.8-1.4,1.9-0.7c1,0.7,0.6,1.4,0.3,2.1c-1.4,3.3-3.7,5.8-7.2,6.9c-3.7,1.2-7.4,1.2-11.1,0.1
			c-2.5-0.8-4.6-2.2-6.3-4.2c-0.7-0.9-1.3-1.8-2-2.7c-1.1-1.7-1.1-1.7-2.7-0.3c-1.3,1.1-2.5,2.3-3.8,3.3c-7.8,5.7-16.3,6.3-25,2.6
			c-7.2-3.1-10.2-9.9-8.7-18.4c1-6.1,4.7-10.2,10.1-12.8c2.7-1.3,5.7-2.2,8.6-3c3.2-0.9,6.5-1.8,9.6-2.9c1.7-0.6,3.2-1.4,4.7-2.3
			c3.1-1.9,5-4.7,5.4-8.3c0.4-4.6,0.4-9.1-0.9-13.6c-1.1-3.8-3.2-6.8-6.9-8.4c-5.6-2.5-11.3-0.3-13.8,5.2c-0.8,1.8-1.5,3.7-2.3,5.5
			c-1,2.3-2.7,3.7-5.4,3.8c-2.7,0.1-4.9-0.9-6.2-3.3c-1.4-2.5-1.4-5.1,0.3-7.5c1.4-2,3.5-3.3,5.7-4.2c3.5-1.5,7.1-2.3,10.9-2.8
			c7.5-0.8,14.8,0.2,21.8,3.3c2.1,0.9,4,2,5.6,3.6c2.1,2.1,3.5,4.5,3.8,7.5c0.2,1.8,0.4,3.7,0.4,5.5
			C720.5,117.8,720.5,123.9,720.5,130C720.5,130,720.5,130,720.5,130z"/>
		<path class="st5" d="M850.4,148.5c0.6-0.2,0.6-0.7,0.8-1.2c4-10.5,8.1-21,12.1-31.6c1-2.7,1.9-5.5,2.4-8.3
			c0.3-1.2,0.4-2.5,0.4-3.8c0.1-4.5-1.9-7-6.2-8.2c-0.8-0.2-1.6-0.2-1.6-1.3c0-0.8,0.1-1.4,1.1-1.4c0.2,0,0.5,0,0.7,0
			c6.6,0,13.3,0,19.9,0c1.5,0,2,0.6,1.7,1.8c-0.1,0.7-0.6,0.9-1.2,1c-4.5,1.1-6.9,4.3-8.7,8.2c-3.8,8.3-6.9,16.8-10.2,25.3
			c-6.4,16.5-12.8,33.1-19.3,49.6c-1.4,3.7-2.9,7.3-4.9,10.7c-3.5,5.9-9.5,8.5-16.2,7c-1.6-0.4-3-1-4.2-2.1
			c-1.7-1.6-2.2-3.5-1.5-5.7c0.7-2.1,2.4-3.1,4.6-3.3c1.7-0.2,3.3,0.1,4.9,0.7c1.2,0.4,2.4,0.9,3.6,1.4c2.7,1,5,0.3,6.9-1.8
			c1.2-1.3,2.1-2.9,2.7-4.5c1.3-3.4,2.5-6.7,3.7-10.1c1-2.6,1.1-5.3,0.2-8c-0.7-2-1.3-4.1-2.1-6.1c-6.6-16.7-13.2-33.5-19.8-50.2
			c-0.8-2.1-1.8-4.1-2.7-6.1c-1.2-2.6-3.1-4.5-6-5c-0.8-0.1-1.3-0.4-1.3-1.4c0-0.9,0.3-1.4,1.2-1.4c0.5,0,1,0,1.4,0
			c8.8,0,17.6,0,26.4,0c0.5,0,1,0,1.4,0c0.6,0,1.1,0.2,1.1,0.9c0,0.7,0.1,1.5-0.8,1.7c-0.9,0.2-1.7,0.4-2.6,0.6c-3,1-4.4,3-4.4,6.1
			c0,1.6,0.4,3.2,0.8,4.7c1.2,4.2,2.8,8.3,4.3,12.4c3.3,9.1,6.7,18.1,10.1,27.2C849.7,147.1,849.8,147.9,850.4,148.5z"/>
		<path class="st5" d="M1080.8,128.6c-0.1,6.9,1.5,13.5,4.5,19.7c1.9,3.8,4.3,7.1,7.6,9.8c4.9,4.1,10.5,5.7,16.8,4.6
			c4.4-0.8,7.9-3,10.4-6.7c1.2-1.8,2.1-3.8,2.9-5.8c0.3-0.7,0.4-1.6,1.6-1.2c1.1,0.4,0.9,1.1,0.6,1.9c-2.8,8.4-8.2,14-17.2,15.5
			c-6.8,1.1-13.6,0.9-20.1-1.4c-10.4-3.6-17-11-19.9-21.4c-4-14.2-1.6-27.5,7.3-39.3c6-7.9,14.4-11.7,24.2-12.6
			c4.5-0.4,8.9-0.3,13.3,0.9c3.8,1,7.2,2.7,10,5.5c2,2,3.2,4.4,3,7.3c-0.2,2.6-1.4,4.6-3.8,5.6c-2.2,1-4.9,0.3-6.8-1.6
			c-1.4-1.4-2.2-3.1-2.9-4.9c-0.6-1.7-1.2-3.5-1.8-5.2c-1.2-3.3-3.7-4.9-7.1-5.2c-3.4-0.3-6.5,0.5-9.3,2.4c-3.4,2.3-6,5.3-7.8,9
			C1082.6,112.8,1080.8,120.5,1080.8,128.6z"/>
		<path class="st5" d="M1139,131.7c-0.1-7.4,1.4-14.1,4.5-20.4c6.1-12.4,16.3-18.9,30.1-19.7c4.6-0.3,9.1,0,13.5,1.5
			c3.5,1.2,6.7,3,9.1,5.9c1.9,2.3,2.8,4.8,2,7.8c-1.3,4.8-6.7,6.2-10.2,2.8c-1.6-1.5-2.5-3.5-3.2-5.6c-0.6-1.6-1-3.2-1.6-4.8
			c-1.2-3.3-3.7-4.9-7.1-5.2c-3.5-0.3-6.7,0.6-9.5,2.6c-2.8,1.9-5.2,4.4-6.7,7.4c-7.1,13.9-8.7,28.1-2.4,42.8
			c2.1,4.9,5.1,9,9.4,12.2c4.8,3.5,10.1,4.7,15.9,3.6c4.4-0.9,7.9-3.2,10.4-7.1c1.1-1.8,2-3.7,2.7-5.6c0.3-0.8,0.6-1.2,1.6-0.8
			c0.9,0.4,0.9,1,0.6,1.7c-2.6,7.7-7.2,13.3-15.5,15.2c-7.3,1.7-14.7,1.4-21.8-1c-11.2-3.9-17.7-12.2-20.6-23.4
			C1139.2,138.2,1138.9,134.8,1139,131.7z"/>
		<path class="st5" d="M373.8,132.3c-0.1-8.9,1.8-16.5,5.8-23.4c5.9-10.3,15.1-15.9,26.8-17.1c4.7-0.5,9.4-0.4,14,0.9
			c3.9,1.1,7.5,2.9,10.2,5.9c2.1,2.3,3.2,5,2.3,8.2c-1.3,4.8-6.6,6.3-10.2,2.9c-1.6-1.5-2.5-3.5-3.2-5.5c-0.6-1.6-1-3.2-1.6-4.8
			c-1.2-3.4-3.8-5-7.3-5.3c-3.4-0.3-6.5,0.6-9.3,2.5c-2.8,1.9-5.2,4.3-6.8,7.4c-7.1,13.9-8.8,28.1-2.5,42.7c2,4.8,5,8.9,9.2,12.1
			c4.8,3.7,10.2,4.9,16.1,3.8c4.4-0.8,7.8-3.1,10.3-6.9c1.2-1.8,2.1-3.8,2.9-5.8c0.3-0.7,0.5-1.3,1.5-0.9c0.9,0.4,1,0.9,0.7,1.7
			c-2.6,7.7-7.2,13.4-15.4,15.3c-7.4,1.7-14.8,1.5-22-1.1c-11.2-3.9-17.6-12.3-20.5-23.5C374.1,138.1,373.8,134.8,373.8,132.3z"/>
		<path class="st5" d="M446.3,132c-0.1-8.5,1.7-15.8,5.5-22.6c6.3-11.3,16.1-17,28.8-17.8c4.7-0.3,9.3,0,13.7,1.5
			c3.5,1.2,6.7,3,9.2,5.9c1.9,2.3,2.8,4.8,2,7.8c-1.3,4.8-6.7,6.2-10.2,2.8c-1.6-1.5-2.5-3.5-3.2-5.5c-0.6-1.6-1-3.2-1.6-4.8
			c-1.2-3.3-3.7-4.9-7.1-5.2c-3.5-0.4-6.7,0.6-9.5,2.6c-2.8,1.9-5.2,4.3-6.7,7.4c-7.1,13.9-8.7,28.1-2.4,42.8
			c2.1,4.8,5.1,8.9,9.2,12.1c4.8,3.6,10.2,4.9,16.1,3.8c4.4-0.9,8-3.2,10.4-7.1c1.1-1.8,2-3.7,2.7-5.6c0.3-0.7,0.6-1.3,1.6-0.9
			c0.9,0.4,0.9,1,0.6,1.7c-2.6,7.6-7.1,13.3-15.3,15.1c-7.9,1.8-15.8,1.5-23.4-1.5c-10.5-4.1-16.5-12.2-19.3-22.9
			C446.6,138.2,446.2,134.8,446.3,132z"/>
		<path class="st5" d="M743,131.9c-0.1-7.9,1.6-14.8,4.9-21.3c6.2-12,16.2-18.1,29.6-19c4.6-0.3,9.1,0,13.5,1.5
			c3.5,1.2,6.7,3,9.2,5.9c1.9,2.3,2.8,4.8,2,7.8c-1.3,4.9-6.7,6.4-10.4,2.8c-1.5-1.5-2.4-3.4-3.1-5.4c-0.6-1.6-1-3.2-1.6-4.8
			c-1.2-3.4-3.8-5-7.3-5.3c-3.4-0.3-6.5,0.6-9.3,2.5c-2.8,1.9-5.2,4.3-6.8,7.3c-7.1,13.9-8.8,28.1-2.5,42.7c2.1,4.9,5.1,9,9.4,12.2
			c4.8,3.6,10.2,4.8,16.1,3.7c4.5-0.9,8.1-3.4,10.4-7.4c1-1.7,1.8-3.4,2.5-5.2c0.3-0.7,0.5-1.4,1.5-1c1.1,0.4,1,1.1,0.7,1.9
			c-2.8,8.4-8.2,14-17.2,15.5c-6.8,1.1-13.6,0.9-20.1-1.5c-11.2-4-17.6-12.3-20.5-23.5C743.2,138.1,742.9,134.6,743,131.9z"/>
		<path class="st5" d="M1484.3,126.4c0-8.9,0-17.7,0-26.6c0-0.6,0-1.1,0-1.7c0.1-1.2-0.3-1.8-1.6-1.7c-1.8,0.1-3.5,0-5.3,0
			c-0.6,0-1.3,0.1-1.5-0.7c-0.2-0.9,0.4-1.2,1.1-1.6c7.1-3.2,11.4-9,14.2-16.1c0.8-2,1.3-4.1,2-6.1c0.4-1.3,1.2-1.5,2.9-1.3
			c1.2,0.2,1,1.1,1,1.8c0,6,0,12,0,18c0,2.2,0,2.3,2.2,2.3c5.4,0,10.7,0,16.1,0c1.7,0,2.7,1.7,1.8,3.2c-0.2,0.3-0.4,0.5-0.8,0.5
			c-0.6,0-1.1,0-1.7,0c-5.2,0-10.4,0-15.6,0c-2,0-2.1,0-2.1,1.9c0,16.4,0,32.8,0,49.2c0,2.6,0.5,5.2,1.3,7.8
			c2.7,8.1,13.8,9.4,18.4,3.9c0.9-1,1.7-2.1,2.6-3.2c0.3-0.4,0.7-1,1.3-0.4c0.5,0.4,1,0.8,0.6,1.6c-0.2,0.4-0.5,0.8-0.7,1.2
			c-2.5,3.9-6,6.4-10.4,7.5c-5.3,1.4-10.6,1.4-15.9,0.1c-0.9-0.2-1.8-0.5-2.7-0.9c-4.3-1.8-6.7-5.1-7-9.7c-0.2-2.7-0.3-5.4-0.3-8.1
			C1484.3,140.3,1484.3,133.4,1484.3,126.4z"/>
		<path class="st5" d="M628.2,102.9c0.5-0.7,1-1.4,1.5-2c5.7-7.4,13.4-10.1,22.4-9.1c4.3,0.5,7.2,3.5,7.5,7.2
			c0.2,2.7-0.8,4.8-2.9,5.8c-2.2,1.1-4.8,0.7-6.7-1.1c-1-0.9-1.8-2-2.7-3c-0.7-0.8-1.5-1.7-2.4-2.3c-3.6-2.5-7.9-2-10.7,1.5
			c-1.5,1.8-2.4,4-3.1,6.2c-1.7,5.2-2.2,10.6-2.3,16.1c-0.1,8.2,0,16.5,0,24.7c0,2.1,0.2,4.2,0.3,6.2c0.3,4.5,2.5,7.5,6.8,8.8
			c1.1,0.3,2.1,0.6,3.2,0.9c0.9,0.2,1,0.9,1,1.7c0,0.9-0.6,1-1.3,1c-0.5,0-1,0-1.4,0c-10.2,0-20.3,0-30.5,0c-0.6,0-1.1,0-1.7,0
			c-0.7,0-1-0.3-1-1c0-0.7-0.1-1.3,0.8-1.5c1-0.2,2-0.5,3-0.6c4.2-0.8,6.2-3.6,7.1-7.5c0.7-3,0.8-6,0.8-9.1
			c0.1-12.4,0.4-24.8-0.2-37.2c-0.1-1.7-0.3-3.3-0.9-4.9c-1.3-3.6-3.6-6-7.6-6.4c-0.2,0-0.5-0.1-0.7-0.1c-0.9-0.1-1.5-0.4-1.4-1.5
			c0-1,0.5-1.2,1.3-1.3c4-0.6,7.9-1.2,11.8-1.8c1.9-0.3,3.8-0.6,5.7-0.9c2.3-0.3,2.4-0.3,2.7,2.1c0.4,2.6,0.6,5.2,0.9,7.9
			C627.8,102.1,627.7,102.5,628.2,102.9z"/>
		<path class="st0" d="M1666.6,160.3c4.1,2.7,8.6,3.5,13.5,3.5c5.2,0,10.4-0.3,15.6,0.3c1.2,0.1,2.4,0.3,3.5,0.7
			c6.9,1.9,10.3,7.4,9,14.5c-0.6,3.5-2.3,6.4-5,8.8c-2.9,2.5-6.2,4.1-10,5c-6.4,1.4-12.7,1.4-18.9-0.6c-3.1-1-5.9-2.5-8.2-4.8
			c-3.9-3.8-4.8-8.3-3.4-13.4c0.4-1.5,1.2-2.8,2.4-3.8c2.7-2.4,6.6-2,8.9,0.9c0.3,0.4,0.6,0.8,0.8,1.2c0.3,0.5,0.7,0.8,1.4,0.7
			c0.7-0.2,1-0.6,1-1.4c0.3-4.4-3-8.4-7.5-8.7c-1.2-0.1-2.4,0-3.6,0C1666.6,162.3,1666.6,161.3,1666.6,160.3z"/>
		<path class="st5" d="M1547.5,122.9c0,8.6,0,17.3,0,25.9c0,1.9,0.1,3.8,0.4,5.7c0.6,3.6,2.6,5.9,5.9,7.2c1.2,0.4,2.4,0.8,3.7,1.1
			c1,0.2,1.2,0.9,1.2,1.8c-0.1,1.1-0.8,1-1.5,1c-7,0-13.9,0-20.9,0c-3.9,0-7.8,0-11.8,0c-1.3,0-1.7-0.6-1.5-1.7
			c0.1-0.7,0.6-0.8,1.2-1c0.9-0.2,1.9-0.4,2.8-0.6c3.6-0.7,5.6-3.1,6.6-6.5c0.6-2.3,0.9-4.7,0.9-7.1c0.2-12.8,0.2-25.6,0-38.4
			c0-2.1-0.2-4.2-0.9-6.1c-1.2-3.8-3.6-6.4-7.8-6.8c-0.3,0-0.6-0.1-0.9-0.1c-0.8-0.1-1.1-0.5-1.1-1.3c0-0.8,0.3-1.3,1.2-1.4
			c4.5-0.6,9-1.2,13.5-1.9c2.1-0.3,4.1-0.6,6.2-0.9c2.7-0.4,2.7-0.3,2.7,2.3C1547.4,103.7,1547.4,113.3,1547.5,122.9
			C1547.4,122.9,1547.4,122.9,1547.5,122.9z"/>
		<path class="st5" d="M1548.2,54c0,4.5-3.1,7.6-7.5,7.6c-4.3,0-7.5-3.2-7.5-7.6c0-4.4,3.4-7.9,7.6-7.8
			C1545,46.2,1548.2,49.6,1548.2,54z"/>
		<path class="st0" d="M87,6.8c-4.4,0.9-8.9,1.9-13.2,3.2c-11.1,3.4-21.3,8.6-30.6,15.4c-5.6,4-10.6,8.7-15.3,13.7
			c-0.4,0.5-0.8,1-1.4,1.3c0.3-1.8,1.9-2.5,2.9-3.7c0.8-0.9,2-1.6,1.5-3.2c-0.2-0.6,0.3-1,0.9-1.2c1.4-0.5,2.3-1.4,2.7-2.8
			c0.2-0.5,0.5-0.8,0.9-1c4-2.8,7.7-5.8,11.5-8.7c2.2-1.8,4.8-3.1,7.3-4.5c2.6-1.4,5.2-2.7,8-3.8c4.4-1.7,8.7-3.8,13.6-4.1
			c0.6,0,1-0.5,1.4-0.7c2.4-1.3,4.8-2.2,7.3-0.3c0.8,0.6,1.5,0.3,2.2-0.1C87.2,6.4,87.2,6.6,87,6.8z"/>
		<path class="st0" d="M158.3,20.7c-0.2-0.1-0.3-0.1-0.5-0.2c-0.2-0.1-0.3-0.2-0.4-0.3l0,0c-0.1-0.2-0.3-0.3-0.5-0.5l0,0
			c-0.2-0.3-0.7-0.2-1-0.5l0,0c-0.7-0.6-1.6-0.9-2.4-1.4l0,0c-0.2-0.3-0.7-0.2-1-0.5l0,0c-0.2-0.3-0.7-0.2-0.9-0.5l0,0
			c-0.2-0.3-0.7-0.2-0.9-0.5l-0.1,0c-0.5-0.5-1.2-0.6-1.9-0.9l0,0c-0.2-0.3-0.7-0.2-1-0.4c-0.2,0-0.3,0-0.4-0.1
			c-0.2-0.3-0.7-0.1-0.9-0.4l-0.1,0c-0.2-0.2-0.3-0.3-0.5-0.4c-0.2,0-0.3-0.1-0.4-0.1c-0.3-0.2-0.6-0.2-0.9-0.4l-0.1,0
			c-0.2-0.3-0.7-0.2-0.9-0.5l0,0c-0.4-0.5-1-0.1-1.4-0.5l0,0c-0.3-0.3-0.7-0.2-1-0.5l0,0c-0.4-0.5-1-0.1-1.4-0.5l-0.1,0
			c-0.2-0.3-0.7-0.2-0.9-0.5l0,0c-0.5-0.6-1.3,0-1.9-0.5l-0.1,0c-0.2-0.3-0.7-0.2-0.9-0.4l0,0c-0.5-0.6-1.3,0-1.9-0.5l-0.1,0
			c-1.2-0.4-2.6-0.5-3.8-0.9l-0.1,0c-0.4-0.4-1,0-1.4-0.4l0,0c-0.7-0.6-1.6,0.1-2.3-0.5l-0.1-0.1c-2.8-0.7-5.9-0.6-8.6-1.9
			c1.2-1.6,1.4-1.7,2.9-1.1c1.5,0.6,2.8,1,4.6,0.5c1.4-0.4,3.3-0.1,4.6,0.8c2.4,1.6,5.1,1.4,7.7,2.2c1.2,0.3,2.3,0.6,3.3,1.2
			c1.8,1.1,3.9,1.2,5.8,2.2c2.9,1.6,5.9,2.9,8.8,4.3c0.2,0.1,0.5,0.2,0.6,0.3c2.6,2.5,6,3.8,8.9,5.9c1.6,1.2,1.7,1.1,1.2,3.3
			c-0.1,0.1-0.2,0.1-0.2,0.2c-0.1-0.1-0.2-0.1-0.3-0.2l0,0c-0.7-0.5-1.2-1.1-2-1.4c-0.1,0-0.3-0.1-0.4-0.2c-0.5-0.6-1.3-0.8-1.9-1.3
			l0,0c-0.7-0.4-1.2-1-1.9-1.4l0,0C159.1,20.8,158.6,20.9,158.3,20.7z"/>
		<path class="st0" d="M26.4,40.3c-0.1,0.6-0.5,1-0.8,1.4c-3.9,4.5-7.3,9.3-10.3,14.4c-0.4,0.7-0.7,1.4-1.4,1.9
			c-0.8-2.5,0-4.4,1.3-6.6c1.7-3,4.5-5.1,5.9-8.3c0.2-0.4,0.6-0.9,1.1-0.8C24.1,42.5,25.2,41.2,26.4,40.3z"/>
		<path class="st0" d="M189.7,50.9c-0.1-0.1-0.2-0.2-0.2-0.4c0-0.2-0.1-0.3-0.1-0.5c0.1,0,0.1-0.1,0.2-0.1c1.3,0,2.2,0.6,2.8,1.8
			c0.5,1,1.1,1.9,1.9,2.8c0.6,0.7,1.1,1.3,1.1,2.3c0,0.9,0.6,1.4,1.1,2c0.7,0.8,1.7,1.5,2.2,2.5c0.6,1.4,0.9,2.8-0.4,3.9
			c-0.1,0.1-0.2,0.1-0.3,0.2c-0.2,0-0.4-0.1-0.6-0.3c-0.7-1-1-2.2-1.9-3.1c-0.1-0.2-0.2-0.4-0.3-0.6c-0.2-0.8-0.4-1.6-1-2.1
			c-0.2-0.1-0.3-0.3-0.4-0.4c-0.1-0.2-0.2-0.3-0.3-0.5c-0.1-0.2-0.2-0.4-0.2-0.5c-0.2-0.4-0.3-0.7-0.5-1c-0.1-0.2-0.2-0.3-0.3-0.5
			c-0.2-0.3-0.3-0.5-0.4-0.8c-0.1-0.2-0.1-0.4-0.1-0.6c0-0.4,0.1-0.8-0.2-1.2l-0.1-0.1c-0.1-0.1-0.2-0.2-0.3-0.4
			c-0.1-0.2-0.1-0.3-0.2-0.5C190.6,52.2,190.4,51.4,189.7,50.9z"/>
		<path class="st6" d="M117.6,5.8c2.4,0.5,4.8,1,7.3,1.4c0.5,0.1,0.9,0.1,1.3,0.5c-3,0-6-1-9-1.3c-4-0.4-8.1-1.1-12.2-0.7
			c-1.7,0.2-3.3-0.1-5-0.1c-4.4,0.1-8.7,1-13.1,1.2c0-0.2,0-0.4-0.1-0.5c0.8,0,1.6,0,2.4,0c0.2-0.1,0.3-0.3,0.5-0.4c1,0,1.9,0,2.9,0
			c0.3-0.3,0.7-0.1,0.9-0.4c1.3,0,2.6,0,3.9,0c0.3-0.3,0.7-0.2,0.9-0.5c3.7,0,7.4,0,11,0c0.1,0.2,0.3,0.3,0.5,0.4c1.4,0,2.9,0,4.3,0
			c0.9-0.4,1.7-0.2,2.4,0.5C117,5.7,117.3,5.7,117.6,5.8z"/>
		<path class="st0" d="M201.1,72.5c2,0.3,2.5,0.5,2.7,2.3c0.2,1.9,0.8,3.5,1.4,5.3c0.4,1,1,2.4-0.8,3c-0.2,0-0.4,0-0.6-0.1
			c-0.2-0.1-0.3-0.2-0.4-0.4c-0.2-0.3-0.4-0.7-0.5-1c-0.1-0.2-0.1-0.4-0.1-0.6c-0.1-0.5-0.3-0.9-0.4-1.3c-0.1-0.2-0.1-0.4-0.1-0.5
			c-0.1-0.4-0.2-0.9-0.4-1.3c-0.1-0.2-0.1-0.3-0.2-0.5c-0.1-0.3-0.2-0.7-0.3-1c-0.1-0.2-0.1-0.3-0.2-0.5c-0.1-0.2-0.2-0.5-0.3-0.7
			c-0.1-0.2-0.1-0.3-0.2-0.5c-0.1-0.3-0.2-0.5-0.2-0.8c0-0.2,0-0.4,0-0.6c0.1-0.2,0.1-0.4,0.3-0.5C201,72.6,201,72.5,201.1,72.5z"/>
		<path class="st0" d="M185.9,45.7c-0.1-0.1-0.2-0.3-0.2-0.4c-0.1-0.2-0.2-0.4-0.4-0.6l0,0c-0.1-0.2-0.3-0.3-0.4-0.5l0-0.1
			c-0.2-0.3-0.5-0.7-0.8-0.9l-0.2-0.2c-0.2-0.2-0.2-0.6-0.5-0.8l0,0c-0.1-0.2-0.3-0.3-0.4-0.4l-0.1-0.1c-0.1-0.1-0.1-0.2-0.2-0.3
			c0.1-0.1,0.2-0.1,0.2-0.2c3,0.1,3.8,0.6,4.8,3.5c0.2,0.6,0.3,1,0.9,1.3c1.4,0.7,1.1,1.8,0.6,2.8c-0.5,0.3-0.7-0.2-1-0.4l0,0
			c-0.1-0.2-0.3-0.3-0.4-0.5l-0.1-0.1c-0.3-0.2-0.2-0.7-0.5-0.9l0,0c-0.1-0.2-0.3-0.3-0.4-0.5l-0.1-0.1c-0.1-0.1-0.2-0.3-0.4-0.4
			l-0.1-0.1C186,45.9,186,45.8,185.9,45.7z"/>
		<path class="st0" d="M206.9,97c1.3,0,1.9,0.6,1.9,1.9c0,1.7,0,3.3,0,5c0,0.9-0.5,1.2-1.4,1.3c-1.1-1-1.1-2.4-1.3-3.7
			C206.6,100,205.5,98.2,206.9,97z"/>
		<path class="st0" d="M13.5,59.1c-0.9,1.8-1.4,3.8-2.9,5.3c-0.1-0.9-1-1.6-0.8-2.7C10.1,59.6,10.8,59.1,13.5,59.1z"/>
		<path class="st0" d="M198.7,66.7c0.9,0.1,1.9-0.2,2.4,1c0.7,1.6,1.5,3.2,0,4.8c0,0,0,0,0,0c-0.2,0.2-0.4,0.2-0.6,0.1
			c-0.2-0.1-0.3-0.3-0.5-0.4c-0.3-0.5-0.5-1.1-0.9-1.6c-0.1-0.2-0.2-0.3-0.3-0.5c-0.1-0.3-0.2-0.5-0.3-0.8c-0.1-0.2-0.1-0.3-0.2-0.5
			c-0.1-0.3-0.2-0.5-0.2-0.8c0-0.2,0-0.4,0-0.6C198.3,67.1,198.5,66.8,198.7,66.7z"/>
		<path class="st6" d="M206.9,101.2c0.7,1.2,0.3,2.6,0.5,3.9c0,0.5,0,1,0,1.5c0.5,0.6-0.1,1.4,0.4,1.9c0,1,0,1.9,0,2.9
			c0.5,1.1,0.1,2-0.5,2.9c-0.2,1.3,0.4,2.6-0.5,3.8c0-3.7,0-7.3,0-11c-1.6-1.8-1.4-3.6-0.4-5.5C206.7,101.4,206.8,101.3,206.9,101.2
			z"/>
		<path class="st0" d="M166.1,25.4c1,0,2,0,3,0.3c1.9,0.6,2.3,1.4,1.8,3.5c-0.1,0.2-0.3,0.2-0.5,0l0,0c-0.1-0.2-0.3-0.3-0.5-0.4l0,0
			c-0.2-0.3-0.6-0.3-0.8-0.5l-0.1-0.1c-0.4-0.5-0.8-1-1.4-1.3l0,0c-0.2-0.3-0.6-0.2-0.9-0.5l-0.1-0.1c-0.1-0.1-0.3-0.3-0.4-0.4l0,0
			c-0.1-0.1-0.1-0.2-0.1-0.3C166,25.5,166,25.4,166.1,25.4L166.1,25.4z"/>
		<path class="st0" d="M171.4,29.8c2.1-0.6,3-0.2,3.6,1.7c0.2,0.5,0.1,1.1,0.2,1.6c-0.1,0.2-0.3,0.2-0.5,0l0,0
			c-0.1-0.2-0.3-0.3-0.5-0.5l0,0c-0.1-0.2-0.3-0.4-0.5-0.5l0,0c-0.1-0.2-0.3-0.3-0.5-0.5l0,0c-0.4-0.4-0.9-0.6-1.3-1l-0.2-0.1
			c-0.1-0.1-0.2-0.2-0.4-0.3l-0.1-0.1c-0.1-0.1-0.2-0.2-0.1-0.3C171.3,29.8,171.3,29.8,171.4,29.8z"/>
		<path class="st6" d="M206.9,97c-0.3,1.4,0.8,2.8,0,4.3c0,0-0.1,0.1-0.1,0.1c-0.8,0-1.2-0.6-1.2-1.2c-0.1-2.6-1.2-5.2-0.4-7.9
			c0.1-0.2,0.3-0.4,0.5-0.6c0.2-0.2,0.5-0.1,0.7,0c0,0.6,0,1.3,0,1.9c0.1,0.2,0.3,0.3,0.5,0.5C206.9,95,206.9,96,206.9,97z"/>
		<path class="st0" d="M180,37.9c2.8,0.3,2.8,0.3,2.9,3.4c0,0,0,0,0,0c-0.1,0.2-0.3,0.2-0.4,0l-0.1-0.1c-0.1-0.1-0.2-0.2-0.3-0.4
			l-0.1-0.1c-0.4-0.4-0.6-0.9-1-1.3l0,0c-0.1-0.2-0.3-0.3-0.5-0.5l0,0c-0.1-0.2-0.3-0.3-0.5-0.5l0,0c-0.1-0.1-0.1-0.2-0.2-0.3
			C179.9,38.1,179.9,38,180,37.9z"/>
		<path class="st0" d="M206.9,121.4c1.6,1.3,1.6,1.5-0.5,2.9C206.3,123.3,205.4,122.2,206.9,121.4z"/>
		<path class="st6" d="M121,210.2c2.2-0.6,4.4-1.1,6.7-1.4C125.6,210,123.3,210.3,121,210.2z"/>
		<path class="st6" d="M206.9,121.4c-0.7,0.9-0.4,1.9-0.5,2.9c-0.1,0.4-0.2,0.7-0.5,0.9c0-2.4,0.1-4.8,0.9-7.1
			C206.9,119.2,206.9,120.3,206.9,121.4z"/>
		<path class="st6" d="M158.4,196.2c1.3-1.1,2.7-2.1,4.3-2.8C161.6,194.8,160.3,196,158.4,196.2z"/>
		<path class="st0" d="M207.4,114.2c-0.1-1,0-2,0.5-2.9C209.2,112.6,209.2,113,207.4,114.2z"/>
		<path class="st6" d="M178.1,180.4c0.7-1.6,2.1-2.6,3.3-3.8C180.9,178.5,179.4,179.4,178.1,180.4z"/>
		<path class="st6" d="M203.1,137.7c0.2-1.8,0.6-3.6,1.4-5.2C204.3,134.3,204.1,136.1,203.1,137.7z"/>
		<path class="st6" d="M174.7,33.2c0.2,0,0.3,0,0.5,0c1,0.8,1.9,1.6,2.9,2.4c0.3,0.3,0.3,0.7-0.1,1
			C176.9,35.5,175.7,34.4,174.7,33.2z"/>
		<path class="st6" d="M205.9,88.3c0,1,0,1.9,0,2.9c0.1,0.1,0.2,0.2,0.1,0.3c0,0.1-0.1,0.1-0.1,0.1l-0.1,0.1
			c-0.2,0.1-0.5,0.1-0.7-0.1c-0.5-0.6-0.7-1.3-0.9-2c-0.2-1-0.3-1.9,0.1-2.9c0.1-0.2,0.3-0.4,0.5-0.5c0.2-0.1,0.5-0.1,0.6,0.1
			c0,0.5,0,1,0,1.4C205.6,88,205.8,88.2,205.9,88.3z"/>
		<path class="st0" d="M116.6,5.7c-0.8,0.1-1.6-0.1-2.4-0.5C115.6,4,115.8,4.1,116.6,5.7z"/>
		<path class="st6" d="M205,130c0-1.6,0.2-3.2,0.9-4.7C206,127,205.6,128.5,205,130z"/>
		<path class="st6" d="M171.8,186.2c0.6-0.9,1.4-1.6,2.4-2.2C173.9,185.2,173.1,186,171.8,186.2z"/>
		<path class="st0" d="M178,36.5c0-0.3,0-0.7,0.1-1c1.3-0.2,1.4-0.1,1,1.4c-0.1,0.1-0.1,0.2-0.2,0.2c-0.1-0.1-0.2-0.1-0.3-0.2
			l-0.1,0C178.4,36.8,178.2,36.6,178,36.5L178,36.5z"/>
		<path class="st6" d="M130.1,208.3c1-0.6,2.1-0.9,3.3-0.9C132.5,208.1,131.3,208.3,130.1,208.3z"/>
		<path class="st6" d="M168.5,189.1c0.6-0.9,1.3-1.6,2.4-1.9C170.3,188.1,169.7,188.9,168.5,189.1z"/>
		<path class="st6" d="M202.1,140.6c0-1,0.2-2,0.9-2.8C203,138.8,202.7,139.8,202.1,140.6z"/>
		<path class="st6" d="M133.4,207.3c0.8-0.7,1.8-0.9,2.8-0.9C135.4,207,134.5,207.3,133.4,207.3z"/>
		<path class="st6" d="M183.3,174.7c0.1-0.9,0.7-1.4,1.5-1.9C184.7,173.7,184.1,174.3,183.3,174.7z"/>
		<path class="st6" d="M174.4,183.8c0.4-0.7,0.9-1.3,1.8-1.5C175.8,183.1,175.2,183.7,174.4,183.8z"/>
		<path class="st6" d="M166.6,190.5c0.5-0.7,1-1.3,1.9-1.4C168.1,189.9,167.5,190.4,166.6,190.5z"/>
		<path class="st6" d="M162.7,193.4c0.5-0.7,1.1-1.2,1.9-1.4C164.2,192.8,163.7,193.3,162.7,193.4z"/>
		<path class="st6" d="M204.5,132.4c0-0.8,0-1.6,0.5-2.3C204.9,130.9,205.1,131.8,204.5,132.4z"/>
		<path class="st6" d="M127.7,208.8c0.7-0.6,1.5-0.4,2.3-0.4C129.4,209,128.5,208.8,127.7,208.8z"/>
		<path class="st6" d="M204,82.6c0.2,0.1,0.3,0.3,0.5,0.4c0,0.3,0,0.6,0,1c0.3,0.3,0.2,0.7,0.1,1c-0.3,0.1-0.5,0.1-0.7-0.1
			C203.2,84.1,203.1,83.3,204,82.6z"/>
		<path class="st6" d="M186.7,170.4c0.1-0.6,0.4-1.1,1-1.4C187.6,169.6,187.3,170.1,186.7,170.4z"/>
		<path class="st0" d="M207.8,108.5c-0.5-0.5-0.5-1.2-0.4-1.9C207.9,107.1,207.8,107.8,207.8,108.5z"/>
		<path class="st6" d="M191,164.1c0.1-0.6,0.4-1.1,0.9-1.5C192,163.3,191.6,163.8,191,164.1z"/>
		<path class="st6" d="M185.2,172.3c0.1-0.6,0.4-1.1,1-1.4C186.2,171.6,185.9,172,185.2,172.3z"/>
		<path class="st6" d="M188.1,168.4c0.1-0.6,0.4-1.1,1-1.4C189.1,167.7,188.7,168.2,188.1,168.4z"/>
		<path class="st6" d="M188.1,48.5c0.3,0.1,0.7,0.3,1,0.4c0,0.2,0,0.3,0,0.5c0.2,0.1,0.2,0.2,0.1,0.3c-0.1,0.1-0.1,0.1-0.2,0.1
			C188.6,49.6,188.2,49.1,188.1,48.5z"/>
		<path class="st6" d="M154.1,198.7c0.4-0.5,0.9-0.6,1.4-0.8C155.3,198.6,154.7,198.7,154.1,198.7z"/>
		<path class="st6" d="M156.6,197.3c0.3-0.4,0.8-0.7,1.3-0.8C157.7,197.1,157.2,197.3,156.6,197.3z"/>
		<path class="st6" d="M164.6,192c0.3-0.5,0.8-0.8,1.4-0.9C165.8,191.6,165.3,191.9,164.6,192z"/>
		<path class="st6" d="M189.1,167c0.1-0.6,0.4-1.1,0.9-1.4C190,166.2,189.7,166.7,189.1,167z"/>
		<path class="st6" d="M190.1,165.6c0.1-0.6,0.4-1.1,0.9-1.4C191,164.8,190.7,165.3,190.1,165.6z"/>
		<path class="st6" d="M200.6,145c0-0.5,0.1-1,0.5-1.4C201.1,144.1,201,144.6,200.6,145z"/>
		<path class="st6" d="M144.5,203.5c0.4-0.5,0.9-0.5,1.4-0.5C145.5,203.4,145,203.5,144.5,203.5z"/>
		<path class="st6" d="M171.4,29.8c0,0.1,0,0.3,0,0.4c-0.4-0.2-0.7-0.5-0.9-0.9c0.2,0,0.3,0,0.5,0C171,29.4,171.2,29.6,171.4,29.8z"
			/>
		<path class="st6" d="M149.3,201.1c0.4-0.4,0.9-0.5,1.4-0.5C150.3,201,149.8,201.1,149.3,201.1z"/>
		<path class="st6" d="M205,85c0,0.3,0,0.6,0,1c0.1,0.1,0.2,0.2,0.1,0.3c0,0.1-0.1,0.1-0.1,0.1l-0.1,0.1c-0.9-0.3-0.9-0.8-0.4-1.5
			l0.1-0.1C204.7,84.6,204.8,84.6,205,85z"/>
		<path class="st6" d="M201.6,142c0-0.5,0.1-1,0.5-1.4C202.1,141.2,202,141.7,201.6,142z"/>
		<path class="st6" d="M137.8,205.9c0.4-0.4,0.9-0.4,1.4-0.4C138.8,205.9,138.3,205.9,137.8,205.9z"/>
		<path class="st6" d="M139.2,205.4c0.4-0.4,0.9-0.5,1.4-0.5C140.2,205.4,139.7,205.4,139.2,205.4z"/>
		<path class="st6" d="M201.2,143.5c0-0.5,0-1,0.4-1.4C201.6,142.6,201.5,143.1,201.2,143.5z"/>
		<path class="st6" d="M199.7,147.3c0-0.5,0.1-1,0.5-1.4C200.2,146.5,200.1,147,199.7,147.3z"/>
		<path class="st6" d="M140.7,204.9c0.4-0.4,0.9-0.5,1.4-0.5C141.7,204.9,141.2,205,140.7,204.9z"/>
		<path class="st6" d="M143.1,204c0.4-0.4,0.8-0.5,1.4-0.5C144.1,203.9,143.6,204,143.1,204z"/>
		<path class="st6" d="M198.7,66.7c0,0.3,0,0.6,0,0.9c-0.9,0.3-0.8-0.4-0.9-0.9c0.1-0.2,0.2-0.4,0.3-0.6c0.2-0.1,0.4-0.1,0.6,0.1
			C198.7,66.4,198.7,66.6,198.7,66.7z"/>
		<path class="st0" d="M98.4,4.8c-0.3,0.3-0.6,0.4-0.9,0.5C97.8,5.1,98.1,5,98.4,4.8z"/>
		<path class="st6" d="M142.1,204.4c0.2-0.3,0.5-0.4,0.9-0.4C142.8,204.3,142.4,204.4,142.1,204.4z"/>
		<path class="st0" d="M93.6,5.3c-0.3,0.3-0.6,0.4-0.9,0.4C93,5.6,93.3,5.4,93.6,5.3z"/>
		<path class="st6" d="M136.7,206.4c0.3-0.2,0.7-0.3,1-0.5C137.5,206.2,137.1,206.4,136.7,206.4z"/>
		<path class="st0" d="M205,85c-0.1,0-0.3,0-0.4,0c0-0.3,0-0.6,0-0.9C204.8,84.3,204.9,84.6,205,85z"/>
		<path class="st6" d="M197.8,65.3c0.2,0,0.3,0,0.5,0c0,0.2,0,0.3,0,0.5c0.1,0.1,0.2,0.2,0.1,0.3c0,0.1-0.1,0.1-0.1,0.1l-0.1,0.1
			C197.4,66.2,197.5,65.8,197.8,65.3z"/>
		<path class="st0" d="M14,58.1c0,0.4-0.2,0.7-0.5,0.9C13.5,58.7,13.7,58.3,14,58.1z"/>
		<path class="st6" d="M199.2,148.8c0-0.4,0.2-0.8,0.4-1C199.6,148.1,199.5,148.5,199.2,148.8z"/>
		<path class="st6" d="M198.7,149.7c0-0.4,0.1-0.7,0.4-0.9C199.1,149.2,199,149.5,198.7,149.7z"/>
		<path class="st6" d="M198.3,150.7c0-0.4,0.2-0.7,0.4-0.9C198.7,150.2,198.5,150.5,198.3,150.7z"/>
		<path class="st6" d="M197.3,152.6c0.1-0.3,0.3-0.6,0.4-1C197.7,152,197.6,152.4,197.3,152.6z"/>
		<path class="st6" d="M196.8,153.6c0-0.4,0.2-0.7,0.4-0.9C197.2,153,197.1,153.3,196.8,153.6z"/>
		<path class="st6" d="M195.9,155.5c0-0.4,0.2-0.7,0.5-0.9C196.2,154.9,196,155.2,195.9,155.5z"/>
		<path class="st6" d="M194.9,157.4c0-0.4,0.2-0.7,0.5-0.9C195.3,156.9,195.2,157.2,194.9,157.4z"/>
		<path class="st6" d="M193.9,159.3c0-0.4,0.1-0.7,0.4-0.9C194.3,158.8,194.2,159.1,193.9,159.3z"/>
		<path class="st6" d="M193.4,160.3c0-0.4,0.2-0.7,0.5-0.9C193.9,159.8,193.7,160.1,193.4,160.3z"/>
		<path class="st6" d="M192.5,161.7c0-0.3,0.2-0.6,0.4-0.8C192.9,161.2,192.8,161.5,192.5,161.7z"/>
		<path class="st6" d="M153.2,199.2c0.2-0.3,0.5-0.4,0.9-0.5C153.8,199,153.5,199.1,153.2,199.2z"/>
		<path class="st6" d="M151.6,200.1c0.3-0.3,0.6-0.4,1-0.4C152.3,200,152,200.1,151.6,200.1z"/>
		<path class="st6" d="M147.8,202c0.2-0.4,0.6-0.5,1-0.5C148.5,201.9,148.2,202,147.8,202z"/>
		<path class="st6" d="M146.9,202.5c0.2-0.4,0.6-0.5,1-0.5C147.6,202.3,147.2,202.5,146.9,202.5z"/>
		<path class="st6" d="M145.9,203c0.2-0.4,0.6-0.5,1-0.5C146.6,202.8,146.3,203,145.9,203z"/>
		<path class="st0" d="M109.9,5.2c-0.2-0.1-0.3-0.3-0.5-0.4C109.6,4.9,109.8,5.1,109.9,5.2z"/>
		<path class="st0" d="M89.8,5.8c-0.2,0.1-0.3,0.3-0.5,0.4C89.4,6.1,89.6,5.9,89.8,5.8z"/>
		<path class="st6" d="M194.4,158.4c0.1-0.2,0.3-0.4,0.4-0.6C194.7,158,194.6,158.2,194.4,158.4z"/>
		<path class="st0" d="M189.1,49.9c0-0.2,0-0.3,0.1-0.5c0.2,0.2,0.3,0.3,0.5,0.5c0,0,0,0,0,0C189.4,50.1,189.3,50.1,189.1,49.9
			L189.1,49.9z"/>
		<path class="st6" d="M193,160.7c0.1-0.1,0.3-0.3,0.4-0.4C193.3,160.5,193.1,160.6,193,160.7z"/>
		<path class="st6" d="M196.4,154.5c0.1-0.2,0.3-0.4,0.4-0.6C196.6,154.1,196.5,154.3,196.4,154.5z"/>
		<path class="st6" d="M192.1,162.2c0.1-0.1,0.2-0.3,0.3-0.4C192.3,161.9,192.2,162.1,192.1,162.2z"/>
		<path class="st6" d="M200.2,145.9c0.1-0.2,0.3-0.4,0.4-0.6C200.5,145.5,200.3,145.7,200.2,145.9z"/>
		<path class="st0" d="M206.9,94.1c-0.2-0.2-0.3-0.3-0.5-0.5C206.6,93.8,206.7,93.9,206.9,94.1z"/>
		<path class="st6" d="M187.7,168.9c0.1-0.2,0.3-0.3,0.4-0.5C188,168.6,187.8,168.8,187.7,168.9z"/>
		<path class="st6" d="M186.2,170.8c0.1-0.2,0.2-0.4,0.5-0.5C186.5,170.5,186.4,170.7,186.2,170.8z"/>
		<path class="st0" d="M198.3,66.2c0-0.1,0-0.3,0-0.4c0.1,0.2,0.3,0.3,0.4,0.5C198.6,66.2,198.4,66.2,198.3,66.2z"/>
		<path class="st6" d="M184.8,172.8c0.2-0.2,0.3-0.3,0.5-0.5C185.1,172.5,184.9,172.6,184.8,172.8z"/>
		<path class="st6" d="M182.8,175.2c0.1-0.3,0.2-0.4,0.5-0.5C183.2,174.8,183,175,182.8,175.2z"/>
		<path class="st6" d="M182.4,175.7c0.2-0.2,0.3-0.3,0.5-0.5C182.7,175.3,182.5,175.5,182.4,175.7z"/>
		<path class="st6" d="M181.9,176.1c0.1-0.2,0.3-0.3,0.4-0.5C182.2,175.8,182.1,176,181.9,176.1z"/>
		<path class="st6" d="M181.5,176.6c0.1-0.1,0.3-0.3,0.4-0.4C181.7,176.3,181.6,176.4,181.5,176.6z"/>
		<path class="st0" d="M179.5,37.4c0.2,0.2,0.3,0.3,0.5,0.5c0,0,0,0,0,0c-0.1,0.2-0.3,0.2-0.5,0l0,0c-0.1-0.1-0.1-0.2-0.2-0.3
			C179.4,37.6,179.4,37.5,179.5,37.4z"/>
		<path class="st6" d="M177.6,180.9c0.2-0.2,0.3-0.3,0.5-0.5C177.9,180.6,177.7,180.8,177.6,180.9z"/>
		<path class="st6" d="M177.1,181.4c0.1-0.3,0.2-0.4,0.5-0.5C177.4,181.1,177.3,181.3,177.1,181.4z"/>
		<path class="st6" d="M176.1,182.4c0.1-0.3,0.2-0.4,0.5-0.5C176.5,182.1,176.3,182.2,176.1,182.4z"/>
		<path class="st0" d="M206,91.6c0-0.1,0-0.3,0-0.4c0.2,0.2,0.3,0.3,0.5,0.5C206.3,91.7,206.1,91.7,206,91.6z"/>
		<path class="st6" d="M171.3,186.7c0.2-0.2,0.3-0.3,0.5-0.5C171.7,186.4,171.5,186.5,171.3,186.7z"/>
		<path class="st6" d="M170.9,187.2c0.1-0.3,0.2-0.4,0.5-0.5C171.2,186.9,171,187,170.9,187.2z"/>
		<path class="st0" d="M179,37c0.2,0.2,0.3,0.3,0.5,0.5c0,0,0,0,0,0c-0.1,0.2-0.3,0.2-0.5,0l0,0c-0.1-0.1-0.2-0.2-0.1-0.3
			C178.9,37,179,37,179,37L179,37z"/>
		<path class="st6" d="M166.1,191c0.1-0.1,0.3-0.3,0.4-0.4C166.4,190.7,166.2,190.9,166.1,191z"/>
		<path class="st0" d="M205,86.4c0-0.1,0-0.3,0-0.4c0.2,0.2,0.3,0.3,0.5,0.5C205.3,86.4,205.1,86.4,205,86.4z"/>
		<path class="st0" d="M205.9,88.3c-0.2-0.2-0.3-0.3-0.5-0.5C205.6,88,205.8,88.2,205.9,88.3z"/>
		<path class="st6" d="M155.9,197.7c0.2-0.1,0.3-0.2,0.5-0.4C156.3,197.5,156.1,197.6,155.9,197.7z"/>
		<path class="st6" d="M152.6,199.7c0.2-0.1,0.3-0.3,0.5-0.4C152.9,199.4,152.8,199.5,152.6,199.7z"/>
		<path class="st6" d="M150.7,200.6c0.1-0.3,0.3-0.4,0.5-0.4C151,200.3,150.9,200.5,150.7,200.6z"/>
		<path class="st6" d="M148.8,201.6c0.1-0.3,0.2-0.4,0.5-0.5C149.1,201.3,148.9,201.4,148.8,201.6z"/>
		<path class="st6" d="M195.4,156.5c0.1-0.2,0.3-0.4,0.4-0.6C195.7,156.1,195.5,156.3,195.4,156.5z"/>
		<path class="st6" d="M197.9,151.1c0.1-0.1,0.2-0.3,0.3-0.4C198.1,150.9,198,151,197.9,151.1z"/>
		<path class="st6" d="M176.6,181.9c0.1-0.3,0.2-0.4,0.5-0.5C176.9,181.6,176.8,181.7,176.6,181.9z"/>
		<path class="st7" d="M197.8,65.3c0,0.4,0.1,0.7,0.4,1c0,0.5,0.1,1,0.5,1.4c0,0,0,0.1,0,0.1c0.2,0.3,0.2,0.6,0.4,0.9l0,0.1
			c0.3,0.3,0.2,0.7,0.4,1c0,0.2,0,0.3,0.1,0.4c0.4,0.6,0.6,1.3,0.8,2c0,0.1,0,0.3,0.1,0.4c0.3,0.3,0.1,0.7,0.4,1l0,0
			c0.3,0.2,0.2,0.7,0.5,1l0,0c0.5,0.4,0.1,1,0.5,1.4l0,0c0.5,0.4,0.1,1,0.5,1.4l0,0c0.6,0.5,0,1.4,0.5,1.9l0,0
			c0.6,0.5,0,1.3,0.5,1.9l0,0c0.5,0.4,0.1,1,0.5,1.4c0,0,0,0.1,0,0.1c0,0.8,0,1.6,0.5,2.4c0,0.5,0.1,1,0.4,1.5c0.1,1,0.2,2,0.3,3
			c0.1,0.7-0.3,1.5,0.3,2.2c0.1,0,0.2,0.1,0.3,0.1c0.3,3.2,0.7,6.4,1,9.5c0,1.9,0,3.8,0.1,5.7c-3.6,0.7-7,1.9-10.5,3
			c-4.8,1.5-9.8,2.7-14.5,4.5c-5.5,2-11.2,3.5-16.8,5.2c-1.4,0.4-2.9,0.9-4.2,1.5c-0.8,0.5-1.6,1-2.5,1.4c-0.2,0.1-0.4,0.1-0.7,0.2
			c-2,0.1-3.7,1.2-5.7,1.3c-0.3,0-0.7,0.1-1,0.1c-0.8,0.2-1.6,0.5-2.5,0.8c-0.8,0.1-1.4,0.6-1.9,1.1c-1.1,0.9-2.4,1.2-3.8,1.4
			c-0.7,0-1.3-0.1-2,0c-3.6,1-7.2,2.2-10.7,3.3c-0.4,0.2-0.8,0.4-1.3,0.5c-0.6,0.1-1.2,0.4-1.9,0.5c-0.9,0.1-1.8,0.6-2.7,1
			c-0.2,0.1-0.4,0.1-0.6,0.2c-0.8,0-1.5,0.3-2.2-0.3c-11.9,3.6-23.8,7.2-35.7,10.8c-1,0.3-2.1,0.3-2.7,1.4c0,0.2-0.1,0.4-0.3,0.5
			c-0.2,0.1-0.4,0.2-0.5,0.3c-0.3,0.3-0.7,0.6-1.1,0.8c-1.3,0.4-2.5,0.9-3.9,0.9c-0.9-0.2-1.8-0.4-2.6,0.2c-0.2,0.1-0.3,0.2-0.5,0.4
			c-0.2,0.1-0.4,0.2-0.5,0.3c-0.4,0.2-0.8,0.3-1.2,0.4c-0.2,0.1-0.4,0.1-0.6,0.1c-0.9,0.1-1.7,0.3-2.5,0.6c-1.7,0.5-3.3,1.1-5,1.2
			c-1.7,0.5-3.6,0.4-5,1.8c-1.9,1.8-4.5,2-6.9,2.5c-1.2-0.2-2.4-0.3-3.5,0.3c-0.9,0.2-1.8,0.6-2.4,1.3c-1.1,0.8-2.4,1.2-3.8,1.3
			c-1.1-0.2-2.1,0-3.1,0.4c-1.1,0.3-2.3,0.6-3.5,0.9c-0.4,0-1-0.2-0.9,0.6c-0.5,0.6-1.1,0.8-1.8,0.9c-2-0.2-3.7,0.9-5.6,1
			c-2-0.6-1.5-1.5-0.3-2.5c2.2-1.7,4.7-3.1,7-4.6c6.2-3.9,12.3-8,18.4-12c0.8-0.4,1.5-0.9,2.3-1.4c1.9-1.2,3.9-2.2,5.3-3.9
			c0.5-0.5,1-0.9,1.7-1.2c0.5-0.2,1-0.4,1.5-0.7c0.2-0.1,0.4-0.2,0.6-0.3c3.4-1.5,6.4-3.8,9.6-5.8c6.2-4,12.6-7.8,18.6-12.1
			c0.8-0.4,1.5-0.9,2.2-1.4c1.5-0.9,3-1.6,4-3.2c2.1-1.9,4.4-3.3,7-4.4c1.3-0.2,2.5-0.8,3.4-1.7c2.7-2.6,6.2-4,9.2-6.3
			c0.8-0.6,1.6-1,2.3-1.7c4.7-3.8,10.1-6.7,15.1-10.1c1.3-0.9,2.6-1.8,4-2.6c0.8-0.5,1.7-1,2.6-0.2c0.8-0.1,1.5-0.5,2.2-1
			c12-7.8,24.1-15.6,36.1-23.4c3.1-2,6.3-4,9.5-6.1c0.6-0.4,1.2-0.7,2-0.8c0.5,0.2,0.7,0.6,0.9,1l0,0c0.3,0.2,0.2,0.7,0.5,0.9l0,0
			c0.5,0.5,0.6,1.2,0.9,1.8l0.1,0.1c0.1,0.2,0.3,0.3,0.4,0.5l0,0c0.7,0.8,1,1.8,1.5,2.8l0.1,0.1C196.6,62.7,197.2,63.9,197.8,65.3
			L197.8,65.3z"/>
		<path class="st5" d="M105.3,108.9c-2.3,1.2-4.4,2.6-6.5,4.1c-1.2,1.2-2.7,1.8-4,2.9c-0.9,0.6-1.8,1.1-2.6,1.8
			c-1.4,0.8-2.8,1.6-4.1,2.6c-0.3,0.2-0.6,0.3-0.9,0.5c-7.9,4.9-15.6,10.1-23.5,15l0,0c-0.5,0.5-1,0.8-1.7,1c-0.5,0-0.9,0.4-1.2,0.7
			c-1.8,1.6-4.1,2.8-6.1,4.2c-0.5,0.5-1.2,0.7-1.7,1.1c-8.3,5.3-16.5,10.7-24.9,16c-1.2,0.7-2.1,1.7-3.1,2.6
			c-0.6,0.1-1.4,0.7-1.8-0.5c0.1-0.2,0.2-0.4,0.2-0.6c0-0.2,0.1-0.3,0.2-0.4c6.2-11,12.4-22,18.6-33c12.8-22.7,25.6-45.3,38.4-68
			c6.6-11.8,13.3-23.5,19.9-35.3c0.4-0.7,0.6-1.5,1.5-2.1c1.5,2.3,3,4.7,4.5,7c11.4,18.2,22.7,36.3,34.1,54.5c0.4,0.7,1.3,1.3,1,2.3
			c-2.3,0.9-4.2,2.5-6.3,3.8c-5,3.2-10,6.5-15,9.7c-1.6,0.4-2.1-0.8-2.7-1.8c-3.9-6.7-7.6-13.5-11.3-20.3c-1.2-2.1-2.3-4.2-3.6-6.2
			c-0.3-0.5-0.4-1.2-1.1-1.1c-0.6,0.1-0.8,0.8-1,1.3c-2.1,4.5-4.1,9-6.2,13.5c-2.9,6.1-5.4,12.5-8.4,18.5c-0.3,0.6-0.5,1.3-0.8,2
			c-0.3,0.8,0,1.2,0.9,1.2c6-0.3,12,0.3,18-0.3c1.2-0.1,2.4-0.3,3.3,0.8C108,108.3,106.3,108.3,105.3,108.9z"/>
		<path class="st5" d="M142.6,126.6c1.3-0.2,2.6-0.4,3.8-1.2c0.5-0.6,1.3-0.4,1.9-0.8c1.1-0.3,2.3-0.7,3.5-0.9
			c2.2-0.2,4.1-1.3,6.2-1.7l0,0c0.8-0.4,1.7-0.4,2.5-0.8c0.2,0,0.4,0,0.6,0.1c0.1,0.1,0.1,0.2,0.2,0.3c3.5,5,6.9,9.9,10.4,14.9
			c5.3,7.6,10.6,15.1,16,22.6c0.3,0.5,0.7,0.9,1,1.3c-0.2,1.2-1.2,0.9-1.9,0.9c-16.4,0-32.8,0-49.2,0c-0.6,0-1.3,0.1-1.8-0.5
			c-4.6-9.1-9.2-18.3-13.8-27.4c0.2-1.2,1.3-1,2-1.3l-0.1,0c1-0.6,2.3-0.5,3.3-1.2c0.6-0.3,1.4,0.1,2-0.5c0.2-0.1,0.5-0.1,0.7-0.1
			c3.1-1.1,6.3-1.9,9.4-2.9c0.3-0.1,0.6-0.2,1-0.3c0.7,0,1.3-0.2,1.9-0.5C142.2,126.5,142.4,126.5,142.6,126.6z"/>
		<path class="st5" d="M51.8,153.9c2.4-0.4,4.8-1.1,7.1-2.1c0.1-0.4,0.5-0.4,0.8-0.5c0.3-0.1,0.6-0.2,0.9-0.3
			c0.7-0.2,1.5-0.2,2.1-0.6c0.3-0.1,0.6-0.1,0.9-0.2c0.2-0.1,0.4-0.1,0.7-0.1c1.6-0.3,3.2-0.9,4.8-1.4c1-0.2,1.9-0.6,2.9-0.8l0,0
			c0.4-0.5,1-0.1,1.5-0.5l0,0c0.5-0.6,1.3-0.5,1.8-0.8c0.5-0.1,1-0.6,1.6-0.3c1.5,0.1,2.7-0.9,4.1-0.9c0.4-0.2,0.8-0.2,1.2-0.4
			c0.1-0.1,0.2-0.1,0.3,0c0.5,0.3,0.4,0.6,0.1,0.9c-2.1,4.7-4.2,9.5-6.3,14.2c-0.5,1.1-1.3,1.2-2.3,1.2c-7.2,0.1-14.4,0.2-21.5,0.5
			c-8.5,0.3-17.1,0.4-25.6,0.5c-0.6,0.2-1,0.1-0.9-0.6c0.4-0.6,1-0.6,1.6-0.7c2-0.3,3.9-1.4,5.9-1.7c0.6,0.2,1.1,0.1,1.6-0.4
			c0.1-0.2,0.3-0.3,0.6-0.3c1.4-0.6,3-0.6,4.3-1.4c0.8,0,1.5-0.7,2.4-0.5c1.4-0.1,2.6-0.6,3.8-1.2c1-0.8,2.3-0.7,3.3-1.2
			C50.2,154.2,51,153.7,51.8,153.9z"/>
		<path class="st8" d="M135.7,160.8c0.8,0,1.6,0.1,2.4,0.1c15.9,0,31.9,0,47.8,0c0.9,0,1.9,0.4,2.6-0.5c0.3-0.2,0.6-0.1,0.8,0.2
			c0.2,0.4,0,0.8-0.4,1c-0.5,0.1-1.1,0.2-1.7,0.2c-16.6,0-33.2,0-49.9,0c-0.6,0-1.3,0.1-1.9-0.3C135.2,161.2,135.4,161,135.7,160.8z
			"/>
		<path class="st9" d="M160.4,120.9c6.6-2,13.1-4,19.7-6c0.6-0.2,1.2-0.3,1.9-0.4c-0.6,0.8-1.6,0.9-2.5,1.2
			c-4.9,1.5-9.7,2.9-14.6,4.4c-1.2,0.4-2.5,0.7-3.6,1.3c0,0,0,0,0,0c-0.1-0.3-0.3-0.3-0.6-0.3C160.4,121.2,160.4,121.1,160.4,120.9z
			"/>
		<path class="st10" d="M25.9,161.8c0.3,0.2,0.6,0.3,0.9,0.5c-1.2,0.8-2.3,0-3.4-0.4c-0.6-0.2-0.4-0.7,0.1-1.1
			c0.5,0.4,0.9-0.2,1.4-0.2C25.4,160.9,25.8,161.2,25.9,161.8z"/>
		<path class="st6" d="M130.1,8.7c1.3,0,2.6,0.2,3.8,0.9C132.6,9.6,131.3,9.4,130.1,8.7z"/>
		<path class="st6" d="M153.6,17.8c1,0.1,1.9,0.5,2.4,1.4C155,19,154.2,18.6,153.6,17.8z"/>
		<path class="st11" d="M123.9,132.1c-0.5,0.7-1.6,0.5-2,1.3c-0.3-0.2-0.4-0.5-0.5-0.8C122.2,132.3,123,131.9,123.9,132.1z"/>
		<path class="st6" d="M163.6,24.1c1,0,1.6,0.6,2,1.4C164.7,25.3,164.1,24.7,163.6,24.1z"/>
		<path class="st6" d="M189.7,50.9c1,0.3,1.2,1.1,1.3,2C190.3,52.4,190,51.6,189.7,50.9z"/>
		<path class="st6" d="M161.3,22.6c0.8,0.1,1.6,0.4,1.9,1.3C162.4,23.6,161.7,23.3,161.3,22.6z"/>
		<path class="st6" d="M159.3,21.2c0.9,0.1,1.5,0.6,1.9,1.4C160.4,22.4,159.8,21.9,159.3,21.2z"/>
		<path class="st6" d="M126.3,7.7c0.8,0,1.6-0.2,2.3,0.5C127.8,8.2,127,8.2,126.3,7.7z"/>
		<path class="st6" d="M148.8,15.4c0.8-0.1,1.5,0.1,1.9,0.9C150,16.2,149.3,16,148.8,15.4z"/>
		<path class="st6" d="M167.5,26.9c0.8,0.1,1.3,0.5,1.4,1.3C168.3,27.9,167.8,27.5,167.5,26.9z"/>
		<path class="st6" d="M133.9,9.6c0.7,0,1.4-0.1,1.9,0.5C135.1,10.2,134.5,10.1,133.9,9.6z"/>
		<path class="st6" d="M136.8,10.6c0.7,0,1.3-0.1,1.9,0.5C138,11.1,137.4,11,136.8,10.6z"/>
		<path class="st6" d="M171.9,30.7c0.6,0.1,1.1,0.4,1.3,1C172.6,31.6,172.2,31.3,171.9,30.7z"/>
		<path class="st6" d="M180.9,39.4c0.6,0.3,0.9,0.7,1,1.3C181.4,40.4,181,40,180.9,39.4z"/>
		<path class="st6" d="M192.4,55.2c-0.4-0.2-0.7-0.6-0.9-1c0-0.1,0-0.3,0-0.4C192.1,54.1,192.4,54.6,192.4,55.2z"/>
		<path class="st6" d="M128.6,8.2c0.5,0,1,0,1.4,0.4C129.5,8.6,129,8.6,128.6,8.2z"/>
		<path class="st6" d="M139.7,11.6c0.5,0,1,0,1.4,0.5C140.6,12.1,140.1,12,139.7,11.6z"/>
		<path class="st6" d="M142.1,12.5c0.5,0,1,0.1,1.4,0.5C143,13.1,142.5,12.9,142.1,12.5z"/>
		<path class="st6" d="M184,43.2c0.5,0.1,0.7,0.4,0.8,0.9C184.4,43.9,184.1,43.6,184,43.2z"/>
		<path class="st6" d="M135.8,10.1c0.4,0,0.7,0.2,0.9,0.4C136.4,10.5,136.1,10.4,135.8,10.1z"/>
		<path class="st6" d="M138.7,11.1c0.4,0,0.7,0.2,0.9,0.5C139.3,11.5,139,11.4,138.7,11.1z"/>
		<path class="st6" d="M141.1,12c0.4,0,0.7,0.2,1,0.5C141.7,12.5,141.3,12.3,141.1,12z"/>
		<path class="st6" d="M143.5,13c0.4,0,0.7,0.2,0.9,0.5C144.1,13.4,143.8,13.3,143.5,13z"/>
		<path class="st6" d="M144.5,13.5c0.3,0.1,0.6,0.3,0.9,0.4C145,13.9,144.7,13.7,144.5,13.5z"/>
		<path class="st6" d="M146.4,14.4c0.3,0.1,0.6,0.3,0.9,0.4C147,14.8,146.7,14.7,146.4,14.4z"/>
		<path class="st6" d="M147.8,14.9c0.4,0,0.7,0.1,1,0.4C148.4,15.4,148.1,15.2,147.8,14.9z"/>
		<path class="st6" d="M150.7,16.4c0.4,0,0.7,0.2,0.9,0.5C151.3,16.8,151,16.7,150.7,16.4z"/>
		<path class="st6" d="M151.7,16.8c0.4,0,0.7,0.2,0.9,0.5C152.2,17.3,151.9,17.1,151.7,16.8z"/>
		<path class="st6" d="M152.6,17.3c0.4,0,0.7,0.2,1,0.5C153.2,17.8,152.8,17.7,152.6,17.3z"/>
		<path class="st6" d="M156,19.2c0.4,0,0.7,0.2,1,0.5C156.6,19.7,156.2,19.6,156,19.2z"/>
		<path class="st6" d="M158.3,20.7c0.4,0,0.7,0.2,1,0.5C158.9,21.1,158.6,21,158.3,20.7z"/>
		<path class="st6" d="M166.6,26.4c0.4,0,0.6,0.2,0.9,0.5C167.1,26.9,166.8,26.7,166.6,26.4z"/>
		<path class="st6" d="M169.1,28.3c0.3,0.1,0.6,0.2,0.8,0.5C169.5,28.8,169.3,28.6,169.1,28.3z"/>
		<path class="st12" d="M82.5,145.9c0-0.3,0-0.6-0.1-0.9c0.2-0.1,0.3-0.2,0.5-0.3C83,145.2,83,145.6,82.5,145.9z"/>
		<path class="st6" d="M187.2,47.1c0.3,0.2,0.4,0.5,0.5,0.9C187.3,47.7,187.2,47.4,187.2,47.1z"/>
		<path class="st6" d="M183.4,42.3c0.3,0.2,0.4,0.5,0.5,0.8C183.5,42.9,183.4,42.6,183.4,42.3z"/>
		<path class="st6" d="M182.4,41.3c0.1,0,0.3,0,0.4,0c0,0.1,0,0.3,0,0.4C182.7,41.6,182.6,41.4,182.4,41.3z"/>
		<path class="st6" d="M182,40.8c0.1,0.1,0.2,0.2,0.3,0.4C182.2,41.1,182.1,41,182,40.8z"/>
		<path class="st6" d="M185.9,45.7c0.1,0.1,0.2,0.2,0.3,0.3C186,45.9,185.9,45.8,185.9,45.7z"/>
		<path class="st6" d="M186.7,46.6c0.1,0.2,0.3,0.3,0.4,0.5C187,46.9,186.9,46.8,186.7,46.6z"/>
		<path class="st6" d="M185.3,44.7c0.1,0.2,0.3,0.4,0.4,0.6C185.6,45,185.4,44.9,185.3,44.7z"/>
		<path class="st10" d="M23.9,159.9c0.1,0.2,0,0.3-0.2,0.4C23.6,160.1,23.7,160,23.9,159.9z"/>
		<path class="st6" d="M180.5,38.9c0.2,0.2,0.3,0.3,0.5,0.5C180.7,39.3,180.5,39.2,180.5,38.9z"/>
		<path class="st6" d="M180,38.4c0.2,0.2,0.3,0.3,0.5,0.5C180.2,38.8,180.1,38.7,180,38.4z"/>
		<path class="st6" d="M179.5,38c0.2,0,0.3,0,0.5,0c0,0.2,0,0.3,0,0.5C179.8,38.3,179.7,38.1,179.5,38z"/>
		<path class="st6" d="M189.1,50c0.2,0,0.3,0,0.5,0c0,0.2,0,0.4-0.1,0.6C189.4,50.3,189.3,50.1,189.1,50z"/>
		<path class="st6" d="M191.2,53.3c0.1,0.1,0.2,0.2,0.3,0.4C191.4,53.6,191.3,53.5,191.2,53.3z"/>
		<path class="st6" d="M179.1,37.5c0.2,0,0.3,0,0.5,0c0,0.2,0,0.3,0,0.5C179.3,37.8,179.2,37.6,179.1,37.5z"/>
		<path class="st6" d="M179,37c0,0.2,0,0.3,0,0.5c-0.1-0.1-0.3-0.3-0.4-0.4C178.7,37,178.9,37,179,37z"/>
		<path class="st6" d="M173.7,32.2c0.2,0.2,0.3,0.3,0.5,0.5C174,32.6,173.8,32.4,173.7,32.2z"/>
		<path class="st6" d="M173.3,31.7c0.2,0.2,0.3,0.3,0.5,0.5C173.5,32.1,173.3,32,173.3,31.7z"/>
		<path class="st6" d="M184.8,44.2c0.1,0.2,0.3,0.3,0.4,0.5C185.1,44.5,185,44.3,184.8,44.2z"/>
		<path class="st6" d="M186.3,46.1c0.1,0.1,0.2,0.3,0.4,0.4C186.6,46.4,186.4,46.3,186.3,46.1z"/>
		<path class="st6" d="M171.4,30.3c0.1,0.1,0.2,0.2,0.4,0.3C171.7,30.5,171.5,30.4,171.4,30.3z"/>
		<path class="st6" d="M187.7,48c0.1,0.2,0.3,0.3,0.4,0.5C188,48.3,187.9,48.2,187.7,48z"/>
		<path class="st6" d="M169.9,28.8c0.2,0.1,0.3,0.3,0.5,0.4C170.1,29.2,170,29.1,169.9,28.8z"/>
		<path class="st6" d="M166.1,25.9c0.1,0.1,0.3,0.3,0.4,0.4C166.4,26.2,166.2,26.1,166.1,25.9z"/>
		<path class="st6" d="M166.1,25.4c0,0.2,0,0.3,0,0.5c-0.3-0.1-0.4-0.2-0.5-0.5C165.7,25.5,165.9,25.5,166.1,25.4z"/>
		<path class="st6" d="M157.5,20.2c0.1,0.1,0.3,0.2,0.4,0.3C157.7,20.4,157.6,20.3,157.5,20.2z"/>
		<path class="st6" d="M156.9,19.7c0.2,0.2,0.3,0.3,0.5,0.5C157.3,20,157.1,19.9,156.9,19.7z"/>
		<path class="st6" d="M182.9,41.8c0.1,0.1,0.3,0.3,0.4,0.4C183.2,42.1,183,41.9,182.9,41.8z"/>
		<path class="st6" d="M178.1,36.5c0.1,0.1,0.3,0.3,0.4,0.4C178.4,36.8,178.2,36.7,178.1,36.5z"/>
		<path class="st6" d="M174.2,32.7c0.2,0.2,0.3,0.3,0.5,0.5C174.5,33,174.4,32.8,174.2,32.7z"/>
		<path class="st6" d="M145.8,14c0.2,0.1,0.4,0.3,0.5,0.4C146.2,14.2,146,14.1,145.8,14z"/>
		<path class="st0" d="M983.3,61.1c0.7,0.6,0.8,1.4,1.1,2.1c5.5,14.3,10.9,28.5,16.3,42.8c1,2.7,1,2.7-1.9,2.7
			c-10.1,0-20.1,0-30.2,0c-2.6,0-2.6,0-1.8-2.4c5.1-14.4,10.3-28.7,15.5-43.1C982.5,62.5,982.7,61.7,983.3,61.1z"/>
		<path class="st0" d="M308.9,108.7c-11.6,0-23.2,0-34.8,0c0.1-1.9,14.2-42.1,16.7-47.4c0.1,0,0.2,0,0.2,0c0.1,0,0.2,0.1,0.2,0.1
			c5.8,15.1,11.6,30.3,17.4,45.4C308.7,107.3,309.1,107.8,308.9,108.7z"/>
		<path class="st0" d="M1698.2,114.9c-0.2,4.4-0.4,8.2-1.5,11.9c-0.6,1.9-1.4,3.7-2.5,5.4c-3.7,5.2-10.5,5.7-14.9,1
			c-2.7-2.8-4.1-6.3-4.8-10c-1.3-6.9-0.8-13.7,1.7-20.3c0.8-2.2,1.9-4.2,3.6-5.9c4.2-4.4,10.3-4,13.9,0.8c2.4,3.2,3.5,7,4.1,10.9
			C1698,110.9,1698,113.2,1698.2,114.9z"/>
		<path class="st0" d="M1226.4,129.1c0.2-7.3,1-13.8,3.8-19.8c1.7-3.8,3.9-7.3,6.9-10.3c6.3-6.2,15.2-6.7,22.2-1.1
			c2.9,2.3,5.2,5.2,6.9,8.5c7.7,15.2,7.6,30.6,0.3,45.9c-1.8,3.7-4.4,6.9-7.8,9.2c-5.9,4-12.8,3.9-18.6-0.2
			c-3.1-2.2-5.5-5.1-7.4-8.4c-3.3-5.4-5-11.4-5.7-17.6C1226.7,133.1,1226.6,130.7,1226.4,129.1z"/>
		<path class="st0" d="M707.5,124.9c0.4,0.4,0.3,0.9,0.3,1.3c0,6,0.1,12-0.3,18c-0.3,4-1,7.9-2.9,11.5c-2.1,4-5.2,6.8-9.8,7.6
			c-3.9,0.7-6.9-0.7-9.2-3.8c-2.4-3.4-2.9-7.2-2.4-11.2c0.7-5.7,3.7-10.1,8.4-13.4c1.8-1.3,3.8-2.4,5.7-3.5c3.2-1.9,6.3-3.7,9.2-6.1
			C706.7,125.1,707,124.7,707.5,124.9z"/>
		<path class="st6" d="M197.7,65.2c-0.9-1.1-1.5-2.4-1.9-3.8C197.1,62.4,197.6,63.7,197.7,65.2z"/>
		<path class="st6" d="M195.8,61.4c-0.7-0.8-1.2-1.7-1.5-2.8C195.5,59.2,195.8,60.2,195.8,61.4z"/>
		<path class="st6" d="M193.9,58c-0.5-0.5-0.8-1.1-0.9-1.8C193.7,56.6,193.9,57.2,193.9,58z"/>
		<path class="st6" d="M192.9,56.1c-0.3-0.2-0.5-0.5-0.5-0.9C192.7,55.5,192.9,55.8,192.9,56.1z"/>
		<path class="st6" d="M194.4,58.6c-0.1-0.2-0.3-0.3-0.4-0.5C194.1,58.3,194.2,58.4,194.4,58.6z"/>
		<path class="st6" d="M203,79.2c-0.5-0.5-0.5-1.2-0.5-1.9C203.1,77.8,203,78.5,203,79.2z"/>
		<path class="st6" d="M203.5,81.1c-0.5-0.6-0.5-1.2-0.5-1.9C203.6,79.7,203.5,80.4,203.5,81.1z"/>
		<path class="st6" d="M204,82.6c-0.4-0.4-0.5-0.9-0.5-1.4C203.9,81.5,204,82,204,82.6z"/>
		<path class="st6" d="M202.5,77.3c-0.5-0.4-0.5-0.9-0.5-1.4C202.5,76.2,202.6,76.7,202.5,77.3z"/>
		<path class="st6" d="M202,75.9c-0.4-0.4-0.5-0.9-0.5-1.4C202,74.8,202.1,75.3,202,75.9z"/>
		<path class="st6" d="M201.6,74.4c-0.3-0.2-0.4-0.6-0.5-1C201.4,73.7,201.5,74,201.6,74.4z"/>
		<path class="st6" d="M201.1,73.4c-0.3-0.2-0.4-0.6-0.4-1c0.1,0,0.3,0,0.4,0C201.1,72.8,201.1,73.1,201.1,73.4z"/>
		<path class="st6" d="M200.6,72.1c-0.5-0.6-0.8-1.2-0.8-2C200.5,70.6,200.7,71.3,200.6,72.1z"/>
		<path class="st6" d="M199.6,69.7c-0.3-0.3-0.4-0.6-0.4-1C199.5,68.9,199.6,69.3,199.6,69.7z"/>
		<path class="st6" d="M199.2,68.6c-0.3-0.2-0.4-0.5-0.4-0.9C198.9,68,199,68.3,199.2,68.6z"/>
		<path class="st13" d="M205.5,91.7c-0.7-0.7-0.6-1.4-0.3-2.2C205.5,90.2,205.5,90.9,205.5,91.7z"/>
		<path class="st4" d="M107.5,106.7c-7.8,0.6-15.6,0.3-23.4,0.7c-0.1,0-0.3-0.1-0.4-0.2c0.4-1.9,14.9-34.5,18-40.3
			c0.8,0.1,0.9,0.8,1.2,1.3c5.4,9.6,10.8,19.2,16.2,28.8c0.4,0.7,0.6,1.7,1.6,2c-0.4,0.8-1.2,1.3-1.9,1.7c-3.3,2.1-6.5,4.2-9.8,6.3
			C108.3,107.3,107.9,106.9,107.5,106.7z"/>
		<path class="st14" d="M25.9,161.8c-0.6-0.1-1-0.5-1-1.1c7-4.6,14-9.1,21.1-13.7c2.4-1.5,4.7-3.3,7.3-4.6c0.3,0.2,0.3,0.4,0,0.6
			c-8.2,5.3-16.4,10.6-24.6,15.9c-0.6,0.4-1.2,0.8-1.7,1.3c-0.4,0.4,0.1,0.5,0.4,0.6c0.3,0.2,0.3,0.3,0,0.5
			C26.9,161.5,26.4,161.6,25.9,161.8z"/>
		<path class="st15" d="M63.8,135.8c0.2-0.2,0.4-0.5,0.6-0.7c7.5-4.8,15-9.7,22.5-14.5c0.2-0.1,0.4-0.2,0.7-0.3l0.1,0
			c1.3-1.1,2.8-2.1,4.4-2.8c0.2-0.2,0.5-0.2,0.7,0.1c-3.1,2.5-6.5,4.3-9.8,6.5c-5.5,3.6-11,7-16.5,10.6
			C65.6,135.2,64.8,135.8,63.8,135.8z"/>
		<path class="st16" d="M142.1,126.8c-0.6,0.4-1.3,0.6-2,0.5l-0.2,0c-3.3,1.4-6.8,2.3-10.3,3.2c-0.3-0.1-0.3-0.3,0-0.5
			c3.8-1.3,7.6-2.7,11.5-3.4C141.5,126.4,141.8,126.4,142.1,126.8z"/>
		<path class="st17" d="M54.6,141.6c2-1.5,4.1-2.9,6.3-4.1c-1.5,2-3.7,3-5.8,4.1C55,141.8,54.8,141.8,54.6,141.6z"/>
		<path class="st18" d="M60.3,151.4c-0.4,0.3-0.8,0.4-1.3,0.4c-0.2-0.1-0.4-0.4-0.2-0.5c1.7-0.6,3.3-1.4,5.1-1.5
			c0.3,0.2,0.3,0.4,0,0.5l0,0c-0.3,0.2-0.7,0.1-1,0.4c-0.8,0.2-1.6,0.4-2.5,0.6L60.3,151.4z"/>
		<path class="st19" d="M157.9,122c-1.9,1-4,1.5-6.2,1.9c-0.1,0-0.2-0.1-0.2-0.1c-0.1-0.2,0-0.3,0.2-0.4c1.3-0.1,2.4-0.7,3.7-1
			C156.2,122.1,157,121.8,157.9,122z"/>
		<path class="st20" d="M27.4,161.3c0-0.2,0-0.3,0-0.5c2-0.4,3.9-1.6,6-1.4C31.5,160.4,29.4,160.9,27.4,161.3z"/>
		<path class="st21" d="M63.9,150.3c0-0.2,0-0.4,0-0.5c1.7-0.5,3.5-0.9,5.2-1.4c0.3,0.2,0.3,0.3,0,0.4
			C67.4,149.4,65.8,150.2,63.9,150.3z"/>
		<path class="st22" d="M94.6,115.8c1.3-1.1,2.8-2,4.3-2.8c-1,1.7-2.7,2.4-4.3,3.2c-0.1-0.1-0.2-0.2-0.2-0.3
			C94.5,115.8,94.5,115.8,94.6,115.8z"/>
		<path class="st23" d="M107.5,106.7c0.5-0.1,1,0.2,1.4,0.4c-1,1-2.1,1.8-3.6,1.9C105.8,108,107.5,108.1,107.5,106.7z"/>
		<path class="st24" d="M39.9,157.5c-1.4,0.7-2.9,1.1-4.4,1.3c-0.2-0.1-0.3-0.2-0.2-0.3c0.1-0.1,0.1-0.1,0.2-0.1
			c1.3-0.5,2.6-0.9,4-1.1C39.6,157.2,39.8,157.3,39.9,157.5z"/>
		<path class="st25" d="M151.8,123.9c-1.1,0.6-2.2,0.7-3.4,1c-0.1-0.1-0.2-0.2-0.2-0.4c0-0.1,0.1-0.2,0.1-0.2
			c0.8-0.3,1.6-0.6,2.4-0.9c0.2,0.2,0.5,0.2,0.6,0.4C151.5,123.8,151.6,123.9,151.8,123.9z"/>
		<path class="st26" d="M51.8,153.9c-0.7,0.4-1.4,0.8-2.3,0.7c-0.4,0.2-0.7,0.3-1-0.1C49.6,153.9,50.6,153.3,51.8,153.9z"/>
		<path class="st27" d="M48.5,154.5c0.3,0,0.7,0,1,0.1c-1.1,0.4-2.2,1.1-3.5,1C46.6,154.5,47.6,154.7,48.5,154.5z"/>
		<path class="st28" d="M94.6,115.8c0,0.1,0,0.3,0,0.4c-0.5,0.7-1.2,1-1.9,1.4c-0.2,0-0.4,0-0.7-0.1
			C92.7,116.8,93.6,116.2,94.6,115.8z"/>
		<path class="st29" d="M76.9,146.3c-0.4,0.4-0.9,0.5-1.5,0.6c-0.5,0.3-1,0.3-1.5,0C74.8,146.3,75.7,145.6,76.9,146.3z"/>
		<path class="st30" d="M127.4,131.1c-1.1,0.7-2.2,1.1-3.5,1c0.8-0.8,1.8-1,2.9-1.1C127,130.8,127.2,130.8,127.4,131.1z"/>
		<path class="st31" d="M39.9,157.5c-0.2,0-0.3-0.1-0.5-0.1c0.9-0.5,1.7-1.1,2.8-0.6C41.5,157.2,40.8,157.6,39.9,157.5z"/>
		<path class="st32" d="M69.1,148.8c0-0.2,0-0.3,0-0.4c0.9-0.2,1.8-0.7,2.9-0.5C71.1,148.5,70.1,148.7,69.1,148.8z"/>
		<path class="st33" d="M148.3,124.3c0,0.2,0,0.4,0,0.5c-0.6,0.4-1.2,0.6-2,0.5C146.7,124.4,147.6,124.6,148.3,124.3z"/>
		<path class="st19" d="M160.4,120.9c0.2,0,0.4,0.1,0.6,0.1c0.1,0.2,0,0.3-0.2,0.4c-1,0.2-1.9,0.6-2.9,0.6
			C158.6,121.2,159.5,121.2,160.4,120.9z"/>
		<path class="st34" d="M54.6,141.6c0.2,0,0.4,0.1,0.5,0.1c-0.4,0.8-1.2,1-1.9,1.4c0-0.2,0-0.4,0-0.6
			C53.6,142.1,54.1,141.7,54.6,141.6z"/>
		<path class="st35" d="M127.4,131.1c-0.2,0-0.4-0.1-0.6-0.1c0.5-0.5,1.2-0.5,1.9-0.5c0.3-0.2,0.5-0.2,0.6,0.1
			C128.7,131.1,128.1,131.2,127.4,131.1z"/>
		<path class="st36" d="M62.1,136.8c0.5-0.5,1-1,1.7-1C63.5,136.5,62.9,136.8,62.1,136.8z"/>
		<path class="st32" d="M73.9,146.9c0.5,0,1,0,1.5,0c-0.5,0.6-1.3,0.5-1.9,0.5C73.6,147.2,73.8,147.1,73.9,146.9z"/>
		<path class="st32" d="M73.5,147.4c-0.4,0.5-0.9,0.5-1.5,0.5C72.4,147.4,72.9,147.3,73.5,147.4z"/>
		<path class="st37" d="M142.1,126.8c-0.3,0-0.7,0-1-0.1c0.5-0.5,1-0.5,1.5-0.1C142.5,126.6,142.3,126.7,142.1,126.8z"/>
		<path class="st38" d="M151.4,123.8c-0.2-0.1-0.4-0.2-0.6-0.4c0.3,0,0.6,0,1-0.1C151.6,123.5,151.5,123.6,151.4,123.8z"/>
		<path class="st39" d="M129.3,130.6c-0.2,0-0.4-0.1-0.6-0.1c0.3-0.3,0.6-0.4,1-0.4c0,0.2,0,0.3,0,0.5c0,0-0.2,0.1-0.2,0.1
			L129.3,130.6z"/>
		<path class="st12" d="M82.2,145c-0.3,0.3-0.7,0.5-1.2,0.4C81.3,145.1,81.7,144.9,82.2,145z"/>
		<path class="st40" d="M35.5,158.4c0,0.1,0,0.3,0,0.4c-0.2,0.1-0.3,0.1-0.5,0.2C34.8,158.5,35.1,158.4,35.5,158.4z"/>
		<polygon class="st7" points="87.6,120.3 87.5,120.4 87.5,120.3 		"/>
		<polygon class="st7" points="139.9,127.3 140.1,127.3 140,127.4 		"/>
		<path class="st4" d="M160.8,121.4c0-0.1,0.1-0.2,0.2-0.4c0.1,0.2,0.1,0.3,0.2,0.5C161,121.5,160.9,121.5,160.8,121.4z"/>
		<path class="st21" d="M62.9,150.7c0.3-0.3,0.6-0.4,1-0.4C63.6,150.7,63.3,150.7,62.9,150.7z"/>
		<polygon class="st7" points="60.3,151.4 60.4,151.3 60.4,151.5 		"/>
	</g>
</g>
</svg>
